<?xml version="1.0" encoding="UTF-8" standalone="no"?>
<svg width="1168px" height="711px" viewBox="0 0 1168 711" version="1.1" xmlns="http://www.w3.org/2000/svg" xmlns:xlink="http://www.w3.org/1999/xlink" xmlns:sketch="http://www.bohemiancoding.com/sketch/ns">
    <!-- Generator: Sketch 3.4.2 (15857) - http://www.bohemiancoding.com/sketch -->
    <title>branding-thumb</title>
    <desc>Created with Sketch.</desc>
    <defs></defs>
    <g id="Page-1" stroke="none" stroke-width="1" fill="none" fill-rule="evenodd" sketch:type="MSPage">
        <g id="branding-thumb" sketch:type="MSLayerGroup">
            <rect id="Rectangle-11" fill="#1B1B1B" sketch:type="MSShapeGroup" x="0" y="0" width="1168" height="711"></rect>
            <g id="logo-lg-light" transform="translate(409.000000, 180.000000)" sketch:type="MSShapeGroup">
                <g id="Page-1">
                    <g>
                        <g id="logo-lg-light">
                            <g id="Group">
                                <circle id="Oval-1" fill="#D8D8D8" cx="175.5" cy="175.5" r="175.5"></circle>
                                <g id="r-+-f" transform="translate(111.351724, 67.779310)" fill="#0C0C0C">
                                    <path d="M85.9602164,111.39007 C84.0102402,110.858258 82.1046104,110.503723 80.2432695,110.326452 C78.3819286,110.149181 76.5649326,110.060548 74.7922272,110.060548 C68.9422987,110.060548 64.0231146,111.124155 60.0345271,113.251401 C56.0459395,115.378648 52.8551174,117.949033 50.4619648,120.962632 C48.0688121,123.976232 46.3404501,127.255688 45.2768269,130.801099 C44.2132035,134.34651 43.6813998,137.448698 43.6813998,140.107757 L43.6813998,208.17931 L0.0730608151,208.17931 L0.0730608151,75.7588662 C0.0730608151,75.7588662 91.0124136,75.4043252 92.076037,75.7588662" id="r"></path>
                                    <path d="M143.174003,39.3299489 C141.578568,38.7981372 139.717255,38.3549675 137.590008,38.0004263 C135.462761,37.6458853 133.335546,37.4686172 131.2083,37.4686172 C127.131077,37.4686172 123.851621,38.1776888 121.369833,39.5958535 C118.888045,41.0140179 116.938099,42.9196477 115.519934,45.3128003 C114.101769,47.7059527 113.126796,50.4092881 112.594984,53.4228877 C112.063173,56.4364871 111.797271,59.4500414 111.797271,62.463641 L111.797271,75.7588662 L141.312671,75.7588662 L141.312671,108.46512 L111.797271,108.46512 L111.797271,208.17931 L68.1889319,208.17931 L68.1889319,108.46512 L43.9916218,108.46512 L43.9916218,75.7588662 L68.1889319,75.7588662 L68.1889319,62.99545 C68.1889319,54.8410042 69.0752713,47.0855338 70.847977,39.7288057 C72.6206824,32.3720774 75.6785537,25.9017993 80.0216825,20.3177767 C84.364811,14.7337541 90.2146516,10.3020567 97.5713799,7.02255136 C104.928108,3.74304604 114.101722,2.10331798 125.092496,2.10331798 C128.815178,2.10331798 132.493487,2.32490286 136.127533,2.76807924 C139.76158,3.21125565 143.085353,3.87601026 146.098952,4.76236304 L143.174003,39.3299489 L143.174003,39.3299489 Z" id="f"></path>
                                </g>
                            </g>
                        </g>
                    </g>
                </g>
            </g>
        </g>
    </g>
</svg>