<?xml version="1.0" encoding="UTF-8" standalone="no"?>
<svg width="1168px" height="711px" viewBox="0 0 1168 711" version="1.1" xmlns="http://www.w3.org/2000/svg" xmlns:xlink="http://www.w3.org/1999/xlink" xmlns:sketch="http://www.bohemiancoding.com/sketch/ns">
    <!-- Generator: Sketch 3.5.1 (25234) - http://www.bohemiancoding.com/sketch -->
    <title>shopping-list-app-thumb</title>
    <desc>Created with Sketch.</desc>
    <defs></defs>
    <g id="Page-1" stroke="none" stroke-width="1" fill="none" fill-rule="evenodd" sketch:type="MSPage">
        <g id="shopping-list-app-thumb" sketch:type="MSLayerGroup">
            <rect id="Rectangle-23" fill="#567D77" sketch:type="MSShapeGroup" x="0" y="0" width="1168" height="711"></rect>
            <g id="logo" transform="translate(376.000000, 114.000000)">
                <ellipse id="Oval-12" fill="#FFFFFF" sketch:type="MSShapeGroup" cx="209.119565" cy="174.923913" rx="174.923913" ry="174.923913"></ellipse>
                <path d="M134.152174,111.793478 L134.152174,241.113529" id="Line" stroke="#567D77" stroke-width="4" stroke-linecap="square" sketch:type="MSShapeGroup"></path>
                <path d="M161.771739,139.413043 L324.858696,139.413043" id="Line" stroke="#567D77" stroke-width="4" stroke-linecap="square" sketch:type="MSShapeGroup"></path>
                <path d="M161.771739,181.5 L324.858696,181.5" id="Line" stroke="#567D77" stroke-width="4" stroke-linecap="square" sketch:type="MSShapeGroup"></path>
                <path d="M161.771739,220.956522 L324.858696,220.956522" id="Line" stroke="#567D77" stroke-width="4" stroke-linecap="square" sketch:type="MSShapeGroup"></path>
                <path d="M102.586957,149.934783 C108.397953,149.934783 113.108696,145.22404 113.108696,139.413043 C113.108696,133.602047 108.397953,128.891304 102.586957,128.891304 C96.7759605,128.891304 92.0652174,133.602047 92.0652174,139.413043 C92.0652174,145.22404 96.7759605,149.934783 102.586957,149.934783 Z" id="Oval-9" fill="#567D77" sketch:type="MSShapeGroup"></path>
                <path d="M102.586957,189.391304 C108.397953,189.391304 113.108696,184.680561 113.108696,178.869565 C113.108696,173.058569 108.397953,168.347826 102.586957,168.347826 C96.7759605,168.347826 92.0652174,173.058569 92.0652174,178.869565 C92.0652174,184.680561 96.7759605,189.391304 102.586957,189.391304 Z" id="Oval-9" fill="#567D77" sketch:type="MSShapeGroup"></path>
                <path d="M102.586957,228.847826 C108.397953,228.847826 113.108696,224.137083 113.108696,218.326087 C113.108696,212.515091 108.397953,207.804348 102.586957,207.804348 C96.7759605,207.804348 92.0652174,212.515091 92.0652174,218.326087 C92.0652174,224.137083 96.7759605,228.847826 102.586957,228.847826 Z" id="Oval-9" fill="#567D77" sketch:type="MSShapeGroup"></path>
                <text id="Shopping-List" sketch:type="MSTextLayer" font-family=".AppleSystemUIFont" font-size="63.1304348" font-weight="bold" sketch:alignment="middle" fill="#FFFFFF">
                    <tspan x="5.79003906" y="471.347826">Shopping List</tspan>
                </text>
            </g>
        </g>
    </g>
</svg>