<?xml version="1.0" encoding="UTF-8" standalone="no"?>
<svg width="1168px" height="711px" viewBox="0 0 1168 711" version="1.1" xmlns="http://www.w3.org/2000/svg" xmlns:xlink="http://www.w3.org/1999/xlink" xmlns:sketch="http://www.bohemiancoding.com/sketch/ns">
    <!-- Generator: Sketch 3.4.2 (15857) - http://www.bohemiancoding.com/sketch -->
    <title>vector-art-thumb</title>
    <desc>Created with Sketch.</desc>
    <defs></defs>
    <g id="Page-1" stroke="none" stroke-width="1" fill="none" fill-rule="evenodd" sketch:type="MSPage">
        <g id="vector-art-thumb" sketch:type="MSLayerGroup">
            <rect id="Rectangle-11" fill="#F2F2F2" sketch:type="MSShapeGroup" x="0" y="0" width="1168" height="711"></rect>
            <g id="cat" transform="translate(409.000000, 8.000000)" sketch:type="MSShapeGroup">
                <g id="Layer_1">
                    <g id="Group">
                        <path d="M219.221374,685.135036 C219.221374,701.345255 193.117557,685.135036 161.184733,685.135036 C129.251908,685.135036 103.148092,701.091971 103.148092,685.135036 C103.148092,668.924818 129.251908,640.050365 161.184733,640.050365 C193.117557,640.050365 219.221374,668.924818 219.221374,685.135036 L219.221374,685.135036 Z" id="Shape" stroke="#000000" fill="#000000"></path>
                        <path d="M342.644275,685.135036 C342.644275,701.345255 316.540458,685.135036 284.607634,685.135036 C252.421374,685.135036 226.570992,701.091971 226.570992,685.135036 C226.570992,668.924818 252.674809,640.050365 284.607634,640.050365 C316.540458,640.050365 342.644275,668.924818 342.644275,685.135036 L342.644275,685.135036 Z" id="Shape" stroke="#000000" fill="#000000"></path>
                        <path d="M235.948092,661.072993 C235.948092,595.725547 283.593893,542.789051 342.644275,542.789051" id="Shape" stroke="#4D4D4D"></path>
                        <g>
                            <path d="M390.796947,625.613139 C390.796947,625.613139 440.977099,628.39927 456.690076,517.713869 C472.403053,407.028467 419.68855,341.174453 501.548092,264.935766 C583.154198,188.443796 680.726718,264.935766 659.691603,299.129197 C638.656489,333.322628 612.299237,328.00365 591.264122,296.59635 C570.229008,264.935766 536.015267,238.594161 512.192366,317.618978 C488.369466,396.643796 525.624427,415.133577 526.891603,509.862044 C528.158779,604.590511 372.549618,651.70146 391.050382,643.849635 C409.551145,635.99781 316.793893,683.615328 390.796947,625.613139 L390.796947,625.613139 Z" id="Shape" fill="#CCCCCC"></path>
                            <path d="M234.174046,231.248905 C234.174046,231.248905 273.456489,326.990511 292.717557,361.437226 C311.978626,395.630657 403.722137,422.225547 398.90687,553.680292 C393.584733,701.091971 227.331298,687.921168 227.331298,687.921168 C159.917557,685.388321 29.9053435,665.885401 117.593893,553.680292 C176.39084,478.454745 79.8320611,458.951825 57.529771,384.992701 C35.2274809,311.286861 153.581679,250.751825 153.581679,250.751825 C153.581679,250.751825 149.526718,240.113869 170.054962,224.410219 C190.836641,208.706569 190.583206,188.190511 234.174046,231.248905 L234.174046,231.248905 Z" id="Shape" fill="#CCCCCC"></path>
                            <path d="M278.525191,148.424818 C296.012214,131.961314 275.483969,91.4357664 252.167939,67.120438 C226.317557,39.7656934 194.131298,15.9569343 159.157252,15.9569343 C123.929771,15.9569343 92.2503817,38.7525547 66.4,66.1072993 C43.5908397,89.9160584 23.0625954,127.148905 38.7755725,145.132117 C72.2290076,183.884672 92.5038168,237.327737 158.650382,237.327737 C224.796947,237.327737 246.085496,179.072263 278.525191,148.424818 L278.525191,148.424818 Z" id="Shape" fill="#CCCCCC"></path>
                            <path d="M0.760305344,5.82554745 C0.760305344,5.82554745 13.9389313,94.2218978 24.0763359,102.833577 C34.2137405,111.445255 54.2351145,42.0452555 88.7022901,31.4072993 C123.169466,20.7693431 11.151145,-7.34525547 0.760305344,5.82554745 L0.760305344,5.82554745 Z" id="Shape" fill="#CCCCCC"></path>
                            <path d="M102.134351,125.122628 L136.094656,158.30292" id="Shape" stroke="#000000" stroke-width="3" fill="#CCCCCC"></path>
                            <path d="M220.235115,125.122628 L186.528244,158.30292" id="Shape" stroke="#000000" stroke-width="3" fill="#CCCCCC"></path>
                            <path d="M12.4183206,18.489781 C12.4183206,18.489781 20.2748092,71.679562 26.3572519,76.7452555 C32.4396947,81.8109489 44.6045802,40.2722628 65.1328244,33.940146 C85.9145038,27.3547445 18.7541985,10.3846715 12.4183206,18.489781 L12.4183206,18.489781 Z" id="Shape" fill="#000000"></path>
                            <path d="M315.780153,5.82554745 C315.780153,5.82554745 302.601527,94.2218978 292.464122,102.833577 C282.326718,111.445255 262.305344,42.0452555 227.838168,31.4072993 C193.370992,20.7693431 305.389313,-7.34525547 315.780153,5.82554745 L315.780153,5.82554745 Z" id="Shape" fill="#CCCCCC"></path>
                            <path d="M304.122137,18.489781 C304.122137,18.489781 296.265649,71.679562 290.183206,76.7452555 C284.100763,81.8109489 271.935878,40.2722628 251.407634,33.940146 C230.625954,27.3547445 297.78626,10.3846715 304.122137,18.489781 L304.122137,18.489781 Z" id="Shape" fill="#000000"></path>
                            <path d="M215.419847,675.00365 C213.138931,590.913139 201.734351,523.032847 189.822901,523.539416" id="Shape" stroke="#4D4D4D"></path>
                            <ellipse id="Oval" fill="#E05D6E" cx="89.7160305" cy="166.154745" rx="23.5694656" ry="23.5554745"></ellipse>
                            <path d="M10.3908397,156.783212 C10.3908397,156.783212 90.4763359,153.99708 104.922137,175.272993" id="Shape" stroke="#000000" fill="#CCCCCC"></path>
                            <path d="M13.9389313,202.627737 C13.9389313,202.627737 85.9145038,167.674453 107.963359,181.09854" id="Shape" stroke="#000000" fill="#CCCCCC"></path>
                            <path d="M105.175573,190.216788 C105.175573,190.216788 43.0839695,224.410219 30.1587786,244.166423" id="Shape" stroke="#000000" fill="#CCCCCC"></path>
                            <ellipse id="Oval" fill="#E05D6E" cx="226.064122" cy="166.154745" rx="23.5694656" ry="23.5554745"></ellipse>
                            <ellipse id="Oval" stroke="#000000" fill="#000000" cx="160.677863" cy="201.867883" rx="70.9618321" ry="35.459854"></ellipse>
                            <path d="M302.601527,156.783212 C302.601527,156.783212 222.516031,153.99708 208.070229,175.272993" id="Shape" stroke="#000000" fill="#CCCCCC"></path>
                            <path d="M299.053435,205.920438 C299.053435,205.920438 227.077863,170.967153 205.029008,184.391241" id="Shape" stroke="#000000" fill="#CCCCCC"></path>
                            <path d="M207.816794,193.509489 C207.816794,193.509489 269.908397,227.70292 282.833588,247.459124" id="Shape" stroke="#000000" fill="#CCCCCC"></path>
                        </g>
                    </g>
                </g>
            </g>
        </g>
    </g>
</svg>