<?xml version="1.0" encoding="UTF-8" standalone="no"?>
<svg width="376px" height="434px" viewBox="0 0 376 434" version="1.1" xmlns="http://www.w3.org/2000/svg" xmlns:xlink="http://www.w3.org/1999/xlink" xmlns:sketch="http://www.bohemiancoding.com/sketch/ns">
    <!-- Generator: Sketch 3.4.2 (15857) - http://www.bohemiancoding.com/sketch -->
    <title>old-brand</title>
    <desc>Created with Sketch.</desc>
    <defs></defs>
    <g id="Page-1" stroke="none" stroke-width="1" fill="none" fill-rule="evenodd" sketch:type="MSPage">
        <g id="old-brand" sketch:type="MSLayerGroup">
            <rect id="Rectangle-56" fill="#FFFFFF" sketch:type="MSShapeGroup" x="0" y="0" width="376" height="434"></rect>
            <g id="logo" transform="translate(108.000000, 226.000000)" sketch:type="MSShapeGroup">
                <g id="Slice-1">
                    <g id="Page-1">
                        <g id="Oval-3-+-logo">
                            <ellipse id="Oval-3" stroke="#979797" fill="#505050" cx="80.4939325" cy="92.0264423" rx="80.4939325" ry="81.7911482"></ellipse>
                            <g id="logo" transform="translate(19.166667, 0.000000)">
                                <g id="Layer_1">
                                    <g id="Group">
                                        <path d="M118.189471,129.290567 L123.132072,37.1169092 C123.132072,20.4143001 102.126019,0 85.6506826,0 L38.0781505,0 C21.3968729,0 0.390819603,20.4143001 0.390819603,36.9107042 L5.33342038,129.496772 L61.7614458,64.1297707 L118.189471,129.290567 L118.189471,129.290567 L118.189471,129.290567 Z" id="Shape" fill="#E05D6E"></path>
                                        <path d="M111.187454,71.5531526 C111.187454,105.370781 88.9457501,135.270514 61.7614458,135.270514 C34.3711999,135.270514 12.3354381,105.370781 12.3354381,71.555215 L41.9910428,17.7356965 L61.9673876,23.921848 L81.9437324,17.7356965 L111.187454,71.5531526 L111.187454,71.5531526 L111.187454,71.5531526 Z" id="Shape" fill="#CCCCCC"></path>
                                        <path d="M61.1436208,77.3268941 C61.1436208,83.5130458 55.9950782,88.6681719 49.8168273,88.6681719 L23.0444065,88.6681719 C16.8661555,88.6681719 11.717613,83.5130458 11.717613,77.3268941 L11.717613,77.3268941 C11.717613,71.1407425 16.8661555,65.9856163 23.0444065,65.9856163 L49.8168273,65.9856163 C55.9950782,65.9856163 61.1436208,71.1407425 61.1436208,77.3268941 L61.1436208,77.3268941 L61.1436208,77.3268941 L61.1436208,77.3268941 Z" id="Shape" fill="#E05D6E"></path>
                                        <path d="M110.569628,77.3268941 C110.569628,83.5130458 105.421086,88.6681719 99.2428348,88.6681719 L72.4704144,88.6681719 C66.2921634,88.6681719 61.1436208,83.5130458 61.1436208,77.3268941 L61.1436208,77.3268941 C61.1436208,71.1407425 66.2921634,65.9856163 72.4704144,65.9856163 L99.2428348,65.9856163 C105.421086,65.9856163 110.569628,71.1407425 110.569628,77.3268941 L110.569628,77.3268941 L110.569628,77.3268941 L110.569628,77.3268941 Z" id="Shape" fill="#E05D6E"></path>
                                        <path d="M79.6783736,113.412778 C79.6783736,114.650009 78.8546068,115.474829 77.6189567,115.474829 L46.7277019,115.474829 C45.4920516,115.474829 44.6682849,114.650009 44.6682849,113.412778 L44.6682849,113.412778 C44.6682849,112.175548 45.4920516,111.350727 46.7277019,111.350727 L77.6189567,111.350727 C78.8546068,111.350727 79.6783736,112.175548 79.6783736,113.412778 L79.6783736,113.412778 L79.6783736,113.412778 L79.6783736,113.412778 Z" id="Shape" fill="#E05D6E"></path>
                                    </g>
                                </g>
                            </g>
                        </g>
                    </g>
                </g>
            </g>
            <g id="logo" transform="translate(125.000000, 23.000000)" sketch:type="MSShapeGroup">
                <g id="Layer_1">
                    <g id="Group">
                        <path d="M118.189471,129.290567 L123.132072,37.1169092 C123.132072,20.4143001 102.126019,0 85.6506826,0 L38.0781505,0 C21.3968729,0 0.390819603,20.4143001 0.390819603,36.9107042 L5.33342038,129.496772 L61.7614458,64.1297707 L118.189471,129.290567 L118.189471,129.290567 L118.189471,129.290567 Z" id="Shape" fill="#E05D6E"></path>
                        <path d="M111.187454,71.5531526 C111.187454,105.370781 88.9457501,135.270514 61.7614458,135.270514 C34.3711999,135.270514 12.3354381,105.370781 12.3354381,71.555215 L41.9910428,17.7356965 L61.9673876,23.921848 L81.9437324,17.7356965 L111.187454,71.5531526 L111.187454,71.5531526 L111.187454,71.5531526 Z" id="Shape" fill="#CCCCCC"></path>
                        <path d="M61.1436208,77.3268941 C61.1436208,83.5130458 55.9950782,88.6681719 49.8168273,88.6681719 L23.0444065,88.6681719 C16.8661555,88.6681719 11.717613,83.5130458 11.717613,77.3268941 L11.717613,77.3268941 C11.717613,71.1407425 16.8661555,65.9856163 23.0444065,65.9856163 L49.8168273,65.9856163 C55.9950782,65.9856163 61.1436208,71.1407425 61.1436208,77.3268941 L61.1436208,77.3268941 L61.1436208,77.3268941 L61.1436208,77.3268941 Z" id="Shape" fill="#E05D6E"></path>
                        <path d="M110.569628,77.3268941 C110.569628,83.5130458 105.421086,88.6681719 99.2428348,88.6681719 L72.4704144,88.6681719 C66.2921634,88.6681719 61.1436208,83.5130458 61.1436208,77.3268941 L61.1436208,77.3268941 C61.1436208,71.1407425 66.2921634,65.9856163 72.4704144,65.9856163 L99.2428348,65.9856163 C105.421086,65.9856163 110.569628,71.1407425 110.569628,77.3268941 L110.569628,77.3268941 L110.569628,77.3268941 L110.569628,77.3268941 Z" id="Shape" fill="#E05D6E"></path>
                        <path d="M79.6783736,113.412778 C79.6783736,114.650009 78.8546068,115.474829 77.6189567,115.474829 L46.7277019,115.474829 C45.4920516,115.474829 44.6682849,114.650009 44.6682849,113.412778 L44.6682849,113.412778 C44.6682849,112.175548 45.4920516,111.350727 46.7277019,111.350727 L77.6189567,111.350727 C78.8546068,111.350727 79.6783736,112.175548 79.6783736,113.412778 L79.6783736,113.412778 L79.6783736,113.412778 L79.6783736,113.412778 Z" id="Shape" fill="#E05D6E"></path>
                    </g>
                </g>
            </g>
        </g>
    </g>
</svg>