<?xml version="1.0" encoding="UTF-8" standalone="no"?>
<svg width="772px" height="449px" viewBox="0 0 772 449" version="1.1" xmlns="http://www.w3.org/2000/svg" xmlns:xlink="http://www.w3.org/1999/xlink" xmlns:sketch="http://www.bohemiancoding.com/sketch/ns">
    <!-- Generator: Sketch 3.4.2 (15857) - http://www.bohemiancoding.com/sketch -->
    <title>rf-brand</title>
    <desc>Created with Sketch.</desc>
    <defs></defs>
    <g id="Page-1" stroke="none" stroke-width="1" fill="none" fill-rule="evenodd" sketch:type="MSPage">
        <g id="rf-brand" sketch:type="MSLayerGroup">
            <rect id="Rectangle-51" fill="#FFFFFF" sketch:type="MSShapeGroup" x="0" y="0" width="772" height="449"></rect>
            <g id="logo-lg-light" transform="translate(27.000000, 30.000000)" sketch:type="MSShapeGroup">
                <g>
                    <circle id="Oval-1" fill="#D8D8D8" cx="72.5" cy="72.5" r="72.5"></circle>
                    <g id="r-+-f" transform="translate(46.000000, 28.000000)" fill="#0C0C0C">
                        <path d="M35.5106307,46.0158409 C34.705085,45.7961466 33.917859,45.649686 33.148929,45.5764545 C32.379999,45.5032231 31.6293881,45.466608 30.8970739,45.466608 C28.4804368,45.466608 26.4482952,45.9059899 24.8005881,46.784767 C23.152881,47.6635442 21.8347351,48.7253839 20.8461108,49.9703182 C19.8574865,51.2152524 19.1434908,52.5700135 18.7041023,54.034642 C18.2647137,55.4992706 18.0450227,56.7808013 18.0450227,57.8792727 L18.0450227,86 L0.0301818182,86 L0.0301818182,31.2963977 C0.0301818182,31.2963977 37.5977207,31.1499349 38.0371093,31.2963977" id="r"></path>
                        <path d="M59.1459555,16.2474148 C58.4868727,16.0277205 57.7179542,15.8446447 56.8391771,15.6981818 C55.9604,15.551719 55.081636,15.4784886 54.2028589,15.4784886 C52.5185361,15.4784886 51.163775,15.7714099 50.138535,16.3572614 C49.1132951,16.9431128 48.3077615,17.7303388 47.72191,18.7189631 C47.1360586,19.7075873 46.7332918,20.8243498 46.5135975,22.0692841 C46.2939033,23.3142183 46.1840578,24.5591339 46.1840578,25.8040682 L46.1840578,31.2963977 L58.3770294,31.2963977 L58.3770294,44.8075284 L46.1840578,44.8075284 L46.1840578,86 L28.1692169,86 L28.1692169,44.8075284 L18.1731771,44.8075284 L18.1731771,31.2963977 L28.1692169,31.2963977 L28.1692169,26.0237614 C28.1692169,22.6551157 28.5353685,19.4512889 29.2676828,16.4121847 C29.999997,13.3730804 31.2632202,10.7001735 33.0573902,8.39338352 C34.8515601,6.08659358 37.2681609,4.25583537 40.3072652,2.90105398 C43.3463694,1.54627258 47.1360389,0.868892045 51.6763873,0.868892045 C53.2142473,0.868892045 54.7337766,0.960429956 56.2350208,1.14350852 C57.7362651,1.32658709 59.1093337,1.60120082 60.354268,1.96735795 L59.1459555,16.2474148 Z" id="f"></path>
                    </g>
                </g>
            </g>
            <g id="logo-lg-lighter" transform="translate(218.000000, 30.000000)" sketch:type="MSShapeGroup">
                <circle id="Oval-1" fill="#E05D6E" cx="72.5" cy="72.5" r="72.5"></circle>
                <g id="r-+-f" transform="translate(46.000000, 28.000000)" fill="#0C0C0C">
                    <path d="M35.5106307,46.0158409 C34.705085,45.7961466 33.917859,45.649686 33.148929,45.5764545 C32.379999,45.5032231 31.6293881,45.466608 30.8970739,45.466608 C28.4804368,45.466608 26.4482952,45.9059899 24.8005881,46.784767 C23.152881,47.6635442 21.8347351,48.7253839 20.8461108,49.9703182 C19.8574865,51.2152524 19.1434908,52.5700135 18.7041023,54.034642 C18.2647137,55.4992706 18.0450227,56.7808013 18.0450227,57.8792727 L18.0450227,86 L0.0301818182,86 L0.0301818182,31.2963977 C0.0301818182,31.2963977 35.0712429,31.1499348 35.5106315,31.2963977 L35.5106307,46.0158409 Z" id="r"></path>
                    <path d="M59.1459555,16.2474148 C58.4868727,16.0277205 57.7179542,15.8446447 56.8391771,15.6981818 C55.9604,15.551719 55.081636,15.4784886 54.2028589,15.4784886 C52.5185361,15.4784886 51.163775,15.7714099 50.138535,16.3572614 C49.1132951,16.9431128 48.3077615,17.7303388 47.72191,18.7189631 C47.1360586,19.7075873 46.7332918,20.8243498 46.5135975,22.0692841 C46.2939033,23.3142183 46.1840578,24.5591339 46.1840578,25.8040682 L46.1840578,31.2963977 L58.3770294,31.2963977 L58.3770294,44.8075284 L46.1840578,44.8075284 L46.1840578,86 L28.1692169,86 L28.1692169,44.8075284 L18.1731771,44.8075284 L18.1731771,31.2963977 L28.1692169,31.2963977 L28.1692169,26.0237614 C28.1692169,22.6551157 28.5353685,19.4512889 29.2676828,16.4121847 C29.999997,13.3730804 31.2632202,10.7001735 33.0573902,8.39338352 C34.8515601,6.08659358 37.2681609,4.25583537 40.3072652,2.90105398 C43.3463694,1.54627258 47.1360389,0.868892045 51.6763873,0.868892045 C53.2142473,0.868892045 54.7337766,0.960429956 56.2350208,1.14350852 C57.7362651,1.32658709 59.1093337,1.60120082 60.354268,1.96735795 L59.1459555,16.2474148 Z" id="f"></path>
                </g>
            </g>
            <g id="logo-lg" transform="translate(409.000000, 30.000000)" sketch:type="MSShapeGroup">
                <g>
                    <path d="M72.5,145 C112.540644,145 145,112.540644 145,72.5 C145,32.4593556 112.540644,0 72.5,0 C32.4593556,0 0,32.4593556 0,72.5 C0,112.540644 32.4593556,145 72.5,145 Z" id="Oval-1" fill="#D1283E"></path>
                    <path d="M81.5106307,74.0158409 C80.705085,73.7961466 79.917859,73.649686 79.148929,73.5764545 C78.379999,73.5032231 77.6293881,73.466608 76.8970739,73.466608 C74.4804368,73.466608 72.4482952,73.9059899 70.8005881,74.784767 C69.152881,75.6635442 67.8347351,76.7253839 66.8461108,77.9703182 C65.8574865,79.2152524 65.1434908,80.5700135 64.7041023,82.034642 C64.2647137,83.4992706 64.0450227,84.7808013 64.0450227,85.8792727 L64.0450227,114 L46.0301818,114 L46.0301818,59.2963977 C46.0301818,59.2963977 81.0712429,59.1499348 81.5106315,59.2963977 L81.5106307,74.0158409 Z" id="r" fill="#FFFFFF"></path>
                    <path d="M105.145955,44.2474148 C104.486873,44.0277205 103.717954,43.8446447 102.839177,43.6981818 C101.9604,43.551719 101.081636,43.4784886 100.202859,43.4784886 C98.5185361,43.4784886 97.163775,43.7714099 96.138535,44.3572614 C95.1132951,44.9431128 94.3077615,45.7303388 93.72191,46.7189631 C93.1360586,47.7075873 92.7332918,48.8243498 92.5135975,50.0692841 C92.2939033,51.3142183 92.1840578,52.5591339 92.1840578,53.8040682 L92.1840578,59.2963977 L104.377029,59.2963977 L104.377029,72.8075284 L92.1840578,72.8075284 L92.1840578,114 L74.1692169,114 L74.1692169,72.8075284 L64.1731771,72.8075284 L64.1731771,59.2963977 L74.1692169,59.2963977 L74.1692169,54.0237614 C74.1692169,50.6551157 74.5353685,47.4512889 75.2676828,44.4121847 C75.999997,41.3730804 77.2632202,38.7001735 79.0573902,36.3933835 C80.8515601,34.0865936 83.2681609,32.2558354 86.3072652,30.901054 C89.3463694,29.5462726 93.1360389,28.868892 97.6763873,28.868892 C99.2142473,28.868892 100.733777,28.96043 102.235021,29.1435085 C103.736265,29.3265871 105.109334,29.6012008 106.354268,29.967358 L105.145955,44.2474148 Z" id="f" fill="#FFFFFF"></path>
                </g>
            </g>
            <g id="logo-lg-dark" transform="translate(598.000000, 26.000000)" sketch:type="MSShapeGroup">
                <g>
                    <path d="M73.3075284,145 C113.348173,145 145.807528,112.540644 145.807528,72.5 C145.807528,32.4593556 113.348173,0 73.3075284,0 C33.266884,0 0.807528409,32.4593556 0.807528409,72.5 C0.807528409,112.540644 33.266884,145 73.3075284,145 Z" id="Oval-1" fill="#3F3F3F"></path>
                    <path d="M82.3181591,74.0158409 C81.5126134,73.7961466 80.7253874,73.649686 79.9564574,73.5764545 C79.1875274,73.5032231 78.4369165,73.466608 77.7046023,73.466608 C75.2879652,73.466608 73.2558236,73.9059899 71.6081165,74.784767 C69.9604094,75.6635442 68.6422635,76.7253839 67.6536392,77.9703182 C66.6650149,79.2152524 65.9510192,80.5700135 65.5116307,82.034642 C65.0722421,83.4992706 64.8525511,84.7808013 64.8525511,85.8792727 L64.8525511,114 L46.8377102,114 L46.8377102,59.2963977 C46.8377102,59.2963977 81.8787713,59.1499348 82.3181599,59.2963977 L82.3181591,74.0158409 Z" id="r" fill="#FFFFFF"></path>
                    <path d="M105.780307,44.2474148 C105.121224,44.0277205 104.352306,43.8446447 103.473528,43.6981818 C102.594751,43.551719 101.715987,43.4784886 100.83721,43.4784886 C99.1528874,43.4784886 97.7981263,43.7714099 96.7728864,44.3572614 C95.7476464,44.9431128 94.9421128,45.7303388 94.3562614,46.7189631 C93.7704099,47.7075873 93.3676431,48.8243498 93.1479489,50.0692841 C92.9282546,51.3142183 92.8184091,52.5591339 92.8184091,53.8040682 L92.8184091,59.2963977 L105.011381,59.2963977 L105.011381,72.8075284 L92.8184091,72.8075284 L92.8184091,114 L74.8035682,114 L74.8035682,72.8075284 L64.8075284,72.8075284 L64.8075284,59.2963977 L74.8035682,59.2963977 L74.8035682,54.0237614 C74.8035682,50.6551157 75.1697198,47.4512889 75.9020341,44.4121847 C76.6343484,41.3730804 77.8975715,38.7001735 79.6917415,36.3933835 C81.4859114,34.0865936 83.9025123,32.2558354 86.9416165,30.901054 C89.9807207,29.5462726 93.7703902,28.868892 98.3107386,28.868892 C99.8485986,28.868892 101.368128,28.96043 102.869372,29.1435085 C104.370616,29.3265871 105.743685,29.6012008 106.988619,29.967358 L105.780307,44.2474148 Z" id="f" fill="#FFFFFF"></path>
                </g>
            </g>
            <g id="logo-sm-light" transform="translate(27.000000, 352.000000)" sketch:type="MSShapeGroup">
                <g id="logo-lg-light">
                    <circle id="Oval-1" fill="#D8D8D8" cx="36.5" cy="36.5" r="36.5"></circle>
                    <g id="r-+-f" transform="translate(23.158621, 14.096552)" fill="#0C0C0C">
                        <path d="M17.8777658,23.1665958 C17.4722152,23.0559911 17.0758876,22.9822557 16.6887711,22.9453875 C16.3016547,22.9085192 15.9237609,22.8900854 15.5550786,22.8900854 C14.3384268,22.8900854 13.3153486,23.1112915 12.4858133,23.5537103 C11.656278,23.9961291 10.9926597,24.5307105 10.4949385,25.1574705 C9.99721736,25.7842305 9.63775745,26.4662827 9.41654804,27.2036474 C9.19533863,27.9410121 9.08473558,28.5861965 9.08473558,29.1392201 L9.08473558,43.2965517 L0.0151949843,43.2965517 L0.0151949843,15.7561175 C0.0151949843,15.7561175 18.9285077,15.682381 19.1497171,15.7561175" id="r"></path>
                        <path d="M29.7769293,8.17973295 C29.4451152,8.06912825 29.0580045,7.97695904 28.6155857,7.90322257 C28.1731669,7.8294861 27.7307547,7.79261842 27.2883359,7.79261842 C26.4403664,7.79261842 25.7583143,7.94008915 25.242159,8.23503503 C24.7260037,8.52998092 24.3204592,8.9263085 24.0255133,9.42402968 C23.7305674,9.92175086 23.5277952,10.483983 23.4171905,11.110743 C23.3065858,11.737503 23.2512843,12.3642536 23.2512843,12.9910136 L23.2512843,15.7561175 L29.3898148,15.7561175 L29.3898148,22.5582729 L23.2512843,22.5582729 L23.2512843,43.2965517 L14.1817437,43.2965517 L14.1817437,22.5582729 L9.14925467,22.5582729 L9.14925467,15.7561175 L14.1817437,15.7561175 L14.1817437,13.1016178 C14.1817437,11.405679 14.3660821,9.79271784 14.7347644,8.26268607 C15.1034468,6.73265429 15.7394143,5.38698388 16.6426861,4.22563446 C17.5459578,3.06428504 18.7625914,2.14259298 20.2926231,1.46053062 C21.8226549,0.778468266 23.7305575,0.437442202 26.0163881,0.437442202 C26.790621,0.437442202 27.5556255,0.483526805 28.3114243,0.575697394 C29.0672231,0.667867983 29.7584922,0.806121793 30.3852522,0.99046297 L29.7769293,8.17973295 Z" id="f"></path>
                    </g>
                </g>
            </g>
            <g id="logo-sm-lighter" transform="translate(123.000000, 352.000000)" sketch:type="MSShapeGroup">
                <circle id="Oval-1" fill="#E05D6E" cx="36.5" cy="36.5" r="36.5"></circle>
                <g id="r-+-f" transform="translate(23.158621, 14.096552)" fill="#0C0C0C">
                    <path d="M17.8777658,23.1665958 C17.4722152,23.0559911 17.0758876,22.9822557 16.6887711,22.9453875 C16.3016547,22.9085192 15.9237609,22.8900854 15.5550786,22.8900854 C14.3384268,22.8900854 13.3153486,23.1112915 12.4858133,23.5537103 C11.656278,23.9961291 10.9926597,24.5307105 10.4949385,25.1574705 C9.99721736,25.7842305 9.63775745,26.4662827 9.41654804,27.2036474 C9.19533863,27.9410121 9.08473558,28.5861965 9.08473558,29.1392201 L9.08473558,43.2965517 L0.0151949843,43.2965517 L0.0151949843,15.7561175 C0.0151949843,15.7561175 17.6565568,15.682381 17.8777662,15.7561175 L17.8777658,23.1665958 Z" id="r"></path>
                    <path d="M29.7769293,8.17973295 C29.4451152,8.06912825 29.0580045,7.97695904 28.6155857,7.90322257 C28.1731669,7.8294861 27.7307547,7.79261842 27.2883359,7.79261842 C26.4403664,7.79261842 25.7583143,7.94008915 25.242159,8.23503503 C24.7260037,8.52998092 24.3204592,8.9263085 24.0255133,9.42402968 C23.7305674,9.92175086 23.5277952,10.483983 23.4171905,11.110743 C23.3065858,11.737503 23.2512843,12.3642536 23.2512843,12.9910136 L23.2512843,15.7561175 L29.3898148,15.7561175 L29.3898148,22.5582729 L23.2512843,22.5582729 L23.2512843,43.2965517 L14.1817437,43.2965517 L14.1817437,22.5582729 L9.14925467,22.5582729 L9.14925467,15.7561175 L14.1817437,15.7561175 L14.1817437,13.1016178 C14.1817437,11.405679 14.3660821,9.79271784 14.7347644,8.26268607 C15.1034468,6.73265429 15.7394143,5.38698388 16.6426861,4.22563446 C17.5459578,3.06428504 18.7625914,2.14259298 20.2926231,1.46053062 C21.8226549,0.778468266 23.7305575,0.437442202 26.0163881,0.437442202 C26.790621,0.437442202 27.5556255,0.483526805 28.3114243,0.575697394 C29.0672231,0.667867983 29.7584922,0.806121793 30.3852522,0.99046297 L29.7769293,8.17973295 Z" id="f"></path>
                </g>
            </g>
            <g id="logo-sm" transform="translate(218.000000, 352.000000)" sketch:type="MSShapeGroup">
                <g id="logo-lg">
                    <path d="M36.5,73 C56.6583934,73 73,56.6583934 73,36.5 C73,16.3416066 56.6583934,0 36.5,0 C16.3416066,0 0,16.3416066 0,36.5 C0,56.6583934 16.3416066,73 36.5,73 Z" id="Oval-1" fill="#D1283E"></path>
                    <path d="M41.0363865,37.2631475 C40.6308359,37.1525428 40.2345083,37.0788074 39.8473918,37.0419392 C39.4602754,37.0050709 39.0823816,36.9866371 38.7136993,36.9866371 C37.4970475,36.9866371 36.4739693,37.2078432 35.644434,37.650262 C34.8148987,38.0926809 34.1512804,38.6272623 33.6535592,39.2540223 C33.155838,39.8807823 32.7963781,40.5628344 32.5751687,41.3001991 C32.3539593,42.0375638 32.2433563,42.6827483 32.2433563,43.2357718 L32.2433563,57.3931034 L23.1738157,57.3931034 L23.1738157,29.8526692 C23.1738157,29.8526692 40.8151775,29.7789327 41.0363869,29.8526692 L41.0363865,37.2631475 Z" id="r" fill="#FFFFFF"></path>
                    <path d="M52.93555,22.2762847 C52.6037359,22.16568 52.2166252,22.0735108 51.7742064,21.9997743 C51.3317876,21.9260378 50.8893754,21.8891701 50.4469566,21.8891701 C49.5989871,21.8891701 48.916935,22.0366409 48.4007797,22.3315868 C47.8846244,22.6265326 47.4790799,23.0228602 47.184134,23.5205814 C46.8891881,24.0183026 46.6864159,24.5805347 46.5758112,25.2072947 C46.4652065,25.8340548 46.4099049,26.4608054 46.4099049,27.0875654 L46.4099049,29.8526692 L52.5484355,29.8526692 L52.5484355,36.6548246 L46.4099049,36.6548246 L46.4099049,57.3931034 L37.3403643,57.3931034 L37.3403643,36.6548246 L32.3078754,36.6548246 L32.3078754,29.8526692 L37.3403643,29.8526692 L37.3403643,27.1981695 C37.3403643,25.5022307 37.5247028,23.8892696 37.8933851,22.3592378 C38.2620675,20.829206 38.898035,19.4835356 39.8013068,18.3221862 C40.7045785,17.1608368 41.9212121,16.2391447 43.4512438,15.5570823 C44.9812756,14.87502 46.8891782,14.5339939 49.1750088,14.5339939 C49.9492417,14.5339939 50.7142461,14.5800785 51.470045,14.6722491 C52.2258438,14.7644197 52.9171128,14.9026735 53.5438729,15.0870147 L52.93555,22.2762847 Z" id="f" fill="#FFFFFF"></path>
                </g>
            </g>
            <g id="logo-sm-dark" transform="translate(313.000000, 350.000000)" sketch:type="MSShapeGroup">
                <g id="logo-lg-dark">
                    <path d="M36.6537642,73 C56.6740864,73 72.9037642,56.6583934 72.9037642,36.5 C72.9037642,16.3416066 56.6740864,0 36.6537642,0 C16.633442,0 0.403764205,16.3416066 0.403764205,36.5 C0.403764205,56.6583934 16.633442,73 36.6537642,73 Z" id="Oval-1" fill="#3F3F3F"></path>
                    <path d="M41.1590795,37.2631475 C40.7563067,37.1525428 40.3626937,37.0788074 39.9782287,37.0419392 C39.5937637,37.0050709 39.2184583,36.9866371 38.8523011,36.9866371 C37.6439826,36.9866371 36.6279118,37.2078432 35.8040582,37.650262 C34.9802047,38.0926809 34.3211317,38.6272623 33.8268196,39.2540223 C33.3325075,39.8807823 32.9755096,40.5628344 32.7558153,41.3001991 C32.5361211,42.0375638 32.4262756,42.6827483 32.4262756,43.2357718 L32.4262756,57.3931034 L23.4188551,57.3931034 L23.4188551,29.8526692 C23.4188551,29.8526692 40.9393857,29.7789327 41.15908,29.8526692 L41.1590795,37.2631475 Z" id="r" fill="#FFFFFF"></path>
                    <path d="M52.8901534,22.2762847 C52.560612,22.16568 52.1761528,22.0735108 51.7367642,21.9997743 C51.2973756,21.9260378 50.8579937,21.8891701 50.4186051,21.8891701 C49.5764437,21.8891701 48.8990632,22.0366409 48.3864432,22.3315868 C47.8738232,22.6265326 47.4710564,23.0228602 47.1781307,23.5205814 C46.885205,24.0183026 46.6838216,24.5805347 46.5739744,25.2072947 C46.4641273,25.8340548 46.4092045,26.4608054 46.4092045,27.0875654 L46.4092045,29.8526692 L52.5056903,29.8526692 L52.5056903,36.6548246 L46.4092045,36.6548246 L46.4092045,57.3931034 L37.4017841,57.3931034 L37.4017841,36.6548246 L32.4037642,36.6548246 L32.4037642,29.8526692 L37.4017841,29.8526692 L37.4017841,27.1981695 C37.4017841,25.5022307 37.5848599,23.8892696 37.951017,22.3592378 C38.3171742,20.829206 38.9487858,19.4835356 39.8458707,18.3221862 C40.7429557,17.1608368 41.9512561,16.2391447 43.4708082,15.5570823 C44.9903603,14.87502 46.8851951,14.5339939 49.1553693,14.5339939 C49.9242993,14.5339939 50.684064,14.5800785 51.4346861,14.6722491 C52.1853082,14.7644197 52.8718425,14.9026735 53.4943097,15.0870147 L52.8901534,22.2762847 Z" id="f" fill="#FFFFFF"></path>
                </g>
            </g>
            <g id="logo-light" transform="translate(27.000000, 208.000000)" sketch:type="MSShapeGroup">
                <g id="logo-lg-light">
                    <ellipse id="Oval-1" fill="#D8D8D8" cx="54.5" cy="54.5" rx="54.5" ry="54.5"></ellipse>
                    <g id="r-+-f" transform="translate(34.579310, 21.048276)" fill="#0C0C0C">
                        <path d="M26.6941982,34.5912183 C26.0886501,34.4260688 25.4968733,34.3159708 24.9188501,34.260921 C24.3408268,34.2058712 23.7765745,34.1783467 23.2260762,34.1783467 C21.4094318,34.1783467 19.8818219,34.5086407 18.6432007,35.1692387 C17.4045795,35.8298366 16.4136974,36.6280472 15.6705247,37.5638944 C14.9273519,38.4997415 14.3906241,39.5181481 14.0603252,40.6191447 C13.7300262,41.7201413 13.5648792,42.6834989 13.5648792,43.5092464 L13.5648792,64.6482759 L0.0226884013,64.6482759 L0.0226884013,23.5262576 C0.0226884013,23.5262576 28.2631142,23.4161579 28.5934132,23.5262576" id="r"></path>
                        <path d="M44.4614424,12.2135739 C43.9659939,12.0484244 43.3879794,11.9108019 42.7273814,11.8007022 C42.0667834,11.6906025 41.4061954,11.6355535 40.7455974,11.6355535 C39.4794513,11.6355535 38.4610447,11.8557495 37.690347,12.2961482 C36.9196494,12.7365468 36.3141103,13.3283237 35.8737117,14.0714964 C35.433313,14.8146691 35.1305435,15.6541664 34.965394,16.5900136 C34.8002445,17.5258607 34.717671,18.4616938 34.717671,19.3975409 L34.717671,23.5262576 L43.8834221,23.5262576 L43.8834221,33.6829007 L34.717671,33.6829007 L34.717671,64.6482759 L21.1754803,64.6482759 L21.1754803,33.6829007 L13.6612159,33.6829007 L13.6612159,23.5262576 L21.1754803,23.5262576 L21.1754803,19.5626896 C21.1754803,17.0303973 21.4507253,14.6220034 22.0012236,12.3374354 C22.5517219,10.0528674 23.5013173,8.04357867 24.8500381,6.30950899 C26.198759,4.57543931 28.0153762,3.19921418 30.2999441,2.1807923 C32.5845121,1.16237042 35.4332982,0.653167124 38.8463877,0.653167124 C40.0024342,0.653167124 41.144701,0.721978381 42.2732226,0.859602958 C43.4017441,0.997227536 44.4339129,1.20366131 45.3697601,1.47891046 L44.4614424,12.2135739 Z" id="f"></path>
                    </g>
                </g>
            </g>
            <g id="logo-lighter" transform="translate(170.000000, 208.000000)" sketch:type="MSShapeGroup">
                <ellipse id="Oval-1" fill="#E05D6E" cx="54.5" cy="54.5" rx="54.5" ry="54.5"></ellipse>
                <g id="r-+-f" transform="translate(34.579310, 21.048276)" fill="#0C0C0C">
                    <path d="M26.6941982,34.5912183 C26.0886501,34.4260688 25.4968733,34.3159708 24.9188501,34.260921 C24.3408268,34.2058712 23.7765745,34.1783467 23.2260762,34.1783467 C21.4094318,34.1783467 19.8818219,34.5086407 18.6432007,35.1692387 C17.4045795,35.8298366 16.4136974,36.6280472 15.6705247,37.5638944 C14.9273519,38.4997415 14.3906241,39.5181481 14.0603252,40.6191447 C13.7300262,41.7201413 13.5648792,42.6834989 13.5648792,43.5092464 L13.5648792,64.6482759 L0.0226884013,64.6482759 L0.0226884013,23.5262576 C0.0226884013,23.5262576 26.3638999,23.4161579 26.6941988,23.5262576 L26.6941982,34.5912183 Z" id="r"></path>
                    <path d="M44.4614424,12.2135739 C43.9659939,12.0484244 43.3879794,11.9108019 42.7273814,11.8007022 C42.0667834,11.6906025 41.4061954,11.6355535 40.7455974,11.6355535 C39.4794513,11.6355535 38.4610447,11.8557495 37.690347,12.2961482 C36.9196494,12.7365468 36.3141103,13.3283237 35.8737117,14.0714964 C35.433313,14.8146691 35.1305435,15.6541664 34.965394,16.5900136 C34.8002445,17.5258607 34.717671,18.4616938 34.717671,19.3975409 L34.717671,23.5262576 L43.8834221,23.5262576 L43.8834221,33.6829007 L34.717671,33.6829007 L34.717671,64.6482759 L21.1754803,64.6482759 L21.1754803,33.6829007 L13.6612159,33.6829007 L13.6612159,23.5262576 L21.1754803,23.5262576 L21.1754803,19.5626896 C21.1754803,17.0303973 21.4507253,14.6220034 22.0012236,12.3374354 C22.5517219,10.0528674 23.5013173,8.04357867 24.8500381,6.30950899 C26.198759,4.57543931 28.0153762,3.19921418 30.2999441,2.1807923 C32.5845121,1.16237042 35.4332982,0.653167124 38.8463877,0.653167124 C40.0024342,0.653167124 41.144701,0.721978381 42.2732226,0.859602958 C43.4017441,0.997227536 44.4339129,1.20366131 45.3697601,1.47891046 L44.4614424,12.2135739 Z" id="f"></path>
                </g>
            </g>
            <g id="logo" transform="translate(313.000000, 208.000000)" sketch:type="MSShapeGroup">
                <g id="logo-lg">
                    <path d="M54.5,109 C84.5995189,109 109,84.5995189 109,54.5 C109,24.4004811 84.5995189,0 54.5,0 C24.4004811,0 0,24.4004811 0,54.5 C0,84.5995189 24.4004811,109 54.5,109 Z" id="Oval-1" fill="#D1283E"></path>
                    <path d="M61.2735086,55.6394942 C60.6679604,55.4743447 60.0761836,55.3642467 59.4981604,55.3091969 C58.9201372,55.254147 58.3558849,55.2266225 57.8053866,55.2266225 C55.9887421,55.2266225 54.4611322,55.5569166 53.222511,56.2175145 C51.9838898,56.8781125 50.9930077,57.6763231 50.249835,58.6121702 C49.5066623,59.5480173 48.9699345,60.5664239 48.6396355,61.6674206 C48.3093365,62.7684172 48.1441895,63.7317748 48.1441895,64.5575223 L48.1441895,85.6965517 L34.6019987,85.6965517 L34.6019987,44.5745335 C34.6019987,44.5745335 60.9432102,44.4644338 61.2735092,44.5745334 L61.2735086,55.6394942 Z" id="r" fill="#FFFFFF"></path>
                    <path d="M79.0407527,33.2618497 C78.5453043,33.0967002 77.9672897,32.9590777 77.3066917,32.8489781 C76.6460938,32.7388784 75.9855057,32.6838294 75.3249077,32.6838294 C74.0587616,32.6838294 73.040355,32.9040254 72.2696574,33.3444241 C71.4989597,33.7848227 70.8934207,34.3765995 70.453022,35.1197722 C70.0126234,35.862945 69.7098538,36.7024423 69.5447044,37.6382894 C69.3795549,38.5741365 69.2969814,39.5099696 69.2969814,40.4458168 L69.2969814,44.5745335 L78.4627324,44.5745335 L78.4627324,54.7311765 L69.2969814,54.7311765 L69.2969814,85.6965517 L55.7547906,85.6965517 L55.7547906,54.7311765 L48.2405262,54.7311765 L48.2405262,44.5745335 L55.7547906,44.5745335 L55.7547906,40.6109654 C55.7547906,38.0786732 56.0300356,35.6702792 56.5805339,33.3857112 C57.1310323,31.1011432 58.0806276,29.0918545 59.4293485,27.3577849 C60.7780693,25.6237152 62.5946865,24.24749 64.8792545,23.2290682 C67.1638225,22.2106463 70.0126085,21.701443 73.425698,21.701443 C74.5817445,21.701443 75.7240114,21.7702542 76.8525329,21.9078788 C77.9810544,22.0455034 79.0132233,22.2519372 79.9490704,22.5271863 L79.0407527,33.2618497 Z" id="f" fill="#FFFFFF"></path>
                </g>
            </g>
            <g id="logo-dark" transform="translate(455.000000, 205.000000)" sketch:type="MSShapeGroup">
                <g id="logo-lg-dark">
                    <path d="M55.2316995,109 C85.3993083,109 109.854987,84.5995189 109.854987,54.5 C109.854987,24.4004811 85.3993083,0 55.2316995,0 C25.0640907,0 0.608411815,24.4004811 0.608411815,54.5 C0.608411815,84.5995189 25.0640907,109 55.2316995,109 Z" id="Oval-1" fill="#3F3F3F"></path>
                    <path d="M62.0205308,55.6394942 C61.4136128,55.4743447 60.8204973,55.3642467 60.2411665,55.3091969 C59.6618357,55.254147 59.096307,55.2266225 58.5445634,55.2266225 C56.7238094,55.2266225 55.1927438,55.5569166 53.9513206,56.2175145 C52.7098975,56.8781125 51.7167738,57.6763231 50.9719199,58.6121702 C50.2270661,59.5480173 49.6891241,60.5664239 49.3580779,61.6674206 C49.0270317,62.7684172 48.8615111,63.7317748 48.8615111,64.5575223 L48.8615111,85.6965517 L35.2886858,85.6965517 L35.2886858,44.5745335 C35.2886858,44.5745335 61.6894853,44.4644338 62.0205314,44.5745334 L62.0205308,55.6394942 Z" id="r" fill="#FFFFFF"></path>
                    <path d="M79.6974914,33.2618497 C79.2009222,33.0967002 78.6216001,32.9590777 77.9595077,32.8489781 C77.2974154,32.7388784 76.6353329,32.6838294 75.9732406,32.6838294 C74.7042302,32.6838294 73.6835198,32.9040254 72.9110788,33.3444241 C72.1386377,33.7848227 71.5317288,34.3765995 71.0903339,35.1197722 C70.648939,35.862945 70.3454846,36.7024423 70.1799615,37.6382894 C70.0144384,38.5741365 69.9316781,39.5099696 69.9316781,40.4458168 L69.9316781,44.5745335 L79.1181635,44.5745335 L79.1181635,54.7311765 L69.9316781,54.7311765 L69.9316781,85.6965517 L56.3588527,85.6965517 L56.3588527,54.7311765 L48.8275899,54.7311765 L48.8275899,44.5745335 L56.3588527,44.5745335 L56.3588527,40.6109654 C56.3588527,38.0786732 56.6347204,35.6702792 57.186464,33.3857112 C57.7382077,31.1011432 58.6899511,29.0918545 60.041723,27.3577849 C61.3934949,25.6237152 63.2142216,24.24749 65.5039576,23.2290682 C67.7936937,22.2106463 70.6489241,21.701443 74.0697346,21.701443 C75.2283962,21.701443 76.3732471,21.7702542 77.5043215,21.9078788 C78.6353959,22.0455034 79.6698997,22.2519372 80.6078639,22.5271863 L79.6974914,33.2618497 Z" id="f" fill="#FFFFFF"></path>
                </g>
            </g>
        </g>
    </g>
</svg>