<?xml version="1.0" encoding="UTF-8" standalone="no"?>
<svg width="772px" height="1262px" viewBox="0 0 772 1262" version="1.1" xmlns="http://www.w3.org/2000/svg" xmlns:xlink="http://www.w3.org/1999/xlink" xmlns:sketch="http://www.bohemiancoding.com/sketch/ns">
    <!-- Generator: Sketch 3.4.2 (15857) - http://www.bohemiancoding.com/sketch -->
    <title>matt-rose-art</title>
    <desc>Created with Sketch.</desc>
    <defs></defs>
    <g id="Page-1" stroke="none" stroke-width="1" fill="none" fill-rule="evenodd" sketch:type="MSPage">
        <g id="matt-rose-art" sketch:type="MSLayerGroup">
            <rect id="Rectangle-67" fill="#FFFFFF" sketch:type="MSShapeGroup" x="0" y="0" width="772" height="1262"></rect>
            <g id="wellington" transform="translate(16.000000, 684.000000)" sketch:type="MSShapeGroup">
                <g id="Page-1">
                    <g>
                        <g id="wellington">
                            <g id="rose" transform="translate(595.000000, 91.000000)">
                                <path d="M12.2,224.5 C11.1,228.9 13.8,233.3 18.1,234.4 L18.1,234.4 C22.4,235.4 26.7,232.7 27.8,228.3 L52.5,125.5 C53.6,121.1 50.9,116.7 46.6,115.6 L46.6,115.6 C42.3,114.6 38,117.3 36.9,121.7 L12.2,224.5 L12.2,224.5 L12.2,224.5 Z" id="Shape" fill="#3E3E3E"></path>
                                <g id="Group" transform="translate(78.000000, 303.000000)">
                                    <ellipse id="Oval" fill="#639495" transform="translate(30.355970, 102.511050) rotate(159.083841) translate(-30.355970, -102.511050) " cx="30.35597" cy="102.51105" rx="19.4999201" ry="26.4998915"></ellipse>
                                    <ellipse id="Oval" fill="#FD665D" transform="translate(28.355970, 97.511050) rotate(159.083841) translate(-28.355970, -97.511050) " cx="28.35597" cy="97.51105" rx="19.4999201" ry="26.4998915"></ellipse>
                                    <path d="M14.1,40.3 C14.1,56.2 10.8,90.1 17.9,90.1 L28.9,87.1 C34.9,87.1 33.2,94 33.2,78.1 L40.1,47.1 C40.1,31.2 40.4,0.1 34,0.1 L18,2.1 C11.6,2.1 6.1,2 6.1,17.9 L14.1,40.3 L14.1,40.3 L14.1,40.3 Z" id="Shape" fill="#F3E6D9"></path>
                                </g>
                                <g id="Group" transform="translate(16.000000, 303.000000)">
                                    <ellipse id="Oval" fill="#639495" transform="translate(28.480650, 102.507550) rotate(20.916159) translate(-28.480650, -102.507550) " cx="28.48065" cy="102.50755" rx="19.4999201" ry="26.4998915"></ellipse>
                                    <ellipse id="Oval" fill="#FD665D" transform="translate(30.480750, 97.507650) rotate(20.916159) translate(-30.480750, -97.507650) " cx="30.48075" cy="97.50765" rx="19.4999201" ry="26.4998915"></ellipse>
                                    <path d="M44.8,40.3 C44.8,56.2 48.1,90.1 41,90.1 L30,87.1 C24,87.1 25.7,94 25.7,78.1 L18.8,47.1 C18.8,31.2 18.5,0.1 24.9,0.1 L40.9,2.1 C47.3,2.1 52.8,2 52.8,17.9 L44.8,40.3 L44.8,40.3 L44.8,40.3 Z" id="Shape" fill="#F3E6D9"></path>
                                </g>
                                <path d="M134,318 C134,324.6 128.6,330 122,330 L23,330 C16.4,330 11,324.6 11,318 L28,250 C28,243.4 33.4,238 40,238 L106,238 C112.6,238 118,243.4 118,250 L134,318 L134,318 L134,318 Z" id="Shape" fill="#639495"></path>
                                <path d="M113,174.5 C113,216.2 99.8,250 72.5,250 C45.2,250 32,216.2 32,174.5 C32,132.8 45.2,99 72.5,99 C99.8,99 113,132.8 113,174.5 L113,174.5 L113,174.5 Z" id="Shape" fill="#FD665D"></path>
                                <path d="M118.9,120.6 L123,30.2 C123,16.6 105.8,-1.42108547e-14 92.2,-1.42108547e-14 L53.2,-1.42108547e-14 C39.6,-1.42108547e-14 22.4,16.7 22.4,30.2 L26.5,120.8 L118.9,120.6 L118.9,120.6 L118.9,120.6 Z" id="Shape" fill="#3E3E3E"></path>
                                <path d="M84,124.5 C84,130.9 78.9,136 72.5,136 L72.5,136 C66.1,136 61,130.9 61,124.5 L61,109.5 C61,103.1 66.1,98 72.5,98 L72.5,98 C78.9,98 84,103.1 84,109.5 L84,124.5 L84,124.5 L84,124.5 Z" id="Shape" fill="#F3E6D9"></path>
                                <path d="M113.2,57.6 C113.2,85.2 95.1,109.6 72.7,109.6 C50.3,109.6 32.2,85.2 32.2,57.6 L56.4,13.5 L72.7,18.6 L89,13.5 L113.2,57.6 L113.2,57.6 L113.2,57.6 Z" id="Shape" fill="#F3E6D9"></path>
                                <circle id="Oval" fill="#3E3E3E" cx="59" cy="60" r="7"></circle>
                                <circle id="Oval" fill="#3E3E3E" cx="87" cy="60" r="7"></circle>
                                <path d="M79.4,76 L73,79.4 L66.6,76" id="Shape" stroke="#3E3E3E" stroke-width="3"></path>
                                <path d="M88,85.5 C88,88 81.3,93 73,93 C64.7,93 58,88 58,85.5 C58,83 64.7,88 73,88 C81.3,88 88,83 88,85.5 L88,85.5 L88,85.5 Z" id="Shape" fill="#3E3E3E"></path>
                                <circle id="Oval" fill="#639495" cx="73" cy="162" r="5"></circle>
                                <circle id="Oval" fill="#639495" cx="72" cy="188" r="5"></circle>
                                <circle id="Oval" fill="#639495" cx="72" cy="212" r="5"></circle>
                                <g id="Group" transform="translate(7.000000, 214.000000)">
                                    <path d="M102,59 C102,65.6 96.6,71 90,71 L12,71 C5.4,71 0,65.6 0,59 L0,12 C0,5.4 5.4,0 12,0 L90,0 C96.6,0 102,5.4 102,12 L102,59 L102,59 L102,59 Z" id="Shape" fill="#3E3E3E"></path>
                                    <rect id="Rectangle-path" fill="#DFDFDF" x="0" y="26" width="102" height="4"></rect>
                                </g>
                                <g id="Group" transform="translate(81.000000, 112.000000)">
                                    <g transform="translate(0.000000, 110.000000)" fill="#F3E6D9">
                                        <path d="M2.5,39.1 C7.6,45.9 14.5,49.3 25.7,40.9 C37,32.5 48.3,15.4 43.2,8.6 C38.1,1.8 24.9,3.1 13.6,11.5 C2.4,19.9 -2.6,32.3 2.5,39.1 L2.5,39.1 L2.5,39.1 Z" id="Shape"></path>
                                        <ellipse id="Oval" transform="translate(23.786967, 8.551508) rotate(183.345871) translate(-23.786967, -8.551508) " cx="23.7869666" cy="8.55150827" rx="19.3000887" ry="7.30003356"></ellipse>
                                    </g>
                                    <g id="Shape" transform="translate(21.000000, 0.000000)" fill="#FD665D">
                                        <path d="M8.7,52.5 C9.2,54.6 18.1,82 21.5,81.2 L41.4,76.8 C44.8,76 41.3,47.5 40.8,45.4 L32.9,9.8 C32.4,7.7 27.8,-0.3 24.4,0.5 L4.5,4.9 C1.1,5.7 0.3,14.8 0.8,16.9 L8.7,52.5 L8.7,52.5 L8.7,52.5 Z"></path>
                                        <path d="M10.2,91.8 C9.7,93.2 4.9,112.5 7.3,113.3 L21.6,118.5 C24,119.4 32.7,101.5 33.2,100.1 L41.7,76.5 C42.2,75.1 42.3,68.7 39.9,67.8 L25.6,62.6 C23.2,61.7 19.2,66.7 18.7,68.1 L10.2,91.8 L10.2,91.8 L10.2,91.8 Z"></path>
                                    </g>
                                </g>
                                <g id="Group" transform="translate(0.000000, 109.000000)">
                                    <g transform="translate(19.000000, 112.000000)" fill="#F3E6D9">
                                        <path d="M42.9,39.1 C37.8,45.9 30.9,49.3 19.7,40.9 C8.4,32.5 -2.9,15.4 2.2,8.6 C7.3,1.8 20.5,3.1 31.8,11.5 C42.9,19.9 47.9,32.3 42.9,39.1 L42.9,39.1 L42.9,39.1 Z" id="Shape"></path>
                                        <ellipse id="Oval" transform="translate(21.504257, 8.602314) rotate(-3.345865) translate(-21.504257, -8.602314) " cx="21.504257" cy="8.60231388" rx="19.3000886" ry="7.30003351"></ellipse>
                                    </g>
                                    <g id="Shape" fill="#FD665D">
                                        <path d="M34.6,54.5 C34.1,56.6 25.2,84 21.8,83.2 L1.9,78.8 C-1.5,78 2,49.5 2.5,47.4 L10.4,11.8 C10.9,9.7 15.5,-0.3 18.9,0.5 L38.8,4.9 C42.2,5.7 43,16.8 42.5,18.9 L34.6,54.5 L34.6,54.5 L34.6,54.5 Z"></path>
                                        <path d="M33.1,93.8 C33.6,95.2 38.4,114.5 36,115.3 L21.7,120.5 C19.3,121.4 10.6,103.5 10.1,102.1 L1.6,78.5 C1.1,77.1 1,70.7 3.4,69.8 L17.7,64.6 C20.1,63.7 24.1,68.7 24.6,70.1 L33.1,93.8 L33.1,93.8 L33.1,93.8 Z"></path>
                                    </g>
                                </g>
                                <path d="M79.2,214.5 C78.1,218.9 80.8,223.3 85.1,224.4 L85.1,224.4 C89.4,225.4 93.7,222.7 94.8,218.3 L119.5,115.5 C120.6,111.1 117.9,106.7 113.6,105.6 L113.6,105.6 C109.3,104.6 105,107.3 103.9,111.7 L79.2,214.5 L79.2,214.5 L79.2,214.5 Z" id="Shape" fill="#3E3E3E"></path>
                            </g>
                            <g id="headphones" transform="translate(595.000000, 62.000000)">
                                <path d="M125.8,53.6 C125.8,22.9 108.1,10.3 73.4,10.3 C38.7,10.3 21,22.9 21,53.6 L16.6,47.4 C16.6,16.7 38.6,0 73.4,0 C108.1,0 130.2,16.7 130.2,47.4 L125.8,53.6 L125.8,53.6 L125.8,53.6 Z" id="Shape" fill="#DFDFDF"></path>
                                <g id="Group" transform="translate(0.000000, 45.000000)">
                                    <path d="M14.1,20.9 C13.7,21.8 12.6,22 11.5,21.5 L11.5,21.5 C10.4,20.9 9.9,19.8 10.3,18.9 L17.9,1 C18.3,0.1 19.4,-0.1 20.5,0.4 L20.5,0.4 C21.6,1 22.1,2.1 21.7,3 L14.1,20.9 L14.1,20.9 L14.1,20.9 Z" id="Shape" fill="#FD665D"></path>
                                    <path d="M24.8,57 C12.2,54.6 1.1,44 0.9,33.6 C0.6,23.2 11.3,16.8 23.9,19.2 L24.8,57 L24.8,57 L24.8,57 Z" id="Shape" fill="#FD665D"></path>
                                    <path d="M31.8,58.6 C31.8,60.4 30.3,61.5 28.4,61.1 L28.4,61.1 C26.5,60.7 24.9,59 24.8,57.2 L23.9,18.7 C23.9,16.9 25.4,15.8 27.3,16.2 L27.3,16.2 C29.2,16.6 30.8,18.3 30.9,20.1 L31.8,58.6 L31.8,58.6 L31.8,58.6 Z" id="Shape" fill="#DFDFDF"></path>
                                </g>
                                <g id="Group" transform="translate(114.000000, 47.000000)">
                                    <path d="M18.6,20.9 C19,21.8 20.1,22 21.2,21.5 L21.2,21.5 C22.3,20.9 22.8,19.8 22.4,18.9 L14.8,1 C14.4,0.1 13.3,-0.1 12.2,0.4 L12.2,0.4 C11.1,1 10.6,2.1 11,3 L18.6,20.9 L18.6,20.9 L18.6,20.9 Z" id="Shape" fill="#FD665D"></path>
                                    <path d="M7.9,57 C20.5,54.6 31.6,44 31.8,33.6 C32.1,23.2 21.4,16.8 8.8,19.2 L7.9,57 L7.9,57 L7.9,57 Z" id="Shape" fill="#FD665D"></path>
                                    <path d="M0.9,58.6 C0.9,60.4 2.4,61.5 4.3,61.1 L4.3,61.1 C6.2,60.7 7.8,59 7.9,57.2 L8.8,18.7 C8.8,16.9 7.3,15.8 5.4,16.2 L5.4,16.2 C3.5,16.6 1.9,18.3 1.8,20.1 L0.9,58.6 L0.9,58.6 L0.9,58.6 Z" id="Shape" fill="#DFDFDF"></path>
                                </g>
                            </g>
                            <g id="matt">
                                <path d="M135,298.4 C135,307 128.9,314 121.3,314 L55.7,314 C48.1,314 42,307 42,298.4 L42,156.6 C42,148 48.1,141 55.7,141 L121.3,141 C128.9,141 135,148 135,156.6 L135,298.4 L135,298.4 L135,298.4 Z" id="Shape" fill="#639495"></path>
                                <path d="M134.1,89 L144.7,49.1 C144.7,33.8 125.3,0 110,0 L66.2,0 C50.9,0 31.5,33.8 31.5,49.1 L41.1,89.3 L88.1,74.1 L134.1,89 L134.1,89 L134.1,89 Z" id="Shape" fill="#FCDFA5"></path>
                                <path d="M100,148.5 C100,154.9 94.9,160 88.5,160 L88.5,160 C82.1,160 77,154.9 77,148.5 L77,133.5 C77,127.1 82.1,122 88.5,122 L88.5,122 C94.9,122 100,127.1 100,133.5 L100,148.5 L100,148.5 L100,148.5 Z" id="Shape" fill="#F3E6D9"></path>
                                <ellipse id="Oval" fill="#F3E6D9" transform="translate(45.509400, 86.896080) rotate(-27.162101) translate(-45.509400, -86.896080) " cx="45.5094" cy="86.89608" rx="7.49984377" ry="11.8997521"></ellipse>
                                <ellipse id="Oval" fill="#F3E6D9" transform="translate(131.512400, 86.856120) rotate(207.162101) translate(-131.512400, -86.856120) " cx="131.5124" cy="86.85612" rx="7.49984377" ry="11.8997521"></ellipse>
                                <path d="M130.7,76 C130.7,107.1 113.3,134.6 88.1,134.6 C62.9,134.6 45.5,107.1 45.5,76 L69.8,26.3 L88,32.1 L106.3,26.4 L130.7,76 L130.7,76 L130.7,76 Z" id="Shape" fill="#F3E6D9"></path>
                                <path d="M85.5,82.2 C85.5,86.8 81.5,90.5 75.9,90.5 L61.6,90.5 C56,90.5 51.5,86.8 51.5,82.2 L51.5,78.8 C51.5,74.2 56,70.5 61.6,70.5 L75.9,70.5 C81.5,70.5 85.5,74.2 85.5,78.8 L85.5,82.2 L85.5,82.2 L85.5,82.2 Z" id="Shape" stroke="#3E3E3E" stroke-width="3"></path>
                                <path d="M125.5,82.2 C125.5,86.8 121.5,90.5 115.9,90.5 L101.6,90.5 C96,90.5 91.5,86.8 91.5,82.2 L91.5,78.8 C91.5,74.2 96,70.5 101.6,70.5 L115.9,70.5 C121.5,70.5 125.5,74.2 125.5,78.8 L125.5,82.2 L125.5,82.2 L125.5,82.2 Z" id="Shape" stroke="#3E3E3E" stroke-width="3"></path>
                                <path d="M72,80 C72,82.2 70.2,84 68,84 L68,84 C65.8,84 64,82.2 64,80 L64,80 C64,77.8 65.8,76 68,76 L68,76 C70.2,76 72,77.8 72,80 L72,80 L72,80 L72,80 Z" id="Shape" fill="#3E3E3E"></path>
                                <path d="M113,80 C113,82.2 111.2,84 109,84 L109,84 C106.8,84 105,82.2 105,80 L105,80 C105,77.8 106.8,76 109,76 L109,76 C111.2,76 113,77.8 113,80 L113,80 L113,80 L113,80 Z" id="Shape" fill="#3E3E3E"></path>
                                <path d="M37,74 C42.8,74 51,77.6 51,82" id="Shape" stroke="#3E3E3E" stroke-width="3"></path>
                                <path d="M140,74 C134.2,74 126,77.6 126,82" id="Shape" stroke="#3E3E3E" stroke-width="3"></path>
                                <path d="M85,80.5 L92,80.5" id="Shape" stroke="#3E3E3E" stroke-width="3"></path>
                                <path d="M94.4,102 L88,105.4 L81.6,102" id="Shape" stroke="#3E3E3E" stroke-width="3"></path>
                                <path d="M102.1,110.9 C102.1,113.1 96.2,117.5 89,117.5 C81.8,117.5 75.9,113.1 75.9,110.9 C75.9,108.7 81.8,113.1 89,113.1 C96.2,113.1 102.1,108.8 102.1,110.9 L102.1,110.9 L102.1,110.9 Z" id="Shape" fill="#3E3E3E"></path>
                                <g id="Group" transform="translate(24.000000, 281.000000)">
                                    <g id="Shape" transform="translate(7.000000, 181.000000)">
                                        <path d="M48.5,40.6 C42.1,55.3 26.8,63.8 14.4,59.7 C2,55.6 -2.8,40.4 3.6,25.7 C10,11 25.3,2.5 37.7,6.6 C50.1,10.7 55,26 48.5,40.6 L48.5,40.6 L48.5,40.6 Z" fill="#3E3E3E"></path>
                                        <path d="M51,35.3 C44.6,50 29.3,58.5 16.9,54.4 C4.5,50.3 -0.3,35.1 6.1,20.4 C12.5,5.7 27.8,-2.8 40.2,1.3 C52.6,5.4 57.4,20.6 51,35.3 L51,35.3 L51,35.3 Z" fill="#639495"></path>
                                    </g>
                                    <path d="M54.5,87.9 C53.4,93.6 47.2,97.4 40.6,96.4 L12,92.1 C5.5,91.1 -0.9,85.7 0.2,80 L16.3,8.9 C17.4,3.2 15.6,-0.6 22.2,0.4 L58.8,4.7 C65.3,5.7 80.7,11.1 79.6,16.8 L54.5,87.9 L54.5,87.9 L54.5,87.9 Z" id="Shape" fill="#3E3E3E"></path>
                                    <path d="M61.4,187.8 C62,196 67.2,202.9 60.6,203.3 L11.6,205 C5,205.4 9.1,199.1 8.5,190.9 L0.6,88.8 C1.78745907e-14,80.6 4.8,73.7 11.4,73.3 L40.3,71.6 C46.9,71.2 52.8,77.5 53.4,85.7 L61.4,187.8 L61.4,187.8 L61.4,187.8 Z" id="Shape" fill="#3E3E3E"></path>
                                </g>
                                <g id="Group" transform="translate(73.000000, 281.000000)">
                                    <g id="Shape" transform="translate(19.000000, 181.000000)">
                                        <path d="M5.4,40.5 C11.8,55.2 27.1,63.7 39.5,59.6 C51.9,55.5 56.7,40.3 50.3,25.6 C43.9,10.9 28.6,2.4 16.2,6.5 C3.8,10.6 -1,25.8 5.4,40.5 L5.4,40.5 L5.4,40.5 Z" fill="#3E3E3E"></path>
                                        <path d="M2.9,35.1 C9.3,49.8 24.6,58.3 37,54.2 C49.4,50.1 54.2,34.9 47.8,20.2 C41.4,5.6 26.1,-3 13.7,1.1 C1.3,5.2 -3.5,20.5 2.9,35.1 L2.9,35.1 L2.9,35.1 Z" fill="#639495"></path>
                                    </g>
                                    <path d="M25.4,87.8 C26.5,93.5 32.7,97.3 39.3,96.3 L67.9,92 C74.4,91 80.8,85.6 79.7,79.9 L63.6,8.8 C62.5,3.1 64.3,-0.7 57.7,0.3 L21,4.6 C14.5,5.6 -0.9,11 0.2,16.7 L25.4,87.8 L25.4,87.8 L25.4,87.8 Z" id="Shape" fill="#3E3E3E"></path>
                                    <path d="M18.5,187.7 C17.9,195.9 12.7,202.8 19.3,203.2 L68.2,204.9 C74.8,205.3 70.7,199 71.3,190.8 L79.2,88.7 C79.8,80.5 75,73.6 68.4,73.2 L39.5,71.5 C32.9,71.1 27,77.4 26.4,85.6 L18.5,187.7 L18.5,187.7 L18.5,187.7 Z" id="Shape" fill="#3E3E3E"></path>
                                </g>
                                <g id="Group" transform="translate(129.000000, 137.000000)">
                                    <g id="Shape" transform="translate(1.000000, 154.000000)" fill="#F3E6D9">
                                        <path d="M27.9,65.1 C37.6,65.7 45.6,61.9 46.6,44.2 C47.6,26.5 41,1.5 31.4,0.9 C21.7,0.3 13.1,14.1 12.2,31.9 C11.1,49.6 18.2,64.5 27.9,65.1 L27.9,65.1 L27.9,65.1 Z"></path>
                                        <path d="M1.9,37.3 C5.2,40.8 14.8,35.8 23.1,26 C31.5,16.2 35.6,5.4 32.2,1.9 C28.9,-1.6 19.3,3.4 11,13.2 C2.6,23 -1.5,33.8 1.9,37.3 L1.9,37.3 L1.9,37.3 Z"></path>
                                    </g>
                                    <path d="M5.5,64.5 C5.8,67.3 13.1,102.7 17,102.2 L40,99 C43.9,98.4 43,62.1 42.6,59.3 L37.4,13.5 C37.1,10.7 32.7,0.2 28.8,0.8 L5.8,4 C1.9,4.6 -8.8817842e-15,16 0.3,18.7 L5.5,64.5 L5.5,64.5 L5.5,64.5 Z" id="Shape" fill="#639495"></path>
                                    <path d="M15.7,135.7 C15.8,137.6 19.1,162.4 22.1,162.3 L39.5,161.4 C42.5,161.3 43.8,136.2 43.7,134.3 L42.4,102.6 C42.3,100.7 39.7,93.2 36.7,93.3 L19.3,94.2 C16.3,94.3 14.3,102.1 14.4,104 L15.7,135.7 L15.7,135.7 L15.7,135.7 Z" id="Shape" fill="#639495"></path>
                                </g>
                                <g id="Group" transform="translate(0.000000, 134.000000)">
                                    <g id="Shape" transform="translate(0.000000, 154.000000)" fill="#F3E6D9">
                                        <path d="M19,64.8 C9.3,65.4 1.3,61.6 0.3,43.9 C-0.7,26.2 5.9,1.2 15.5,0.6 C25.2,-5.0293103e-14 33.8,13.8 34.7,31.6 C35.7,49.3 28.7,64.2 19,64.8 L19,64.8 L19,64.8 Z"></path>
                                        <path d="M45,37 C41.7,40.5 32.1,35.5 23.8,25.7 C15.4,15.9 11.3,5.1 14.7,1.6 C18,-1.9 27.6,3.1 35.9,12.9 C44.3,22.7 48.4,33.5 45,37 L45,37 L45,37 Z"></path>
                                    </g>
                                    <path d="M42.4,64.1 C42.1,66.9 34.8,102.3 30.9,101.8 L7.9,98.6 C4,98 4.9,61.7 5.3,58.9 L10.5,13.1 C10.8,10.3 15.2,-0.2 19.1,0.4 L42.1,3.6 C46,4.2 47.9,15.6 47.6,18.3 L42.4,64.1 L42.4,64.1 L42.4,64.1 Z" id="Shape" fill="#639495"></path>
                                    <path d="M32.2,135.4 C32.1,137.3 28.8,162.1 25.8,162 L8.4,161.1 C5.4,161 4.1,135.9 4.2,134 L5.5,102.3 C5.6,100.4 8.2,92.9 11.2,93 L28.6,93.9 C31.6,94 33.6,101.8 33.5,103.7 L32.2,135.4 L32.2,135.4 L32.2,135.4 Z" id="Shape" fill="#639495"></path>
                                </g>
                            </g>
                            <path d="M381.941843,284.870993 C377.326403,279.685911 365.801864,269.57751 356.331769,262.407886 C328.27262,241.164864 324.453764,238.090567 313.061168,227.573824 C292.058202,208.185539 283.138587,188.706668 283.169153,162.29487 C283.184067,149.401681 284.060665,144.434338 287.662246,136.834465 C293.772602,123.940651 302.773459,114.359534 314.281052,108.499664 C322.431477,104.349339 326.451254,102.505418 340.061915,102.429981 C354.299641,102.3511 357.296851,104.015343 365.671993,108.627979 C375.865975,114.242341 386.358453,126.241206 388.527396,134.764664 L389.866992,140.029045 L393.170542,132.778779 C411.838702,91.807903 471.439591,92.4208814 492.181012,133.797093 C498.760774,146.922793 499.48315,174.949437 493.648607,190.736701 C486.037669,211.330604 471.742497,227.031024 438.696935,251.090314 C417.025095,266.868825 392.49752,290.742082 390.790087,294.095107 C388.808057,297.987374 390.695547,294.70507 381.941843,284.870993 L381.941843,284.870993 L381.941843,284.870993 Z" id="heart" fill="#FF0000"></path>
                            <g id="Group" transform="translate(323.000000, 323.000000)">
                                <path d="M60.5,169.6 C60.5,152.9 72.7,139.3 87.8,139.3" id="Shape" stroke="#4D4D4D"></path>
                                <path d="M92.4,159 C92.4,159 105.2,159.699 109.299,131.399 C113.4,103.099 99.9,86.199 120.799,66.599 C141.699,46.998 166.699,66.599 161.299,75.399 C155.9,84.199 149.199,82.799 143.799,74.699 C138.4,66.599 129.599,59.899 123.599,80.099 C117.499,100.299 126.999,105.099 127.299,129.299 C127.599,153.599 87.799,165.599 92.499,163.599 C97.1,161.6 73.5,173.8 92.4,159 L92.4,159 L92.4,159 Z" id="Shape" fill="#222222"></path>
                                <path d="M60,59.5 C60,59.5 70.1,84 75,92.8 C79.9,101.6 109.1,99 107.9,132.699 C106.599,170.499 58.299,176.399 58.299,176.399 C41.099,175.699 7.799,170.799 30.199,142 C45.199,122.8 20.599,117.699 14.899,98.8 C9.199,79.9 39.499,64.4 39.499,64.4 C39.499,64.4 38.499,61.7 43.699,57.7 C48.9,53.699 48.9,48.5 60,59.5 L60,59.5 L60,59.5 Z" id="Shape" fill="#222222"></path>
                                <path d="M56.2,64.5 C56.2,64.5 63.4,82.1 67,88.399 C70.5,94.699 90.9,121.799 90,146 C89,173.1 57.5,164.1 57.5,164.1 C45.1,163.6 25.5,165.9 41.6,145.2 C52.4,131.4 35.9,118.7 31.8,105.2 C27.7,91.6 41.4,68.001 41.4,68.001 C41.4,68.001 42.1,57.301 46.7,58.601 C53.7,60.699 48.1,56.5 56.2,64.5 L56.2,64.5 L56.2,64.5 Z" id="Shape" fill="#DFDFDF"></path>
                                <path d="M56.2,175.699 C56.2,179.8 49.5,175.699 41.3,175.699 C33.1,175.699 26.4,179.8 26.4,175.699 C26.4,171.599 33.1,164.199 41.3,164.199 C49.5,164.199 56.2,171.6 56.2,175.699 L56.2,175.699 L56.2,175.699 Z" id="Shape" fill="#DFDFDF"></path>
                                <g id="Shape" transform="translate(29.000000, 167.000000)">
                                    <path d="M2.4,10.9 C2.4,5.501 5.6,1.2 9.6,1.2" fill="#DFDFDF"></path>
                                    <path d="M2.3,10.9 C2.3,10.9 2.1,10.7 1.8,10.3 C1.7,10.1 1.5,9.9 1.4,9.6 C1.3,9.3 1.1,8.9 1,8.6 C0.8,7.9 0.7,6.9 0.9,5.999 C1,5.499 1.1,4.999 1.3,4.499 C1.5,3.999 1.7,3.499 2,3.1 L2.5,2.4 C2.7,2.2 2.9,2 3.1,1.8 C3.3,1.6 3.5,1.4 3.7,1.3 C3.9,1.1 4.1,0.999 4.4,0.9 C4.8,0.6 5.3,0.4 5.8,0.3 C6.3,0.199 6.7,0.1 7.2,0.1 C7.6,0.1 8,0.1 8.4,0.3 C8.7,0.4 9.2,0.499 9.4,0.6 C9.8,0.9 10.2,1.1 10.2,1.1 L10.2,1.4 C10.2,1.4 9.8,1.4 9.5,1.5 C9.3,1.5 9,1.601 8.8,1.601 C8.6,1.601 8.3,1.801 8,1.901 C7.7,2.001 7.4,2.201 7.1,2.401 C6.8,2.601 6.5,2.801 6.2,3.101 C5.9,3.301 5.6,3.601 5.4,3.901 C5.1,4.201 4.9,4.501 4.7,4.901 C4.3,5.601 3.9,6.301 3.6,7.001 C3.3,7.701 3.2,8.401 3.1,9.001 C3,9.602 2.9,10.102 2.9,10.501 L2.9,11.102 L2.3,10.9 L2.3,10.9 L2.3,10.9 Z" fill="#222222"></path>
                                </g>
                                <g id="Shape" transform="translate(41.000000, 167.000000)">
                                    <path d="M4,9.1 C2.3,6.8 3.5,3 6.7,0.5" fill="#DFDFDF"></path>
                                    <path d="M3.9,9.199 C3.9,9.199 3.6,9.199 3.2,9.099 C3,9.099 2.8,8.899 2.5,8.799 C2.2,8.599 2,8.399 1.7,8.099 C1.5,7.799 1.2,7.499 1.1,7.099 C0.9,6.699 0.8,6.299 0.8,5.899 L0.8,5.299 C0.8,5.098 0.8,4.899 0.9,4.698 C0.9,4.299 1.1,3.898 1.2,3.498 C1.4,3.099 1.6,2.698 1.8,2.398 C2,2.098 2.3,1.798 2.6,1.498 C2.9,1.198 3.2,1.099 3.5,0.898 C3.8,0.697 4.1,0.598 4.4,0.498 C4.7,0.398 5,0.398 5.3,0.398 L6,0.398 C6.4,0.398 6.7,0.498 6.7,0.498 L6.9,0.698 C6.9,0.698 6.8,0.799 6.6,0.998 C6.4,1.198 6.1,1.498 5.8,1.799 C5.5,2.099 5.2,2.498 4.8,2.998 C4.6,3.198 4.5,3.498 4.4,3.698 C4.3,3.998 4.1,4.198 4,4.498 C3.9,4.799 3.8,5.099 3.7,5.299 C3.6,5.599 3.6,5.899 3.5,6.099 L3.5,6.899 C3.5,7.199 3.6,7.399 3.6,7.599 C3.7,7.799 3.7,7.998 3.8,8.199 C3.9,8.399 3.9,8.499 4,8.599 C4.1,8.799 4.2,8.998 4.2,8.998 L3.9,9.199 L3.9,9.199 L3.9,9.199 Z" fill="#222222"></path>
                                </g>
                                <path d="M88.6,177.8 C88.6,181.9 81.901,177.8 73.701,177.8 C65.501,177.8 58.801,181.9 58.801,177.8 C58.801,173.699 65.501,166.3 73.701,166.3 C81.901,166.3 88.6,173.699 88.6,177.8 L88.6,177.8 L88.6,177.8 Z" id="Shape" fill="#DFDFDF"></path>
                                <g id="Shape" transform="translate(62.000000, 169.000000)">
                                    <path d="M1.8,11 C1.8,5.6 5,1.3 9,1.3" fill="#DFDFDF"></path>
                                    <path d="M1.6,11 C1.6,11 1.401,10.8 1.1,10.399 C1,10.199 0.8,10 0.701,9.699 C0.6,9.399 0.401,8.999 0.301,8.699 C0.101,7.999 0.001,6.999 0.201,6.099 C0.301,5.599 0.401,5.099 0.6,4.599 C0.8,4.099 1,3.599 1.3,3.199 L1.8,2.499 C2,2.3 2.2,2.1 2.401,1.899 C2.6,1.699 2.8,1.499 3.001,1.399 C3.201,1.199 3.401,1.099 3.701,0.999 C4.1,0.699 4.6,0.499 5.1,0.399 C5.6,0.299 6,0.199 6.5,0.199 C6.9,0.199 7.3,0.199 7.7,0.399 C8,0.499 8.3,0.599 8.599,0.699 C8.999,0.999 9.299,1.199 9.299,1.199 L9.299,1.499 C9.299,1.499 9.099,1.499 8.699,1.6 C8.499,1.6 8.299,1.7 8.098,1.7 C7.899,1.7 7.598,1.9 7.298,2 C6.998,2.101 6.698,2.301 6.399,2.5 C6.098,2.7 5.798,2.9 5.499,3.2 C5.199,3.4 4.899,3.7 4.699,4 C4.399,4.301 4.199,4.601 3.999,5 C3.599,5.7 3.199,6.4 2.899,7.101 C2.598,7.801 2.499,8.5 2.399,9.101 C2.298,9.701 2.199,10.201 2.199,10.601 L2.199,11.201 L1.6,11 L1.6,11 L1.6,11 Z" fill="#222222"></path>
                                </g>
                                <g id="Shape" transform="translate(74.000000, 169.000000)">
                                    <path d="M3.3,9.199 C1.6,6.899 2.8,3.099 6,0.599" fill="#DFDFDF"></path>
                                    <path d="M3.2,9.3 C3.2,9.3 2.9,9.3 2.5,9.199 C2.3,9.199 2.1,8.999 1.8,8.899 C1.5,8.699 1.3,8.5 1,8.199 C0.8,7.899 0.5,7.599 0.4,7.199 C0.2,6.8 0.099,6.399 0.099,5.999 L0.099,5.399 C0.099,5.198 0.099,4.999 0.2,4.799 C0.2,4.399 0.4,3.998 0.5,3.599 C0.7,3.199 0.9,2.799 1.1,2.498 C1.3,2.198 1.6,1.898 1.901,1.599 C2.201,1.299 2.501,1.199 2.8,0.998 C3.1,0.799 3.401,0.698 3.7,0.599 C4,0.498 4.3,0.498 4.599,0.498 L5.299,0.498 C5.699,0.498 5.999,0.599 5.999,0.599 L6.199,0.799 C6.199,0.799 6.098,0.899 5.899,1.099 C5.699,1.299 5.399,1.599 5.098,1.899 C4.798,2.199 4.498,2.599 4.098,3.099 C3.899,3.299 3.798,3.599 3.699,3.799 C3.598,4.099 3.399,4.299 3.299,4.599 C3.199,4.899 3.099,5.199 2.999,5.399 C2.899,5.699 2.899,5.999 2.799,6.199 L2.799,6.999 C2.799,7.3 2.9,7.499 2.9,7.699 C3,7.899 3,8.099 3.099,8.3 C3.2,8.499 3.2,8.6 3.299,8.699 C3.4,8.899 3.499,9.099 3.499,9.099 L3.2,9.3 L3.2,9.3 L3.2,9.3 Z" fill="#222222"></path>
                                </g>
                                <path d="M71.4,38.3 C75.9,34.1 70.599,23.7 64.7,17.5 C58,10.5 49.8,4.399 40.9,4.399 C31.9,4.399 23.8,10.299 17.2,17.2 C11.4,23.3 6.1,32.8 10.1,37.399 C18.7,47.299 23.8,61 40.8,61 C57.6,61.1 63.1,46.199 71.4,38.3 L71.4,38.3 L71.4,38.3 Z" id="Shape" fill="#222222"></path>
                                <path d="M0.3,1.8 C0.3,1.8 3.7,24.5 6.3,26.6 C8.9,28.8 14,11.1 22.9,8.3 C31.6,5.7 3,-1.6 0.3,1.8 L0.3,1.8 L0.3,1.8 Z" id="Shape" fill="#222222"></path>
                                <path d="M3.3,5 C3.3,5 5.3,18.6 6.9,19.899 C8.4,21.2 11.5,10.599 16.8,8.899 C22.1,7.4 4.9,3 3.3,5 L3.3,5 L3.3,5 Z" id="Shape" fill="#DFDFDF"></path>
                                <path d="M60,35.7 C62.7,33.399 59.5,27.8 55.9,24.5 C51.8,20.7 46.8,30.3 41.3,30.3 C35.8,30.3 30.8,20.6 26.7,24.4 C23.1,27.701 19.9,32.8 22.3,35.3 C27.6,40.699 30.7,48.1 41.2,48.1 C51.6,48 54.9,39.9 60,35.7 L60,35.7 L60,35.7 Z" id="Shape" fill="#DFDFDF"></path>
                                <path d="M80.9,1.8 C80.9,1.8 77.5,24.5 74.9,26.6 C72.299,28.7 67.2,11.1 58.299,8.3 C49.6,5.7 78.2,-1.6 80.9,1.8 L80.9,1.8 L80.9,1.8 Z" id="Shape" fill="#222222"></path>
                                <path d="M77.9,5 C77.9,5 75.9,18.6 74.299,19.899 C72.799,21.2 69.699,10.599 64.4,8.899 C59.1,7.4 76.3,3 77.9,5 L77.9,5 L77.9,5 Z" id="Shape" fill="#DFDFDF"></path>
                                <path d="M2.8,40.4 C2.8,40.4 3.2,40.3 3.9,40.1 C4.6,39.9 5.6,39.7 6.8,39.5 C9.2,39.1 12.4,39 15.6,39.399 C17.2,39.599 18.8,39.899 20.3,40.299 C21.8,40.698 23.1,41.299 24.2,41.999 C24.7,42.299 25.2,42.698 25.6,42.999 C26,43.299 26.3,43.698 26.5,43.999 C26.7,44.299 26.8,44.599 26.9,44.698 C27,44.9 27,45 27,45 C27,45 26.9,44.899 26.8,44.8 C26.7,44.699 26.4,44.5 26.1,44.4 C25.8,44.2 25.4,44.1 25,43.9 C24.6,43.7 24.1,43.6 23.5,43.501 C23,43.4 22.4,43.301 21.7,43.101 C21.1,43.001 20.4,42.901 19.7,42.801 C19,42.7 18.3,42.601 17.5,42.501 C16.7,42.4 16,42.301 15.2,42.2 C12.1,41.801 9,41.501 6.7,41.001 C5.5,40.801 4.5,40.601 3.9,40.4 C3.2,40.6 2.8,40.4 2.8,40.4 L2.8,40.4 L2.8,40.4 Z" id="Shape" fill="#DFDFDF"></path>
                                <path d="M3.7,52.199 C3.7,52.199 4,51.899 4.6,51.5 C5.2,51.1 6,50.5 7,49.8 C9,48.5 11.9,47.1 15,46.1 C16.5,45.6 18.1,45.3 19.7,45.1 C21.2,44.9 22.7,44.9 24,45.1 C24.6,45.2 25.2,45.3 25.7,45.499 C26.2,45.6 26.6,45.899 26.9,45.999 C27.2,46.199 27.4,46.399 27.6,46.499 C27.7,46.6 27.8,46.699 27.8,46.699 C27.8,46.699 27.7,46.699 27.5,46.599 C27.3,46.599 27,46.498 26.7,46.498 L25.5,46.498 C25,46.498 24.5,46.599 24,46.698 C23.4,46.799 22.8,46.898 22.2,47.098 C21.6,47.198 20.9,47.398 20.2,47.598 C19.5,47.798 18.8,47.997 18.1,48.198 C17.4,48.398 16.6,48.598 15.9,48.898 C13,49.798 10,50.698 7.7,51.298 C6.6,51.598 5.6,51.798 4.9,51.898 C4.1,52.1 3.7,52.199 3.7,52.199 L3.7,52.199 L3.7,52.199 Z" id="Shape" fill="#DFDFDF"></path>
                                <path d="M27,49 C27,49 26.7,49.3 26.3,49.8 C25.8,50.3 25.1,50.9 24.3,51.6 C22.6,53.1 20.2,54.8 17.8,56.4 C17.2,56.8 16.6,57.2 16,57.6 C15.4,57.999 14.8,58.4 14.2,58.7 C13,59.4 11.9,60.1 11,60.7 C10.5,61 10.1,61.2 9.7,61.5 C9.3,61.801 9,61.9 8.7,62.2 C8.2,62.6 7.8,62.801 7.8,62.801 C7.8,62.801 7.9,62.401 8.2,61.801 C8.3,61.501 8.6,61.101 8.8,60.7 C9,60.301 9.4,59.9 9.7,59.4 C10.4,58.501 11.4,57.501 12.4,56.6 C12.9,56.1 13.5,55.7 14.1,55.2 C14.7,54.7 15.3,54.301 15.9,53.9 C17.2,53.1 18.5,52.3 19.7,51.7 C21,51.1 22.2,50.501 23.2,50.1 C24.3,49.7 25.2,49.4 25.8,49.2 C26.6,49.1 27,49 27,49 L27,49 L27,49 Z" id="Shape" fill="#DFDFDF"></path>
                                <ellipse id="Oval" fill="#DFDFDF" cx="41.2" cy="52" rx="18.1" ry="9.1"></ellipse>
                                <path d="M77.5,40.4 C77.5,40.4 77.1,40.501 76.4,40.7 C75.7,40.9 74.7,41.1 73.599,41.301 C71.299,41.7 68.2,42.101 65.099,42.501 C64.299,42.601 63.599,42.7 62.799,42.801 C62.099,42.901 61.299,43.001 60.599,43.101 C59.899,43.201 59.2,43.301 58.599,43.401 C57.998,43.501 57.399,43.601 56.799,43.801 C56.299,43.901 55.799,44.101 55.299,44.2 C54.899,44.4 54.499,44.5 54.199,44.7 C53.899,44.9 53.699,45 53.499,45.1 C53.299,45.2 53.299,45.3 53.299,45.3 C53.299,45.3 53.299,45.199 53.399,44.999 C53.499,44.8 53.599,44.499 53.799,44.3 C53.999,43.999 54.299,43.6 54.699,43.3 C55.099,42.9 55.599,42.6 56.099,42.3 C57.199,41.6 58.499,40.999 59.999,40.6 C61.499,40.2 63.099,39.8 64.699,39.7 C67.899,39.301 71.098,39.4 73.499,39.801 C74.699,40 75.699,40.2 76.399,40.401 C77.1,40.3 77.5,40.4 77.5,40.4 L77.5,40.4 L77.5,40.4 Z" id="Shape" fill="#DFDFDF"></path>
                                <path d="M76.6,53 C76.6,53 76.201,52.899 75.5,52.8 C74.8,52.699 73.8,52.5 72.7,52.199 C70.4,51.599 67.4,50.699 64.5,49.8 C63.8,49.6 63,49.3 62.3,49.1 C61.6,48.9 60.901,48.7 60.2,48.499 C59.5,48.3 58.9,48.1 58.2,47.999 C57.6,47.8 57,47.699 56.4,47.6 C55.8,47.499 55.3,47.4 54.9,47.4 L53.7,47.4 C53.4,47.4 53.1,47.4 52.9,47.5 C52.7,47.5 52.6,47.601 52.6,47.601 C52.6,47.601 52.7,47.5 52.8,47.401 C52.9,47.301 53.2,47.101 53.5,46.901 C53.8,46.701 54.2,46.501 54.7,46.401 C55.2,46.201 55.8,46.101 56.4,46.001 C57.7,45.802 59.1,45.802 60.7,46.001 C62.2,46.201 63.8,46.602 65.4,47.001 C68.5,48.001 71.4,49.401 73.4,50.701 C74.4,51.302 75.2,51.901 75.799,52.401 C76.4,52.9 76.6,53 76.6,53 L76.6,53 L76.6,53 Z" id="Shape" fill="#DFDFDF"></path>
                                <path d="M53.3,49.9 C53.3,49.9 53.7,50.001 54.3,50.1 C55,50.3 55.9,50.6 56.9,51 C58,51.399 59.2,51.899 60.4,52.6 C61.7,53.2 63,54 64.2,54.8 C64.8,55.199 65.4,55.699 66,56.1 C66.6,56.6 67.2,57 67.7,57.5 C68.8,58.399 69.7,59.399 70.4,60.3 C70.799,60.8 71.099,61.199 71.299,61.6 C71.599,61.999 71.799,62.3 71.9,62.7 C72.2,63.301 72.299,63.7 72.299,63.7 C72.299,63.7 71.999,63.5 71.4,63.1 C71.2,62.9 70.799,62.7 70.4,62.4 C70,62.1 69.599,61.9 69.099,61.6 C68.2,60.999 67.099,60.4 65.9,59.6 C65.299,59.2 64.7,58.9 64.099,58.499 C63.499,58.1 62.9,57.699 62.299,57.3 C59.899,55.699 57.499,53.9 55.799,52.499 C54.899,51.8 54.199,51.1 53.799,50.699 C53.6,50.199 53.3,49.9 53.3,49.9 L53.3,49.9 L53.3,49.9 Z" id="Shape" fill="#DFDFDF"></path>
                                <path d="M26.3,32.3 L34.9,40.8" id="Shape" stroke="#000000" stroke-width="3"></path>
                                <path d="M56.5,32.3 L47.8,40.8" id="Shape" stroke="#000000" stroke-width="3"></path>
                                <path d="M45.3,48.9 C45.3,50.2 43.5,51.2 41.2,51.2 C38.9,51.2 37.1,50.2 37.1,48.9 C37.1,47.6 38.9,48.1 41.2,48.1 C43.5,48.1 45.3,47.699 45.3,48.9 L45.3,48.9 L45.3,48.9 Z" id="Shape" fill="#3E3E3E"></path>
                                <path d="M158.5,68 C161.1,70.399 161.1,74.699 158.5,77.6 C155.9,80.501 151.6,80.9 149,78.5 C146.4,76.1 139.2,65.3 141.8,62.399 C144.5,59.5 155.9,65.6 158.5,68 L158.5,68 L158.5,68 Z" id="Shape" fill="#DFDFDF"></path>
                            </g>
                            <rect id="Rectangle-89" fill="#BC9A7C" x="304" y="413" width="185" height="110" rx="8"></rect>
                            <rect id="Rectangle-90" fill="#D8D8D8" x="301" y="413" width="191" height="20" rx="8"></rect>
                        </g>
                    </g>
                </g>
            </g>
            <g id="travel" transform="translate(24.000000, 59.000000)" sketch:type="MSShapeGroup">
                <g id="Page-1">
                    <g>
                        <g id="travel">
                            <g id="building">
                                <rect id="Rectangle-path" fill="#3E3E3E" x="0" y="0" width="155.489933" height="387.184448"></rect>
                                <rect id="Rectangle-path" fill="#FFFFFF" x="16.196868" y="35.5660036" width="51.8299776" height="51.7323689"></rect>
                                <rect id="Rectangle-path" fill="#FFFFFF" x="87.4630872" y="35.5660036" width="51.8299776" height="51.7323689"></rect>
                                <rect id="Rectangle-path" fill="#FFFFFF" x="16.196868" y="102.65642" width="51.8299776" height="51.7323689"></rect>
                                <rect id="Rectangle-path" fill="#FFFFFF" x="87.4630872" y="102.65642" width="51.8299776" height="51.7323689"></rect>
                                <rect id="Rectangle-path" fill="#FFFFFF" x="16.196868" y="169.746835" width="51.8299776" height="51.7323689"></rect>
                                <rect id="Rectangle-path" fill="#FFFFFF" x="87.4630872" y="169.746835" width="51.8299776" height="51.7323689"></rect>
                                <rect id="Rectangle-path" fill="#FFFFFF" x="16.196868" y="237.64557" width="51.8299776" height="51.7323689"></rect>
                                <rect id="Rectangle-path" fill="#FFFFFF" x="87.4630872" y="237.64557" width="51.8299776" height="51.7323689"></rect>
                                <rect id="Rectangle-path" fill="#FFFFFF" x="16.196868" y="299.886076" width="51.8299776" height="83.2567812"></rect>
                                <rect id="Rectangle-path" fill="#FFFFFF" x="87.4630872" y="299.886076" width="51.8299776" height="83.2567812"></rect>
                                <rect id="Rectangle-path" fill="#3E3E3E" x="19.4362416" y="304.735986" width="45.3512304" height="69.5153707"></rect>
                                <rect id="Rectangle-path" fill="#3E3E3E" x="90.7024609" y="304.735986" width="45.3512304" height="69.5153707"></rect>
                            </g>
                            <g id="house" transform="translate(492.384787, 92.148282)">
                                <rect id="Rectangle-path" fill="#999999" x="17.0067114" y="112.356239" width="198.411633" height="182.679928"></rect>
                                <path d="M174.926174,285.120526 C174.926174,290.573441 170.55302,295.036166 165.208054,295.036166 L67.2170022,295.036166 C61.8720358,295.036166 57.4988814,290.573441 57.4988814,285.120526 L57.4988814,156.221246 C57.4988814,150.768331 61.8720358,146.305606 67.2170022,146.305606 L165.208054,146.305606 C170.55302,146.305606 174.926174,150.768331 174.926174,156.221246 L174.926174,285.120526 L174.926174,285.120526 L174.926174,285.120526 Z" id="Shape" fill="#3E3E3E"></path>
                                <path d="M231.615213,115.589512 L115.807606,0 L0,115.589512 L231.615213,115.589512 L231.615213,115.589512 Z" id="Shape" fill="#3E3E3E"></path>
                                <ellipse id="Oval" fill="#FFFFFF" cx="117.427293" cy="70.323689" rx="27.5346756" ry="27.482821"></ellipse>
                                <rect id="Rectangle-path" fill="#3E3E3E" x="112.568233" y="42.840868" width="8.098434" height="54.965642"></rect>
                                <rect id="Rectangle-path" fill="#3E3E3E" x="89.8926174" y="66.2820976" width="55.0693512" height="8.08318264"></rect>
                                <path d="M164.39821,282.911392 C164.39821,287.761302 160.834899,291.802893 156.380761,291.802893 L75.2344519,291.802893 C70.7803132,291.802893 67.2170022,287.842134 67.2170022,282.911392 L67.2170022,167.564376 C67.2170022,162.633635 70.7803132,158.43038 75.2344519,158.43038 L156.380761,158.43038 C160.834899,158.43038 164.39821,162.633635 164.39821,167.564376 L164.39821,282.911392 L164.39821,282.911392 L164.39821,282.911392 Z" id="Shape" fill="#FFFFFF"></path>
                                <rect id="Rectangle-path" fill="#3E3E3E" x="112.568233" y="158.43038" width="8.098434" height="75.9819168"></rect>
                                <rect id="Rectangle-path" fill="#3E3E3E" x="67.2170022" y="195.61302" width="97.1812081" height="8.08318264"></rect>
                                <rect id="Rectangle-path" fill="#3E3E3E" x="61.5480984" y="234.412297" width="109.328859" height="58.198915"></rect>
                            </g>
                            <g id="car" transform="translate(138.483221, 212.587703)">
                                <path d="M347.422819,127.875949 C347.422819,131.836709 342.239821,134.98915 335.923043,134.98915 L41.4639821,134.98915 C35.1472036,134.98915 13.7673378,128.441772 13.7673378,124.481013 L41.3020134,50.1157324 C41.3020134,46.1549729 53.3686801,27.482821 59.766443,27.482821 L278.100224,27.482821 C284.417002,27.482821 289.6,30.6352622 289.6,34.5960217 L347.422819,127.875949 L347.422819,127.875949 L347.422819,127.875949 Z" id="Shape" fill="#639495"></path>
                                <path d="M253.480984,107.10217 C253.480984,105.970524 254.371812,105.081374 255.505593,105.081374 L255.505593,105.081374 C256.639374,105.081374 257.530201,105.970524 257.530201,107.10217 L257.530201,115.185353 C257.530201,116.316998 256.639374,117.206148 255.505593,117.206148 L255.505593,117.206148 C254.371812,117.206148 253.480984,116.316998 253.480984,115.185353 L253.480984,107.10217 L253.480984,107.10217 L253.480984,107.10217 Z" id="Shape" fill="#639495"></path>
                                <path d="M292.550502,16.9330067 L291.730099,16.4130964 L302.017702,0.240636451 L302.838105,0.760546763 L292.550502,16.9330067 L292.550502,16.9330067 Z" id="Rectangle-path" stroke="#3E3E3E" stroke-width="1.99996964" fill="#3E3E3E"></path>
                                <path d="M292.483869,13.4824738 C291.577568,12.9083039 290.221087,13.4206044 289.454082,14.6267291 C288.687078,15.8328538 288.8,17.2760678 289.7063,17.8502377 C290.6126,18.4244076 291.969082,17.9121071 292.736086,16.7059824 C293.503091,15.4998577 293.390169,14.0566438 292.483869,13.4824738 L292.483869,13.4824738 Z" id="Oval" stroke="#3E3E3E" stroke-width="2.0000313" fill="#3E3E3E"></path>
                                <path d="M302.786405,23.4979576 L301.965613,22.9786293 L312.241699,6.79850636 L313.062492,7.31783467 L302.786405,23.4979576 L302.786405,23.4979576 Z" id="Rectangle-path" stroke="#3E3E3E" stroke-width="2.00000232" fill="#3E3E3E"></path>
                                <path d="M302.590131,20.0322121 C301.683938,19.457935 300.327428,19.9700329 299.56028,21.1760147 C298.793133,22.3819965 298.905851,23.8251815 299.812044,24.3994586 C300.718237,24.9737357 302.074748,24.4616378 302.841895,23.255656 C303.609043,22.0496741 303.496324,20.6064891 302.590131,20.0322121 L302.590131,20.0322121 Z" id="Oval" stroke="#3E3E3E" stroke-width="1.99996964" fill="#3E3E3E"></path>
                                <path d="M312.827896,7.03290235 L312.307005,7.85176108 L301.641756,1.09292701 L302.162647,0.274068281 L312.827896,7.03290235 L312.827896,7.03290235 Z" id="Rectangle-path" stroke="#3E3E3E" stroke-width="1.99996964" fill="#3E3E3E"></path>
                                <path d="M310.817897,118.014467 L57.6608501,118.014467 C52.2348993,118.014467 47.7807606,115.832007 47.7807606,113.164557 L75.5583893,49.3074141 C75.5583893,46.6399638 79.9315436,44.4575045 85.4384787,44.4575045 L272.43132,44.4575045 C277.857271,44.4575045 282.311409,46.6399638 282.311409,49.3074141 L320.697987,113.164557 C320.697987,115.832007 316.324832,118.014467 310.817897,118.014467 L310.817897,118.014467 Z" id="Shape" fill="#FFFFFF"></path>
                                <g id="rose-head" transform="translate(195.172260, 66.282098)">
                                    <path d="M43.4885906,53.7531646 L45.3512304,13.498915 C45.3512304,7.43652803 37.6577181,0 31.5838926,0 L14.1722595,0 C8.098434,0 0.4049217,7.43652803 0.4049217,13.498915 L2.26756152,53.9148282 L43.4885906,53.7531646 L43.4885906,53.7531646 L43.4885906,53.7531646 Z" id="Shape" fill="#3E3E3E"></path>
                                    <path d="M28.344519,55.5314647 C28.344519,58.3605787 26.0769575,60.6238698 23.2425056,60.6238698 L22.9995526,60.6238698 C20.1651007,60.6238698 17.8975391,58.3605787 17.8975391,55.5314647 L17.8975391,48.8224231 C17.8975391,45.9933092 20.1651007,43.7300181 22.9995526,43.7300181 L23.2425056,43.7300181 C26.0769575,43.7300181 28.344519,45.9933092 28.344519,48.8224231 L28.344519,55.5314647 L28.344519,55.5314647 L28.344519,55.5314647 Z" id="Shape" fill="#F3E6D9"></path>
                                    <path d="M40.8970917,25.623689 C40.8970917,37.9101266 32.7986577,48.8224231 22.8375839,48.8224231 C12.8765101,48.8224231 4.77807606,37.9101266 4.77807606,25.623689 L15.6299776,5.98155515 L22.9185682,8.24484629 L30.2071588,5.98155515 L40.8970917,25.623689 L40.8970917,25.623689 L40.8970917,25.623689 Z" id="Shape" fill="#F3E6D9"></path>
                                    <ellipse id="Oval" fill="#3E3E3E" cx="16.682774" cy="26.7553345" rx="3.15838926" ry="3.15244123"></ellipse>
                                    <ellipse id="Oval" fill="#3E3E3E" cx="29.2353468" cy="26.7553345" rx="3.15838926" ry="3.15244123"></ellipse>
                                    <path d="M25.8340045,33.8685353 L22.9185682,35.40434 L20.0841163,33.8685353" id="Shape" stroke="#3E3E3E" stroke-width="3"></path>
                                    <path d="M29.6402685,38.1526221 C29.6402685,39.2842676 26.6438479,41.4667269 22.9185682,41.4667269 C19.1932886,41.4667269 16.196868,39.2034358 16.196868,38.1526221 C16.196868,37.0209765 19.1932886,39.2842676 22.9185682,39.2842676 C26.6438479,39.2842676 29.6402685,37.0209765 29.6402685,38.1526221 L29.6402685,38.1526221 L29.6402685,38.1526221 Z" id="Shape" fill="#3E3E3E"></path>
                                </g>
                                <g id="matt-head" transform="translate(242.143177, 53.349005)">
                                    <path d="M44.055481,38.5567812 L48.590604,21.5820976 C48.590604,15.1155515 40.3302013,0.727486438 33.8514541,0.727486438 L15.1440716,0.727486438 C8.66532438,0.727486438 0.4049217,15.0347197 0.4049217,21.5820976 L4.53512304,38.637613 L24.538255,32.1710669 L44.055481,38.5567812 L44.055481,38.5567812 L44.055481,38.5567812 Z" id="Shape" fill="#FCDFA5"></path>
                                    <path d="M29.1543624,63.8571429 C29.1543624,66.5245931 26.9677852,68.7070524 24.295302,68.7070524 L24.295302,68.7070524 C21.6228188,68.7070524 19.4362416,66.5245931 19.4362416,63.8571429 L19.4362416,57.3905967 C19.4362416,54.7231465 21.6228188,52.5406872 24.295302,52.5406872 L24.295302,52.5406872 C26.9677852,52.5406872 29.1543624,54.7231465 29.1543624,57.3905967 L29.1543624,63.8571429 L29.1543624,63.8571429 L29.1543624,63.8571429 Z" id="Shape" fill="#F3E6D9"></path>
                                    <path d="M42.5977629,33.060217 C42.5977629,46.2358047 35.1472036,57.9564195 24.4572707,57.9564195 C13.7673378,57.9564195 6.31677852,46.2358047 6.31677852,33.060217 L16.682774,11.9631103 L24.4572707,14.3880651 L32.2317673,11.9631103 L42.5977629,33.060217 L42.5977629,33.060217 L42.5977629,33.060217 Z" id="Shape" fill="#F3E6D9"></path>
                                    <path d="M4.12665422,33.1836149 C2.57472362,33.978402 2.34284333,36.6189756 3.60873508,39.081501 C4.87462684,41.5440264 7.1589232,42.8959954 8.71085379,42.1012083 C10.2627844,41.3064211 10.4946647,38.6658476 9.22877293,36.2033221 C7.96288117,33.7407967 5.67858481,32.3888277 4.12665422,33.1836149 L4.12665422,33.1836149 Z" id="Oval" fill="#F3E6D9"></path>
                                    <path d="M40.6347834,42.1167442 C42.186714,42.9115313 44.4710104,41.5595623 45.7369021,39.0970369 C47.0027939,36.6345115 46.7709136,33.9939379 45.218983,33.1991507 C43.6670524,32.4043636 41.3827561,33.7563326 40.1168643,36.218858 C38.8509725,38.6813834 39.0828528,41.321957 40.6347834,42.1167442 L40.6347834,42.1167442 Z" id="Oval" fill="#F3E6D9"></path>
                                    <path d="M23.0805369,35.7276673 C23.0805369,37.6676311 21.6228188,39.2034358 19.2742729,39.2034358 L13.2004474,39.2034358 C10.8519016,39.2034358 8.5033557,37.6676311 8.5033557,35.7276673 L8.5033557,34.2726944 C8.5033557,32.3327306 10.8519016,31.1202532 13.2004474,31.1202532 L19.2742729,31.1202532 C21.6228188,31.1202532 23.0805369,32.3327306 23.0805369,34.2726944 L23.0805369,35.7276673 L23.0805369,35.7276673 L23.0805369,35.7276673 Z" id="Shape" stroke="#3E3E3E" stroke-width="3"></path>
                                    <path d="M40.8970917,35.7276673 C40.8970917,37.6676311 38.6295302,39.2034358 36.2809843,39.2034358 L30.2071588,39.2034358 C27.858613,39.2034358 26.3199105,37.6676311 26.3199105,35.7276673 L26.3199105,34.2726944 C26.3199105,32.3327306 27.858613,31.1202532 30.2071588,31.1202532 L36.2809843,31.1202532 C38.6295302,31.1202532 40.8970917,32.3327306 40.8970917,34.2726944 L40.8970917,35.7276673 L40.8970917,35.7276673 L40.8970917,35.7276673 Z" id="Shape" stroke="#3E3E3E" stroke-width="3"></path>
                                    <path d="M17.0067114,34.7576854 C17.0067114,35.6468354 16.2778523,36.3743219 15.3870246,36.3743219 L15.3870246,36.3743219 C14.4961969,36.3743219 13.7673378,35.6468354 13.7673378,34.7576854 L13.7673378,34.7576854 C13.7673378,33.8685353 14.4961969,33.1410488 15.3870246,33.1410488 L15.3870246,33.1410488 C16.2778523,33.1410488 17.0067114,33.8685353 17.0067114,34.7576854 L17.0067114,34.7576854 L17.0067114,34.7576854 L17.0067114,34.7576854 Z" id="Shape" fill="#3E3E3E"></path>
                                    <path d="M34.8232662,34.7576854 C34.8232662,35.6468354 34.0944072,36.3743219 33.2035794,36.3743219 L33.2035794,36.3743219 C32.3127517,36.3743219 31.5838926,35.6468354 31.5838926,34.7576854 L31.5838926,34.7576854 C31.5838926,33.8685353 32.3127517,33.1410488 33.2035794,33.1410488 L33.2035794,33.1410488 C34.0944072,33.1410488 34.8232662,33.8685353 34.8232662,34.7576854 L34.8232662,34.7576854 L34.8232662,34.7576854 L34.8232662,34.7576854 Z" id="Shape" fill="#3E3E3E"></path>
                                    <path d="M2.75346756,32.1710669 C5.2639821,32.1710669 8.66532438,33.7068716 8.66532438,35.5660036" id="Shape" stroke="#3E3E3E" stroke-width="3"></path>
                                    <path d="M46.5659955,32.1710669 C44.055481,32.1710669 40.6541387,33.7068716 40.6541387,35.5660036" id="Shape" stroke="#3E3E3E" stroke-width="3"></path>
                                    <path d="M22.6756152,35.1618445 L26.7248322,35.1618445" id="Shape" stroke="#3E3E3E" stroke-width="3"></path>
                                    <path d="M27.1297539,44.0533454 L24.4572707,45.5083183 L21.7038031,44.0533454" id="Shape" stroke="#3E3E3E" stroke-width="3"></path>
                                    <path d="M30.4501119,47.8524412 C30.4501119,48.7415913 27.9395973,50.6007233 24.8621924,50.6007233 C21.7847875,50.6007233 19.2742729,48.7415913 19.2742729,47.8524412 C19.2742729,46.9632911 21.7847875,48.7415913 24.8621924,48.7415913 C27.9395973,48.7415913 30.4501119,46.9632911 30.4501119,47.8524412 L30.4501119,47.8524412 L30.4501119,47.8524412 Z" id="Shape" fill="#3E3E3E"></path>
                                </g>
                                <rect id="Rectangle-path" fill="#639495" x="178.975391" y="44.4575045" width="10.5279642" height="145.497288"></rect>
                                <rect id="Rectangle-91" stroke="#8B572A" stroke-width="2" fill="#B9895F" x="56.689038" y="91.3399638" width="84.2237136" height="46.074141"></rect>
                                <rect id="Rectangle-91" stroke="#8B572A" stroke-width="2" fill="#B9895F" x="108.519016" y="53.3490054" width="53.4496644" height="46.074141"></rect>
                                <rect id="Rectangle-91" stroke="#8B572A" stroke-width="2" fill="#B9895F" x="93.1319911" y="82.4484629" width="84.2237136" height="46.074141"></rect>
                                <path d="M385.485459,183.24575 C385.485459,189.146474 380.383445,193.996383 374.066667,193.996383 L15.4680089,193.996383 C9.15123043,193.996383 4.049217,189.227306 4.049217,183.24575 L5.2639821,146.467269 C5.2639821,140.566546 11.9856823,117.933635 18.3024609,117.933635 L355.116331,118.256962 C361.43311,118.256962 385.971365,144.042315 385.971365,150.02387 L385.485459,183.24575 L385.485459,183.24575 L385.485459,183.24575 Z" id="Shape" fill="#639495"></path>
                                <rect id="Rectangle-path" fill="#3E3E3E" x="191.123043" y="133.372514" width="25.9149888" height="4.04159132"></rect>
                                <rect id="Rectangle-path" fill="#3E3E3E" x="56.689038" y="133.372514" width="25.9149888" height="4.04159132"></rect>
                                <path d="M30.7740492,149.538879 C30.7740492,154.873779 27.9395973,159.238698 24.3762864,159.238698 L13.9293065,159.238698 C10.3659955,159.238698 8.098434,154.873779 8.098434,149.538879 L11.3378076,136.605787 C11.3378076,131.270886 16.1158837,126.905967 19.5982103,126.905967 L25.9959732,126.905967 C29.5592841,126.905967 30.7740492,128.037613 30.7740492,133.372514 L30.7740492,149.538879 L30.7740492,149.538879 L30.7740492,149.538879 Z" id="Shape" fill="#FD665D"></path>
                                <path d="M282.959284,44.4575045 C288.385235,44.4575045 291.219687,41.7900542 291.219687,44.4575045 L336.085011,115.589512 C336.085011,118.256962 330.902013,117.206148 325.395078,117.206148 L282.959284,44.4575045 L282.959284,44.4575045 L282.959284,44.4575045 Z" id="Shape" fill="#FFFFFF"></path>
                                <path d="M72.885906,45.2658228 C67.4599553,45.2658228 52.639821,45.0233273 52.639821,47.6907776 L25.1051454,115.589512 C25.1051454,118.256962 35.0662192,117.206148 40.49217,117.206148 L72.885906,45.2658228 L72.885906,45.2658228 L72.885906,45.2658228 Z" id="Shape" fill="#FFFFFF"></path>
                                <path d="M350.662192,154.388788 L351.067114,125.289331 L358.355705,125.612658 C364.672483,125.612658 383.541834,148.973056 383.541834,154.954611 L350.662192,154.388788 L350.662192,154.388788 L350.662192,154.388788 Z" id="Shape" fill="#DFDFDF"></path>
                                <path d="M390.344519,169.746835 C390.344519,175.081736 385.971365,179.446655 380.626398,179.446655 L9.71812081,179.446655 C4.37315436,179.446655 0,175.081736 0,169.746835 L0,164.088608 C0,158.753707 4.37315436,154.388788 9.71812081,154.388788 L380.626398,154.388788 C385.971365,154.388788 390.344519,158.753707 390.344519,164.088608 L390.344519,169.746835 L390.344519,169.746835 L390.344519,169.746835 Z" id="Shape" fill="#3E3E3E"></path>
                                <path d="M24.295302,193.188065 C24.295302,164.896926 46.9709172,142.668174 74.9105145,142.668174 C102.850112,142.668174 125.525727,164.896926 125.525727,193.188065 L24.295302,193.188065 L24.295302,193.188065 L24.295302,193.188065 Z" id="Shape" fill="#639495"></path>
                                <ellipse id="Oval" fill="#3E3E3E" cx="75.3154362" cy="193.996383" rx="40.49217" ry="40.4159132"></ellipse>
                                <ellipse id="Oval" fill="#DFDFDF" cx="74.5055928" cy="194.804702" rx="22.6756152" ry="22.6329114"></ellipse>
                                <path d="M79.6885906,183.811573 L74.5055928,181.063291 L69.3225951,183.811573" id="Shape" stroke="#3E3E3E" stroke-width="10"></path>
                                <path d="M79.6885906,206.929476 L74.5055928,209.677758 L69.3225951,206.929476" id="Shape" stroke="#3E3E3E" stroke-width="10"></path>
                                <path d="M62.9248322,189.388969 L60.1713647,194.562206 L62.9248322,199.735443" id="Shape" stroke="#3E3E3E" stroke-width="10"></path>
                                <path d="M86.0863535,189.388969 L88.839821,194.562206 L86.0863535,199.735443" id="Shape" stroke="#3E3E3E" stroke-width="10"></path>
                                <path d="M241.333333,193.996383 C241.333333,165.705244 264.008949,143.476492 291.948546,143.476492 C319.888143,143.476492 342.563758,165.705244 342.563758,193.996383 L241.333333,193.996383 L241.333333,193.996383 L241.333333,193.996383 Z" id="Shape" fill="#639495"></path>
                                <ellipse id="Oval" fill="#3E3E3E" cx="292.353468" cy="193.188065" rx="40.49217" ry="40.4159132"></ellipse>
                                <ellipse id="Oval" fill="#DFDFDF" cx="291.543624" cy="193.996383" rx="22.6756152" ry="22.6329114"></ellipse>
                                <path d="M296.726622,183.003255 L291.543624,180.254973 L286.360626,183.003255" id="Shape" stroke="#3E3E3E" stroke-width="10"></path>
                                <path d="M296.726622,206.121157 L291.543624,208.869439 L286.360626,206.121157" id="Shape" stroke="#3E3E3E" stroke-width="10"></path>
                                <path d="M279.962864,188.580651 L277.209396,193.753888 L279.962864,198.927125" id="Shape" stroke="#3E3E3E" stroke-width="10"></path>
                                <path d="M303.124385,188.580651 L305.877852,193.753888 L303.124385,198.927125" id="Shape" stroke="#3E3E3E" stroke-width="10"></path>
                            </g>
                            <path d="M422.125447,199.612934 L421.305043,199.093024 L431.592646,182.920564 L432.413049,183.440474 L422.125447,199.612934 L422.125447,199.612934 Z" id="Rectangle-path" stroke="#3E3E3E" stroke-width="1.99996964" fill="#3E3E3E"></path>
                            <path d="M422.058813,196.162401 C421.152512,195.588232 419.796031,196.100532 419.029026,197.306657 C418.262022,198.512782 418.374944,199.955995 419.281244,200.530165 C420.187544,201.104335 421.544026,200.592035 422.31103,199.38591 C423.078035,198.179785 422.965113,196.736571 422.058813,196.162401 L422.058813,196.162401 Z" id="Oval" stroke="#3E3E3E" stroke-width="2.0000313" fill="#3E3E3E"></path>
                            <path d="M432.361349,206.177885 L431.540556,205.658557 L441.816643,189.478434 L442.637436,189.997763 L432.361349,206.177885 L432.361349,206.177885 Z" id="Rectangle-path" stroke="#3E3E3E" stroke-width="2.00000232" fill="#3E3E3E"></path>
                            <path d="M432.165075,202.71214 C431.258882,202.137863 429.902372,202.649961 429.135224,203.855942 C428.368077,205.061924 428.480795,206.505109 429.386988,207.079386 C430.293181,207.653663 431.649692,207.141565 432.416839,205.935584 C433.183987,204.729602 433.071268,203.286417 432.165075,202.71214 L432.165075,202.71214 Z" id="Oval" stroke="#3E3E3E" stroke-width="1.99996964" fill="#3E3E3E"></path>
                            <path d="M442.40284,189.71283 L441.881949,190.531689 L431.2167,183.772855 L431.737592,182.953996 L442.40284,189.71283 L442.40284,189.71283 Z" id="Rectangle-path" stroke="#3E3E3E" stroke-width="1.99996964" fill="#3E3E3E"></path>
                        </g>
                    </g>
                </g>
            </g>
        </g>
    </g>
</svg>