<?xml version="1.0" encoding="UTF-8" standalone="no"?>
<svg width="403px" height="87px" viewBox="0 0 403 87" version="1.1" xmlns="http://www.w3.org/2000/svg" xmlns:xlink="http://www.w3.org/1999/xlink" xmlns:sketch="http://www.bohemiancoding.com/sketch/ns">
    <!-- Generator: Sketch 3.4.2 (15857) - http://www.bohemiancoding.com/sketch -->
    <title>Path 1 + Path 1 + Heat pump Controller</title>
    <desc>Created with Sketch.</desc>
    <defs></defs>
    <g id="Page-1" stroke="none" stroke-width="1" fill="none" fill-rule="evenodd" sketch:type="MSPage">
        <g id="Path-1-+-Path-1-+-Heat-pump-Controller" sketch:type="MSLayerGroup" transform="translate(4.000000, 0.000000)">
            <path d="M0,10 L38.14198,40.7382812 L78.4449513,10.265625 L131,42.125" id="Path-1" stroke="#7F7F7F" stroke-width="10" fill="#CD9987" sketch:type="MSShapeGroup" transform="translate(65.500000, 26.062500) scale(1, -1) translate(-65.500000, -26.062500) "></path>
            <path d="M0,43 L38.14198,73.7382812 L78.4449513,43.265625 L131,75.125" id="Path-1" stroke="#7F7F7F" stroke-width="10" fill="#9DB2A7" sketch:type="MSShapeGroup"></path>
            <path d="M160.512,0.016 L163.968,0.016 L163.968,14.752 L182.496,14.752 L182.496,0.016 L185.952,0.016 L185.952,34 L182.496,34 L182.496,17.92 L163.968,17.92 L163.968,34 L160.512,34 L160.512,0.016 Z M211.92,21.04 C211.824,18.9279894 211.144006,17.176007 209.88,15.784 C208.615994,14.391993 206.816012,13.696 204.48,13.696 C203.391995,13.696 202.384005,13.895998 201.456,14.296 C200.527995,14.696002 199.712004,15.2399966 199.008,15.928 C198.303996,16.6160034 197.744002,17.3999956 197.328,18.28 C196.911998,19.1600044 196.672,20.0799952 196.608,21.04 L211.92,21.04 Z M215.232,22.096 L215.232,22.816 C215.232,23.0720013 215.216,23.3439986 215.184,23.632 L196.56,23.632 C196.592,24.7520056 196.815998,25.807995 197.232,26.8 C197.648002,27.792005 198.223996,28.6559963 198.96,29.392 C199.696004,30.1280037 200.559995,30.7119978 201.552,31.144 C202.544005,31.5760022 203.615994,31.792 204.768,31.792 C206.464008,31.792 207.927994,31.4000039 209.16,30.616 C210.392006,29.8319961 211.327997,28.9280051 211.968,27.904 L214.416,29.824 C213.071993,31.5200085 211.592008,32.7359963 209.976,33.472 C208.359992,34.2080037 206.624009,34.576 204.768,34.576 C203.103992,34.576 201.560007,34.280003 200.136,33.688 C198.711993,33.095997 197.488005,32.2720053 196.464,31.216 C195.439995,30.1599947 194.632003,28.9120072 194.04,27.472 C193.447997,26.0319928 193.152,24.4640085 193.152,22.768 C193.152,21.0719915 193.439997,19.5040072 194.016,18.064 C194.592003,16.6239928 195.391995,15.3760053 196.416,14.32 C197.440005,13.2639947 198.639993,12.440003 200.016,11.848 C201.392007,11.255997 202.879992,10.96 204.48,10.96 C206.240009,10.96 207.791993,11.255997 209.136,11.848 C210.480007,12.440003 211.599996,13.239995 212.496,14.248 C213.392004,15.256005 214.071998,16.4319933 214.536,17.776 C215.000002,19.1200067 215.232,20.5599923 215.232,22.096 L215.232,22.096 Z M236.112,19.504 C236.112,17.5519902 235.600005,16.0960048 234.576,15.136 C233.551995,14.1759952 232.06401,13.696 230.112,13.696 C228.767993,13.696 227.520006,13.9359976 226.368,14.416 C225.215994,14.8960024 224.240004,15.535996 223.44,16.336 L221.616,14.176 C222.544005,13.2479954 223.767992,12.480003 225.288,11.872 C226.808008,11.263997 228.52799,10.96 230.448,10.96 C231.664006,10.96 232.799995,11.1279983 233.856,11.464 C234.912005,11.8000017 235.839996,12.3039966 236.64,12.976 C237.440004,13.6480034 238.063998,14.4959949 238.512,15.52 C238.960002,16.5440051 239.184,17.7439931 239.184,19.12 L239.184,28.96 C239.184,29.8240043 239.216,30.7199954 239.28,31.648 C239.344,32.5760046 239.439999,33.3599968 239.568,34 L236.64,34 C236.544,33.4559973 236.464,32.8640032 236.4,32.224 C236.336,31.5839968 236.304,30.960003 236.304,30.352 L236.208,30.352 C235.183995,31.8560075 234.024006,32.9359967 232.728,33.592 C231.431994,34.2480033 229.872009,34.576 228.048,34.576 C227.183996,34.576 226.296005,34.4560012 225.384,34.216 C224.471995,33.9759988 223.640004,33.5840027 222.888,33.04 C222.135996,32.4959973 221.512002,31.7920043 221.016,30.928 C220.519998,30.0639957 220.272,29.0080062 220.272,27.76 C220.272,26.0319914 220.711996,24.664005 221.592,23.656 C222.472004,22.647995 223.647993,21.8960025 225.12,21.4 C226.592007,20.9039975 228.27999,20.5840007 230.184,20.44 C232.08801,20.2959993 234.06399,20.224 236.112,20.224 L236.112,19.504 Z M235.152,22.768 C233.807993,22.768 232.456007,22.8239994 231.096,22.936 C229.735993,23.0480006 228.504006,23.2719983 227.4,23.608 C226.295994,23.9440017 225.392004,24.4319968 224.688,25.072 C223.983996,25.7120032 223.632,26.5599947 223.632,27.616 C223.632,28.416004 223.783998,29.0879973 224.088,29.632 C224.392002,30.1760027 224.799997,30.6159983 225.312,30.952 C225.824003,31.2880017 226.391997,31.5279993 227.016,31.672 C227.640003,31.8160007 228.271997,31.888 228.912,31.888 C230.064006,31.888 231.087996,31.688002 231.984,31.288 C232.880004,30.887998 233.631997,30.3440034 234.24,29.656 C234.848003,28.9679966 235.311998,28.1760045 235.632,27.28 C235.952002,26.3839955 236.112,25.440005 236.112,24.448 L236.112,22.768 L235.152,22.768 Z M257.232,14.272 L250.896,14.272 L250.896,27.376 C250.896,28.2080042 250.975999,28.8959973 251.136,29.44 C251.296001,29.9840027 251.527998,30.4079985 251.832,30.712 C252.136002,31.0160015 252.495998,31.2239994 252.912,31.336 C253.328002,31.4480006 253.775998,31.504 254.256,31.504 C254.704002,31.504 255.175998,31.4400006 255.672,31.312 C256.168002,31.1839994 256.639998,31.0080011 257.088,30.784 L257.232,33.616 C256.655997,33.8400011 256.056003,34.0079994 255.432,34.12 C254.807997,34.2320006 254.128004,34.288 253.392,34.288 C252.783997,34.288 252.144003,34.2080008 251.472,34.048 C250.799997,33.8879992 250.176003,33.5840022 249.6,33.136 C249.023997,32.6879978 248.552002,32.0800038 248.184,31.312 C247.815998,30.5439962 247.632,29.5360062 247.632,28.288 L247.632,14.272 L242.976,14.272 L242.976,11.536 L247.632,11.536 L247.632,5.2 L250.896,5.2 L250.896,11.536 L257.232,11.536 L257.232,14.272 Z M277.584,45.52 L274.32,45.52 L274.32,11.536 L277.584,11.536 L277.584,15.424 L277.728,15.424 C278.656005,13.9519926 279.895992,12.8400038 281.448,12.088 C283.000008,11.3359962 284.575992,10.96 286.176,10.96 C287.936009,10.96 289.527993,11.263997 290.952,11.872 C292.376007,12.480003 293.591995,13.3119947 294.6,14.368 C295.608005,15.4240053 296.391997,16.6719928 296.952,18.112 C297.512003,19.5520072 297.792,21.1039917 297.792,22.768 C297.792,24.4320083 297.512003,25.9839928 296.952,27.424 C296.391997,28.8640072 295.608005,30.1119947 294.6,31.168 C293.591995,32.2240053 292.376007,33.055997 290.952,33.664 C289.527993,34.272003 287.936009,34.576 286.176,34.576 C284.575992,34.576 283.000008,34.2000038 281.448,33.448 C279.895992,32.6959962 278.656005,31.616007 277.728,30.208 L277.584,30.208 L277.584,45.52 Z M294.336,22.768 C294.336,21.5199938 294.144002,20.3440055 293.76,19.24 C293.375998,18.1359945 292.824004,17.1760041 292.104,16.36 C291.383996,15.5439959 290.496005,14.8960024 289.44,14.416 C288.383995,13.9359976 287.184007,13.696 285.84,13.696 C284.591994,13.696 283.440005,13.9279977 282.384,14.392 C281.327995,14.8560023 280.416004,15.4959959 279.648,16.312 C278.879996,17.1280041 278.280002,18.0879945 277.848,19.192 C277.415998,20.2960055 277.2,21.4879936 277.2,22.768 C277.2,24.0480064 277.415998,25.2399945 277.848,26.344 C278.280002,27.4480055 278.879996,28.399996 279.648,29.2 C280.416004,30.000004 281.327995,30.6319977 282.384,31.096 C283.440005,31.5600023 284.591994,31.792 285.84,31.792 C287.184007,31.792 288.383995,31.5600023 289.44,31.096 C290.496005,30.6319977 291.383996,29.9920041 292.104,29.176 C292.824004,28.3599959 293.375998,27.4000055 293.76,26.296 C294.144002,25.1919945 294.336,24.0160062 294.336,22.768 L294.336,22.768 Z M321.12,34 C321.056,33.391997 321.008,32.7200037 320.976,31.984 C320.944,31.2479963 320.928,30.6400024 320.928,30.16 L320.832,30.16 C320.191997,31.4720066 319.152007,32.5359959 317.712,33.352 C316.271993,34.1680041 314.752008,34.576 313.152,34.576 C310.303986,34.576 308.168007,33.7280085 306.744,32.032 C305.319993,30.3359915 304.608,28.0960139 304.608,25.312 L304.608,11.536 L307.872,11.536 L307.872,23.968 C307.872,25.1520059 307.967999,26.2239952 308.16,27.184 C308.352001,28.1440048 308.679998,28.9679966 309.144,29.656 C309.608002,30.3440034 310.231996,30.8799981 311.016,31.264 C311.800004,31.6480019 312.783994,31.84 313.968,31.84 C314.832004,31.84 315.671996,31.6640018 316.488,31.312 C317.304004,30.9599982 318.031997,30.4240036 318.672,29.704 C319.312003,28.9839964 319.823998,28.0720055 320.208,26.968 C320.592002,25.8639945 320.784,24.5600075 320.784,23.056 L320.784,11.536 L324.048,11.536 L324.048,29.056 C324.048,29.664003 324.064,30.4479952 324.096,31.408 C324.128,32.3680048 324.176,33.2319962 324.24,34 L321.12,34 Z M335.904,15.376 C336.544003,14.0639934 337.527993,13.0000041 338.856,12.184 C340.184007,11.3679959 341.663992,10.96 343.296,10.96 C343.904003,10.96 344.535997,11.0239994 345.192,11.152 C345.848003,11.2800006 346.487997,11.5279982 347.112,11.896 C347.736003,12.2640018 348.311997,12.751997 348.84,13.36 C349.368003,13.968003 349.823998,14.7519952 350.208,15.712 C350.976004,14.1759923 352.023993,13.0000041 353.352,12.184 C354.680007,11.3679959 356.255991,10.96 358.08,10.96 C360.928014,10.96 363.063993,11.8079915 364.488,13.504 C365.912007,15.2000085 366.624,17.4399861 366.624,20.224 L366.624,34 L363.36,34 L363.36,21.568 C363.36,19.1999882 362.920004,17.2960072 362.04,15.856 C361.159996,14.4159928 359.664011,13.696 357.552,13.696 C356.367994,13.696 355.368004,13.9359976 354.552,14.416 C353.735996,14.8960024 353.080002,15.5279961 352.584,16.312 C352.087998,17.0960039 351.728001,17.983995 351.504,18.976 C351.279999,19.968005 351.168,20.9919947 351.168,22.048 L351.168,34 L347.904,34 L347.904,20.896 C347.904,19.8079946 347.824001,18.8160045 347.664,17.92 C347.503999,17.0239955 347.224002,16.2640031 346.824,15.64 C346.423998,15.0159969 345.872004,14.5360017 345.168,14.2 C344.463996,13.8639983 343.568005,13.696 342.48,13.696 C341.711996,13.696 340.936004,13.8719982 340.152,14.224 C339.367996,14.5760018 338.664003,15.1119964 338.04,15.832 C337.415997,16.5520036 336.912002,17.4639945 336.528,18.568 C336.143998,19.6720055 335.952,20.9759925 335.952,22.48 L335.952,34 L332.688,34 L332.688,16.48 C332.688,15.871997 332.672,15.0880048 332.64,14.128 C332.608,13.1679952 332.56,12.3040038 332.496,11.536 L335.616,11.536 C335.68,12.144003 335.728,12.8159963 335.76,13.552 C335.792,14.2880037 335.808,14.8959976 335.808,15.376 L335.904,15.376 Z M378.336,45.52 L375.072,45.52 L375.072,11.536 L378.336,11.536 L378.336,15.424 L378.48,15.424 C379.408005,13.9519926 380.647992,12.8400038 382.2,12.088 C383.752008,11.3359962 385.327992,10.96 386.928,10.96 C388.688009,10.96 390.279993,11.263997 391.704,11.872 C393.128007,12.480003 394.343995,13.3119947 395.352,14.368 C396.360005,15.4240053 397.143997,16.6719928 397.704,18.112 C398.264003,19.5520072 398.544,21.1039917 398.544,22.768 C398.544,24.4320083 398.264003,25.9839928 397.704,27.424 C397.143997,28.8640072 396.360005,30.1119947 395.352,31.168 C394.343995,32.2240053 393.128007,33.055997 391.704,33.664 C390.279993,34.272003 388.688009,34.576 386.928,34.576 C385.327992,34.576 383.752008,34.2000038 382.2,33.448 C380.647992,32.6959962 379.408005,31.616007 378.48,30.208 L378.336,30.208 L378.336,45.52 Z M395.088,22.768 C395.088,21.5199938 394.896002,20.3440055 394.512,19.24 C394.127998,18.1359945 393.576004,17.1760041 392.856,16.36 C392.135996,15.5439959 391.248005,14.8960024 390.192,14.416 C389.135995,13.9359976 387.936007,13.696 386.592,13.696 C385.343994,13.696 384.192005,13.9279977 383.136,14.392 C382.079995,14.8560023 381.168004,15.4959959 380.4,16.312 C379.631996,17.1280041 379.032002,18.0879945 378.6,19.192 C378.167998,20.2960055 377.952,21.4879936 377.952,22.768 C377.952,24.0480064 378.167998,25.2399945 378.6,26.344 C379.032002,27.4480055 379.631996,28.399996 380.4,29.2 C381.168004,30.000004 382.079995,30.6319977 383.136,31.096 C384.192005,31.5600023 385.343994,31.792 386.592,31.792 C387.936007,31.792 389.135995,31.5600023 390.192,31.096 C391.248005,30.6319977 392.135996,29.9920041 392.856,29.176 C393.576004,28.3599959 394.127998,27.4000055 394.512,26.296 C394.896002,25.1919945 395.088,24.0160062 395.088,22.768 L395.088,22.768 Z M189.12,80.528 C188.543997,81.3920043 187.848004,82.2079962 187.032,82.976 C186.215996,83.7440038 185.272005,84.4159971 184.2,84.992 C183.127995,85.5680029 181.944006,86.0239983 180.648,86.36 C179.351994,86.6960017 177.936008,86.864 176.4,86.864 C173.839987,86.864 171.472011,86.4160045 169.296,85.52 C167.119989,84.6239955 165.248008,83.3840079 163.68,81.8 C162.111992,80.2159921 160.888004,78.3360109 160.008,76.16 C159.127996,73.9839891 158.688,71.600013 158.688,69.008 C158.688,66.415987 159.135996,64.0320109 160.032,61.856 C160.928004,59.6799891 162.167992,57.8000079 163.752,56.216 C165.336008,54.6319921 167.207989,53.3920045 169.368,52.496 C171.528011,51.5999955 173.871987,51.152 176.4,51.152 C177.648006,51.152 178.871994,51.2799987 180.072,51.536 C181.272006,51.7920013 182.399995,52.1519977 183.456,52.616 C184.512005,53.0800023 185.471996,53.6399967 186.336,54.296 C187.200004,54.9520033 187.919997,55.6959958 188.496,56.528 L185.616,58.64 C185.263998,58.0959973 184.792003,57.5520027 184.2,57.008 C183.607997,56.4639973 182.912004,55.9840021 182.112,55.568 C181.311996,55.1519979 180.440005,54.8160013 179.496,54.56 C178.551995,54.3039987 177.536005,54.176 176.448,54.176 C174.239989,54.176 172.264009,54.575996 170.52,55.376 C168.775991,56.176004 167.296006,57.2559932 166.08,58.616 C164.863994,59.9760068 163.936003,61.551991 163.296,63.344 C162.655997,65.136009 162.336,67.0239901 162.336,69.008 C162.336,70.9920099 162.663997,72.879991 163.32,74.672 C163.976003,76.464009 164.911994,78.0399932 166.128,79.4 C167.344006,80.7600068 168.823991,81.839996 170.568,82.64 C172.312009,83.440004 174.271989,83.84 176.448,83.84 C178.40001,83.84 180.255991,83.440004 182.016,82.64 C183.776009,81.839996 185.247994,80.5600088 186.432,78.8 L189.12,80.528 Z M216.624,74.768 C216.624,76.4640085 216.328003,78.0319928 215.736,79.472 C215.143997,80.9120072 214.320005,82.1599947 213.264,83.216 C212.207995,84.2720053 210.944007,85.095997 209.472,85.688 C207.999993,86.280003 206.384009,86.576 204.624,86.576 C202.895991,86.576 201.296007,86.280003 199.824,85.688 C198.351993,85.095997 197.088005,84.2720053 196.032,83.216 C194.975995,82.1599947 194.152003,80.9120072 193.56,79.472 C192.967997,78.0319928 192.672,76.4640085 192.672,74.768 C192.672,73.0719915 192.967997,71.5040072 193.56,70.064 C194.152003,68.6239928 194.975995,67.3760053 196.032,66.32 C197.088005,65.2639947 198.351993,64.440003 199.824,63.848 C201.296007,63.255997 202.895991,62.96 204.624,62.96 C206.384009,62.96 207.999993,63.255997 209.472,63.848 C210.944007,64.440003 212.207995,65.2639947 213.264,66.32 C214.320005,67.3760053 215.143997,68.6239928 215.736,70.064 C216.328003,71.5040072 216.624,73.0719915 216.624,74.768 L216.624,74.768 Z M213.168,74.768 C213.168,73.5199938 212.968002,72.3440055 212.568,71.24 C212.167998,70.1359945 211.600004,69.1760041 210.864,68.36 C210.127996,67.5439959 209.232005,66.8960024 208.176,66.416 C207.119995,65.9359976 205.936007,65.696 204.624,65.696 C203.311993,65.696 202.136005,65.9359976 201.096,66.416 C200.055995,66.8960024 199.168004,67.5439959 198.432,68.36 C197.695996,69.1760041 197.128002,70.1359945 196.728,71.24 C196.327998,72.3440055 196.128,73.5199938 196.128,74.768 C196.128,76.0160062 196.327998,77.1919945 196.728,78.296 C197.128002,79.4000055 197.695996,80.3599959 198.432,81.176 C199.168004,81.9920041 200.055995,82.6319977 201.096,83.096 C202.136005,83.5600023 203.311993,83.792 204.624,83.792 C205.936007,83.792 207.119995,83.5600023 208.176,83.096 C209.232005,82.6319977 210.127996,81.9920041 210.864,81.176 C211.600004,80.3599959 212.167998,79.4000055 212.568,78.296 C212.968002,77.1919945 213.168,76.0160062 213.168,74.768 L213.168,74.768 Z M226.56,63.536 C226.624,64.144003 226.672,64.8159963 226.704,65.552 C226.736,66.2880037 226.752,66.8959976 226.752,67.376 L226.848,67.376 C227.488003,66.0639934 228.527993,65.0000041 229.968,64.184 C231.408007,63.3679959 232.927992,62.96 234.528,62.96 C237.376014,62.96 239.511993,63.8079915 240.936,65.504 C242.360007,67.2000085 243.072,69.4399861 243.072,72.224 L243.072,86 L239.808,86 L239.808,73.568 C239.808,72.3839941 239.712001,71.3120048 239.52,70.352 C239.327999,69.3919952 239.000002,68.5680034 238.536,67.88 C238.071998,67.1919966 237.448004,66.6560019 236.664,66.272 C235.879996,65.8879981 234.896006,65.696 233.712,65.696 C232.847996,65.696 232.008004,65.8719982 231.192,66.224 C230.375996,66.5760018 229.648003,67.1119964 229.008,67.832 C228.367997,68.5520036 227.856002,69.4639945 227.472,70.568 C227.087998,71.6720055 226.896,72.9759925 226.896,74.48 L226.896,86 L223.632,86 L223.632,68.48 C223.632,67.871997 223.616,67.0880048 223.584,66.128 C223.552,65.1679952 223.504,64.3040038 223.44,63.536 L226.56,63.536 Z M261.648,66.272 L255.312,66.272 L255.312,79.376 C255.312,80.2080042 255.391999,80.8959973 255.552,81.44 C255.712001,81.9840027 255.943998,82.4079985 256.248,82.712 C256.552002,83.0160015 256.911998,83.2239994 257.328,83.336 C257.744002,83.4480006 258.191998,83.504 258.672,83.504 C259.120002,83.504 259.591998,83.4400006 260.088,83.312 C260.584002,83.1839994 261.055998,83.0080011 261.504,82.784 L261.648,85.616 C261.071997,85.8400011 260.472003,86.0079994 259.848,86.12 C259.223997,86.2320006 258.544004,86.288 257.808,86.288 C257.199997,86.288 256.560003,86.2080008 255.888,86.048 C255.215997,85.8879992 254.592003,85.5840022 254.016,85.136 C253.439997,84.6879978 252.968002,84.0800038 252.6,83.312 C252.231998,82.5439962 252.048,81.5360062 252.048,80.288 L252.048,66.272 L247.392,66.272 L247.392,63.536 L252.048,63.536 L252.048,57.2 L255.312,57.2 L255.312,63.536 L261.648,63.536 L261.648,66.272 Z M266.736,68.48 C266.736,67.871997 266.72,67.0880048 266.688,66.128 C266.656,65.1679952 266.608,64.3040038 266.544,63.536 L269.664,63.536 C269.728,64.144003 269.776,64.8159963 269.808,65.552 C269.84,66.2880037 269.856,66.8959976 269.856,67.376 L269.952,67.376 C270.592003,66.0639934 271.551994,65.0000041 272.832,64.184 C274.112006,63.3679959 275.551992,62.96 277.152,62.96 C277.568002,62.96 277.943998,62.9759998 278.28,63.008 C278.616002,63.0400002 278.959998,63.1039995 279.312,63.2 L278.88,66.272 C278.687999,66.2079997 278.368002,66.1440003 277.92,66.08 C277.471998,66.0159997 277.024002,65.984 276.576,65.984 C275.711996,65.984 274.880004,66.1439984 274.08,66.464 C273.279996,66.7840016 272.584003,67.2879966 271.992,67.976 C271.399997,68.6640034 270.920002,69.5439946 270.552,70.616 C270.183998,71.6880054 270,72.9759925 270,74.48 L270,86 L266.736,86 L266.736,68.48 Z M305.472,74.768 C305.472,76.4640085 305.176003,78.0319928 304.584,79.472 C303.991997,80.9120072 303.168005,82.1599947 302.112,83.216 C301.055995,84.2720053 299.792007,85.095997 298.32,85.688 C296.847993,86.280003 295.232009,86.576 293.472,86.576 C291.743991,86.576 290.144007,86.280003 288.672,85.688 C287.199993,85.095997 285.936005,84.2720053 284.88,83.216 C283.823995,82.1599947 283.000003,80.9120072 282.408,79.472 C281.815997,78.0319928 281.52,76.4640085 281.52,74.768 C281.52,73.0719915 281.815997,71.5040072 282.408,70.064 C283.000003,68.6239928 283.823995,67.3760053 284.88,66.32 C285.936005,65.2639947 287.199993,64.440003 288.672,63.848 C290.144007,63.255997 291.743991,62.96 293.472,62.96 C295.232009,62.96 296.847993,63.255997 298.32,63.848 C299.792007,64.440003 301.055995,65.2639947 302.112,66.32 C303.168005,67.3760053 303.991997,68.6239928 304.584,70.064 C305.176003,71.5040072 305.472,73.0719915 305.472,74.768 L305.472,74.768 Z M302.016,74.768 C302.016,73.5199938 301.816002,72.3440055 301.416,71.24 C301.015998,70.1359945 300.448004,69.1760041 299.712,68.36 C298.975996,67.5439959 298.080005,66.8960024 297.024,66.416 C295.967995,65.9359976 294.784007,65.696 293.472,65.696 C292.159993,65.696 290.984005,65.9359976 289.944,66.416 C288.903995,66.8960024 288.016004,67.5439959 287.28,68.36 C286.543996,69.1760041 285.976002,70.1359945 285.576,71.24 C285.175998,72.3440055 284.976,73.5199938 284.976,74.768 C284.976,76.0160062 285.175998,77.1919945 285.576,78.296 C285.976002,79.4000055 286.543996,80.3599959 287.28,81.176 C288.016004,81.9920041 288.903995,82.6319977 289.944,83.096 C290.984005,83.5600023 292.159993,83.792 293.472,83.792 C294.784007,83.792 295.967995,83.5600023 297.024,83.096 C298.080005,82.6319977 298.975996,81.9920041 299.712,81.176 C300.448004,80.3599959 301.015998,79.4000055 301.416,78.296 C301.816002,77.1919945 302.016,76.0160062 302.016,74.768 L302.016,74.768 Z M315.84,86 L312.576,86 L312.576,49.712 L315.84,49.712 L315.84,86 Z M327.936,86 L324.672,86 L324.672,49.712 L327.936,49.712 L327.936,86 Z M353.808,73.04 C353.712,70.9279894 353.032006,69.176007 351.768,67.784 C350.503994,66.391993 348.704012,65.696 346.368,65.696 C345.279995,65.696 344.272005,65.895998 343.344,66.296 C342.415995,66.696002 341.600004,67.2399966 340.896,67.928 C340.191996,68.6160034 339.632002,69.3999956 339.216,70.28 C338.799998,71.1600044 338.56,72.0799952 338.496,73.04 L353.808,73.04 Z M357.12,74.096 L357.12,74.816 C357.12,75.0720013 357.104,75.3439986 357.072,75.632 L338.448,75.632 C338.48,76.7520056 338.703998,77.807995 339.12,78.8 C339.536002,79.792005 340.111996,80.6559963 340.848,81.392 C341.584004,82.1280037 342.447995,82.7119978 343.44,83.144 C344.432005,83.5760022 345.503994,83.792 346.656,83.792 C348.352008,83.792 349.815994,83.4000039 351.048,82.616 C352.280006,81.8319961 353.215997,80.9280051 353.856,79.904 L356.304,81.824 C354.959993,83.5200085 353.480008,84.7359963 351.864,85.472 C350.247992,86.2080037 348.512009,86.576 346.656,86.576 C344.991992,86.576 343.448007,86.280003 342.024,85.688 C340.599993,85.095997 339.376005,84.2720053 338.352,83.216 C337.327995,82.1599947 336.520003,80.9120072 335.928,79.472 C335.335997,78.0319928 335.04,76.4640085 335.04,74.768 C335.04,73.0719915 335.327997,71.5040072 335.904,70.064 C336.480003,68.6239928 337.279995,67.3760053 338.304,66.32 C339.328005,65.2639947 340.527993,64.440003 341.904,63.848 C343.280007,63.255997 344.767992,62.96 346.368,62.96 C348.128009,62.96 349.679993,63.255997 351.024,63.848 C352.368007,64.440003 353.487996,65.239995 354.384,66.248 C355.280004,67.256005 355.959998,68.4319933 356.424,69.776 C356.888002,71.1200067 357.12,72.5599923 357.12,74.096 L357.12,74.096 Z M364.128,68.48 C364.128,67.871997 364.112,67.0880048 364.08,66.128 C364.048,65.1679952 364,64.3040038 363.936,63.536 L367.056,63.536 C367.12,64.144003 367.168,64.8159963 367.2,65.552 C367.232,66.2880037 367.248,66.8959976 367.248,67.376 L367.344,67.376 C367.984003,66.0639934 368.943994,65.0000041 370.224,64.184 C371.504006,63.3679959 372.943992,62.96 374.544,62.96 C374.960002,62.96 375.335998,62.9759998 375.672,63.008 C376.008002,63.0400002 376.351998,63.1039995 376.704,63.2 L376.272,66.272 C376.079999,66.2079997 375.760002,66.1440003 375.312,66.08 C374.863998,66.0159997 374.416002,65.984 373.968,65.984 C373.103996,65.984 372.272004,66.1439984 371.472,66.464 C370.671996,66.7840016 369.976003,67.2879966 369.384,67.976 C368.791997,68.6640034 368.312002,69.5439946 367.944,70.616 C367.575998,71.6880054 367.392,72.9759925 367.392,74.48 L367.392,86 L364.128,86 L364.128,68.48 Z" id="Heat-pump-Controller" fill="#3F3F3F" sketch:type="MSShapeGroup"></path>
        </g>
    </g>
</svg>