<?xml version="1.0" encoding="UTF-8" standalone="no"?>
<svg width="376px" height="278px" viewBox="0 0 376 278" version="1.1" xmlns="http://www.w3.org/2000/svg" xmlns:xlink="http://www.w3.org/1999/xlink" xmlns:sketch="http://www.bohemiancoding.com/sketch/ns">
    <!-- Generator: Sketch 3.4.2 (15857) - http://www.bohemiancoding.com/sketch -->
    <title>head-in-jar</title>
    <desc>Created with Sketch.</desc>
    <defs></defs>
    <g id="Page-1" stroke="none" stroke-width="1" fill="none" fill-rule="evenodd" sketch:type="MSPage">
        <g id="head-in-jar" sketch:type="MSLayerGroup">
            <rect id="Rectangle-41" fill="#FFFFFF" sketch:type="MSShapeGroup" x="0" y="0" width="376" height="277"></rect>
            <g id="jarhead" transform="translate(67.000000, 0.000000)" sketch:type="MSShapeGroup">
                <g id="Layer_1">
                    <g id="Group">
                        <ellipse id="Oval" fill="#E3E5DA" cx="120.5" cy="60.3" rx="100.5" ry="59.7"></ellipse>
                        <path d="M221,242.5 C221,247.7 214.2,252 205.9,252 L35.1,252 C26.8,252 20,247.7 20,242.5 L20,66.7 C20,61.5 26.8,57 35.1,57 L205.9,57 C214.2,57 221,61.5 221,66.7 L221,242.5 L221,242.5 Z" id="Shape" fill="#E3E5DA"></path>
                        <g transform="translate(37.000000, 45.000000)" id="Shape">
                            <path d="M7.6,33.4 C7.6,33.4 23,-4.4 67.6,1.1 C112.2,6.6 128.1,38.8 124.7,56.7 C121.3,74.6 127.2,96.1 128.9,108.9 C130.6,121.7 132.3,127.5 123,130.9 C113.7,134.3 118,146 113.8,159.9 C109.6,173.8 99.5,177.2 79.3,168.4 C59.1,159.6 67.1,168.6 67.1,168.6 C67.1,168.6 78.3,193.9 82.5,200.4 C86.7,206.9 25.5,204.4 27.2,190.8 C30.4,164.4 21.6,154.7 18,146.1 C-5.7,91.2 -1.1,48.5 7.6,33.4 L7.6,33.4 Z" fill="#E05D6E"></path>
                            <path d="M5.2,58 C5.2,30 31,8 62.9,8 C94.8,8 120.6,30 120.6,58 L5.2,58 L5.2,58 Z" fill="#CCCCCC"></path>
                            <g transform="translate(28.000000, 17.000000)">
                                <path d="M27.3,14.9 C26.2,13.3 24.5,12.1 22.6,11.5 C20.8,10.9 18.7,10.9 16.8,11.5 C15,12.1 13.3,13.3 12.1,14.9 C10.9,16.5 10.3,18.4 10.3,20.4 C10.3,22.4 10.9,24.3 12.1,25.9 C13.2,27.5 14.9,28.7 16.8,29.3 C18.6,29.9 20.7,29.9 22.6,29.3 C24.4,28.7 26.1,27.5 27.3,25.9 C28.5,24.3 29.1,22.4 29.1,20.4 C29.1,18.4 28.5,16.5 27.3,14.9 L27.3,14.9 Z"></path>
                                <path d="M34.9,20.4 C34.8,19.7 34.9,19.1 34.8,18.4 C36.4,17.7 37.9,16.8 39.4,15.8 C39.2,14.8 38.9,13.9 38.5,12.9 C36.7,12.8 34.8,12.9 33.1,13.1 C32.7,12.5 32.4,11.9 32,11.4 C31.6,10.9 31.2,10.4 30.7,9.9 C31.6,8.4 32.3,6.8 32.9,5.1 C32.1,4.5 31.3,3.8 30.5,3.3 C29,4.3 27.6,5.4 26.3,6.7 C25.7,6.4 25.1,6.2 24.5,6 C23.9,5.8 23.2,5.6 22.6,5.5 C22.4,3.8 22,2 21.5,0.3 C20.5,0.2 19.5,0.2 18.5,0.3 C17.8,2 17.4,3.8 17.1,5.5 C16.5,5.6 15.8,5.8 15.2,6 C14.6,6.2 13.9,6.4 13.4,6.7 C12.2,5.4 10.9,4.2 9.5,3.2 C8.6,3.7 7.8,4.3 7.1,4.9 C7.6,6.7 8.2,8.3 9,9.9 C8.5,10.4 8.1,10.9 7.7,11.4 C7.3,11.9 7,12.5 6.6,13.1 C4.9,12.8 3.2,12.6 1.4,12.5 C1,13.4 0.7,14.4 0.5,15.4 C1.9,16.6 3.4,17.5 5,18.3 C4.9,19 4.9,19.6 4.9,20.3 C5,21 4.9,21.6 5,22.3 C3.4,23 1.9,23.9 0.4,24.9 C0.6,25.9 0.9,26.8 1.3,27.8 C3.1,27.9 5,27.8 6.7,27.6 C7.1,28.2 7.4,28.8 7.8,29.3 C8.2,29.8 8.6,30.3 9.1,30.8 C8.2,32.3 7.5,33.9 6.9,35.6 C7.7,36.2 8.5,36.9 9.3,37.4 C10.8,36.4 12.2,35.3 13.5,34 C14.1,34.3 14.7,34.5 15.3,34.7 C15.9,34.9 16.6,35.1 17.2,35.2 C17.4,36.9 17.8,38.7 18.3,40.4 C19.3,40.5 20.3,40.5 21.3,40.4 C22,38.7 22.4,36.9 22.7,35.2 C23.4,35.1 24,34.9 24.6,34.7 C25.2,34.5 25.9,34.3 26.4,34 C27.6,35.3 28.9,36.5 30.3,37.5 C31.2,37 32,36.4 32.7,35.8 C32.2,34 31.6,32.4 30.8,30.8 C31.3,30.3 31.7,29.8 32.1,29.3 C32.5,28.8 32.8,28.2 33.2,27.6 C34.9,27.9 36.6,28.1 38.4,28.2 C38.8,27.3 39.1,26.3 39.3,25.3 C37.9,24.1 36.4,23.2 34.8,22.4 C34.9,21.7 34.8,21.1 34.9,20.4 L34.9,20.4 Z M22.6,29.3 C20.8,29.9 18.7,29.9 16.8,29.3 C15,28.7 13.3,27.5 12.1,25.9 C10.9,24.3 10.3,22.4 10.3,20.4 C10.3,18.4 10.9,16.5 12.1,14.9 C13.2,13.3 14.9,12.1 16.8,11.5 C18.6,10.9 20.7,10.9 22.6,11.5 C24.4,12.1 26.1,13.3 27.3,14.9 C28.5,16.5 29.1,18.4 29.1,20.4 C29.1,22.4 28.5,24.3 27.3,25.9 C26.2,27.5 24.5,28.6 22.6,29.3 L22.6,29.3 Z" fill="#505050"></path>
                            </g>
                            <path d="M91.3,46 C91.3,45.7 91.4,45.4 91.4,45.1 C92.1,44.9 92.8,44.7 93.5,44.4 C93.5,44 93.5,43.6 93.4,43.2 C92.7,43 92,42.8 91.2,42.6 C91.2,42.3 91.1,42 91,41.7 C90.9,41.4 90.9,41.1 90.8,40.9 C91.4,40.5 92,40 92.5,39.5 C92.4,39.1 92.2,38.8 92,38.4 C91.2,38.4 90.5,38.5 89.8,38.6 C89.6,38.4 89.5,38.1 89.3,37.9 C89.1,37.7 89,37.4 88.8,37.2 C89.2,36.6 89.6,35.9 89.9,35.3 C89.6,35 89.4,34.7 89.1,34.5 C88.4,34.8 87.7,35.2 87.1,35.5 C86.9,35.3 86.6,35.2 86.4,35 C86.2,34.8 85.9,34.7 85.7,34.5 C85.9,33.8 86,33.1 86,32.3 C85.6,32.1 85.3,32 84.9,31.8 C84.4,32.3 83.9,32.9 83.4,33.5 C83.1,33.4 82.8,33.3 82.6,33.3 C82.3,33.2 82,33.2 81.7,33.1 C81.6,32.4 81.4,31.7 81.2,30.9 C80.8,30.9 80.4,30.8 80,30.8 C79.7,31.5 79.4,32.2 79.2,32.9 C78.9,32.9 78.6,33 78.3,33 C78,33 77.7,33.1 77.4,33.2 C77,32.6 76.6,32 76.2,31.3 C75.8,31.4 75.5,31.5 75.1,31.7 L75.1,34 C74.8,34.1 74.6,34.3 74.3,34.4 C74,34.5 73.8,34.7 73.6,34.9 C73,34.4 72.4,34 71.8,33.6 C71.5,33.8 71.2,34.1 70.9,34.4 C71.1,35.1 71.4,35.8 71.8,36.5 L71.2,37.1 C71,37.3 70.8,37.6 70.7,37.8 C70,37.6 69.3,37.4 68.6,37.3 C68.4,37.6 68.2,38 68,38.3 C68.5,38.9 69,39.4 69.6,39.9 C69.5,40.2 69.4,40.4 69.3,40.7 C69.2,41 69.1,41.3 69.1,41.5 C68.4,41.5 67.6,41.6 66.9,41.8 C66.8,42.2 66.8,42.6 66.7,43 C67.4,43.4 68,43.7 68.7,44 L68.7,44.9 C68.7,45.2 68.7,45.5 68.8,45.8 C68.1,46.1 67.5,46.5 66.8,46.8 C66.9,47.2 67,47.6 67.1,47.9 C67.9,48 68.6,48.1 69.4,48.1 C69.5,48.4 69.6,48.6 69.7,48.9 C69.8,49.2 69.9,49.4 70.1,49.7 C69.6,50.2 69.1,50.8 68.7,51.4 C68.9,51.7 69.1,52.1 69.4,52.4 C70.1,52.2 70.9,52 71.6,51.7 L72.2,52.3 L72.8,52.9 C72.5,53.6 72.3,54.3 72.1,55 C72.4,55.2 72.7,55.5 73.1,55.7 C73.7,55.3 74.3,54.8 74.9,54.3 C75.2,54.4 75.4,54.6 75.7,54.7 C76,54.8 76.2,54.9 76.5,55 C76.5,55.7 76.5,56.5 76.6,57.2 C77,57.3 77.4,57.4 77.7,57.5 C78.1,56.9 78.5,56.2 78.9,55.6 C79.2,55.6 79.5,55.7 79.8,55.7 L80.7,55.7 C80.9,56.4 81.2,57.1 81.6,57.7 C82,57.7 82.4,57.6 82.8,57.5 C83,56.7 83.1,56 83.2,55.3 C83.5,55.2 83.8,55.1 84,55.1 C84.3,55 84.5,54.9 84.8,54.8 C85.3,55.4 85.8,55.9 86.3,56.4 C86.7,56.2 87,56 87.3,55.8 C87.2,55 87,54.3 86.8,53.6 C87,53.4 87.3,53.3 87.5,53.1 C87.7,52.9 87.9,52.7 88.1,52.5 C88.7,52.8 89.4,53.2 90.1,53.4 C90.4,53.1 90.6,52.8 90.8,52.5 C90.4,51.8 90,51.2 89.6,50.6 C89.8,50.4 89.9,50.1 90,49.9 C90.1,49.6 90.3,49.4 90.4,49.1 C91.1,49.2 91.9,49.2 92.6,49.2 C92.7,48.8 92.9,48.5 93,48.1 C92.4,47.6 91.8,47.2 91.2,46.8 C91.2,46.6 91.2,46.3 91.3,46 L91.3,46 Z M88.8,45.7 C88.7,46.8 88.3,47.8 87.8,48.8 C87.3,49.8 86.6,50.6 85.7,51.3 C84.9,52 83.9,52.5 82.9,52.9 C81.9,53.3 80.8,53.4 79.7,53.4 C78.6,53.4 77.5,53.1 76.5,52.7 C75.5,52.3 74.6,51.6 73.8,50.9 C73,50.1 72.4,49.2 72,48.2 C71.6,47.2 71.3,46.1 71.2,45 C71.1,43.9 71.3,42.8 71.6,41.8 C71.9,40.8 72.5,39.8 73.2,39 C73.9,38.2 74.7,37.4 75.7,36.9 C76.6,36.4 77.7,36 78.8,35.9 C79.9,35.7 81,35.8 82,36 C83.1,36.2 84.1,36.7 85,37.3 C85.9,37.9 86.7,38.7 87.3,39.6 C87.9,40.5 88.4,41.5 88.6,42.6 C88.9,43.5 89,44.6 88.8,45.7 L88.8,45.7 Z" fill="#505050"></path>
                            <g transform="translate(61.000000, 9.000000)">
                                <path d="M18.4,9.7 C18,8.8 17.5,8 16.8,7.3 C16.1,6.6 15.3,6.1 14.4,5.7 C13.5,5.3 12.6,5.2 11.6,5.1 C10.6,5.1 9.7,5.3 8.8,5.7 C7.9,6.1 7.1,6.6 6.4,7.3 C5.7,8 5.2,8.8 4.8,9.7 C4.4,10.6 4.2,11.5 4.2,12.5 C4.2,13.5 4.4,14.4 4.8,15.3 C5.2,16.2 5.7,17 6.4,17.7 C7.1,18.4 7.9,18.9 8.8,19.3 C9.7,19.7 10.6,19.8 11.6,19.9 C12.6,19.9 13.5,19.7 14.4,19.3 C15.3,18.9 16.1,18.4 16.8,17.7 C17.5,17 18,16.2 18.4,15.3 C18.8,14.4 18.9,13.5 19,12.5 C18.9,11.6 18.7,10.6 18.4,9.7 L18.4,9.7 Z M18,15.1 C17.7,15.9 17.1,16.7 16.5,17.3 C15.9,17.9 15.1,18.4 14.3,18.8 C13.5,19.1 12.6,19.3 11.7,19.3 C10.8,19.3 9.9,19.1 9.1,18.8 C8.3,18.5 7.5,17.9 6.9,17.3 C6.3,16.7 5.8,15.9 5.4,15.1 C5.1,14.3 4.9,13.4 4.9,12.5 C4.9,11.6 5.1,10.7 5.4,9.9 C5.7,9.1 6.3,8.3 6.9,7.7 C7.5,7.1 8.3,6.6 9.1,6.2 C9.9,5.9 10.8,5.7 11.7,5.7 C12.6,5.7 13.5,5.9 14.3,6.2 C15.1,6.5 15.9,7.1 16.5,7.7 C17.1,8.3 17.6,9.1 18,9.9 C18.3,10.7 18.5,11.6 18.5,12.5 C18.5,13.4 18.4,14.3 18,15.1 L18,15.1 Z"></path>
                                <path d="M17.3,10.2 C17,9.5 16.5,8.8 16,8.2 C15.4,7.6 14.8,7.2 14,6.9 C13.3,6.6 12.5,6.4 11.7,6.4 C10.9,6.4 10.1,6.6 9.4,6.9 C8.7,7.2 8,7.7 7.4,8.2 C6.8,8.8 6.4,9.4 6.1,10.2 C5.8,10.9 5.6,11.7 5.6,12.5 C5.6,13.3 5.8,14.1 6.1,14.8 C6.4,15.5 6.9,16.2 7.4,16.8 C8,17.4 8.6,17.8 9.4,18.1 C10.1,18.4 10.9,18.6 11.7,18.6 C12.5,18.6 13.3,18.4 14,18.1 C14.7,17.8 15.4,17.3 16,16.8 C16.6,16.2 17,15.6 17.3,14.8 C17.6,14.1 17.8,13.3 17.8,12.5 C17.7,11.7 17.6,10.9 17.3,10.2 L17.3,10.2 Z"></path>
                                <path d="M22.1,12.5 L22.1,11.7 C22.5,11.5 23,11.3 23.4,11.1 C23.3,10.5 23.2,9.9 23,9.3 C22.5,9.3 22,9.2 21.6,9.2 L21.3,8.5 C21.2,8.3 21.1,8 21,7.8 C21.3,7.5 21.7,7.1 22,6.7 C21.7,6.2 21.4,5.7 21,5.2 C20.5,5.3 20.1,5.5 19.6,5.7 L19.1,5.1 L18.5,4.6 C18.7,4.2 18.9,3.7 19,3.2 C18.5,2.8 18,2.5 17.5,2.2 C17.1,2.5 16.8,2.8 16.4,3.2 C16.2,3.1 15.9,3 15.7,2.9 L15,2.6 C15,2.1 15,1.6 14.9,1.2 C14.3,1 13.7,0.9 13.1,0.8 C12.9,1.2 12.7,1.7 12.5,2.1 L11.7,2.1 L10.9,2.1 C10.7,1.7 10.5,1.2 10.3,0.8 C9.7,0.9 9.1,1 8.5,1.2 C8.5,1.7 8.4,2.2 8.4,2.6 L7.7,2.9 C7.5,3 7.2,3.1 7,3.2 C6.7,2.9 6.3,2.5 5.9,2.2 C5.4,2.5 4.9,2.8 4.4,3.2 C4.5,3.7 4.7,4.1 4.9,4.6 L4.3,5.1 L3.8,5.7 C3.4,5.5 2.9,5.3 2.4,5.2 C2,5.7 1.7,6.2 1.4,6.7 C1.7,7.1 2,7.4 2.4,7.8 C2.3,8 2.2,8.3 2.1,8.5 L1.8,9.2 C1.3,9.2 0.8,9.2 0.4,9.3 C0.2,9.9 0.1,10.5 1.42108547e-14,11.1 C0.4,11.3 0.9,11.5 1.3,11.7 L1.3,12.5 L1.3,13.3 C0.9,13.5 0.4,13.7 1.42108547e-14,13.9 C0.1,14.5 0.2,15.1 0.4,15.7 C0.9,15.7 1.4,15.8 1.8,15.8 L2.1,16.5 C2.2,16.7 2.3,17 2.4,17.2 C2.1,17.5 1.7,17.9 1.4,18.3 C1.7,18.8 2,19.3 2.4,19.8 C2.9,19.7 3.3,19.5 3.8,19.3 L4.3,19.9 L4.9,20.4 C4.7,20.8 4.5,21.3 4.4,21.8 C4.9,22.2 5.4,22.5 5.9,22.8 C6.3,22.5 6.6,22.2 7,21.8 C7.2,21.9 7.5,22 7.7,22.1 L8.4,22.4 C8.4,22.9 8.4,23.4 8.5,23.8 C9.1,24 9.7,24.1 10.3,24.2 C10.5,23.8 10.7,23.3 10.9,22.9 L11.7,22.9 L12.5,22.9 C12.7,23.3 12.9,23.8 13.1,24.2 C13.7,24.1 14.3,24 14.9,23.8 C14.9,23.3 15,22.8 15,22.4 L15.7,22.1 C15.9,22 16.2,21.9 16.4,21.8 C16.7,22.1 17.1,22.5 17.5,22.8 C18,22.5 18.5,22.2 19,21.8 C18.9,21.3 18.7,20.9 18.5,20.4 L19.1,19.9 L19.6,19.3 C20,19.5 20.5,19.7 21,19.8 C21.4,19.3 21.7,18.8 22,18.3 C21.7,17.9 21.4,17.6 21,17.2 C21.1,17 21.2,16.7 21.3,16.5 L21.6,15.8 C22.1,15.8 22.6,15.8 23,15.7 C23.2,15.1 23.3,14.5 23.4,13.9 C23,13.7 22.5,13.5 22.1,13.3 L22.1,12.5 L22.1,12.5 Z M16.8,17.6 C16.1,18.3 15.3,18.8 14.4,19.2 C13.5,19.6 12.6,19.7 11.6,19.8 C10.6,19.8 9.7,19.6 8.8,19.2 C7.9,18.8 7.1,18.3 6.4,17.6 C5.7,16.9 5.2,16.1 4.8,15.2 C4.4,14.3 4.2,13.4 4.2,12.4 C4.2,11.4 4.4,10.5 4.8,9.6 C5.2,8.7 5.7,7.9 6.4,7.2 C7.1,6.5 7.9,6 8.8,5.6 C9.7,5.2 10.6,5.1 11.6,5 C12.6,5 13.5,5.2 14.4,5.6 C15.3,6 16.1,6.5 16.8,7.2 C17.5,7.9 18,8.7 18.4,9.6 C18.8,10.5 18.9,11.4 19,12.4 C19,13.4 18.8,14.3 18.4,15.2 C18,16.1 17.5,17 16.8,17.6 L16.8,17.6 Z" fill="#505050"></path>
                                <path d="M18,9.9 C17.7,9.1 17.1,8.3 16.5,7.7 C15.9,7.1 15.1,6.6 14.3,6.2 C13.5,5.9 12.6,5.7 11.7,5.7 C10.8,5.7 9.9,5.9 9.1,6.2 C8.3,6.5 7.5,7.1 6.9,7.7 C6.3,8.3 5.8,9.1 5.4,9.9 C5.1,10.7 4.9,11.6 4.9,12.5 C4.9,13.4 5.1,14.3 5.4,15.1 C5.7,15.9 6.3,16.7 6.9,17.3 C7.5,17.9 8.3,18.4 9.1,18.8 C9.9,19.1 10.8,19.3 11.7,19.3 C12.6,19.3 13.5,19.1 14.3,18.8 C15.1,18.5 15.9,17.9 16.5,17.3 C17.1,16.7 17.6,15.9 18,15.1 C18.3,14.3 18.5,13.4 18.5,12.5 C18.5,11.6 18.4,10.7 18,9.9 L18,9.9 Z M16,16.8 C15.4,17.4 14.8,17.8 14,18.1 C13.3,18.4 12.5,18.6 11.7,18.6 C10.9,18.6 10.1,18.4 9.4,18.1 C8.7,17.8 8,17.3 7.4,16.8 C6.8,16.2 6.4,15.6 6.1,14.8 C5.8,14.1 5.6,13.3 5.6,12.5 C5.6,11.7 5.8,10.9 6.1,10.2 C6.4,9.5 6.9,8.8 7.4,8.2 C8,7.6 8.6,7.2 9.4,6.9 C10.1,6.6 10.9,6.4 11.7,6.4 C12.5,6.4 13.3,6.6 14,6.9 C14.7,7.2 15.4,7.7 16,8.2 C16.6,8.8 17,9.4 17.3,10.2 C17.6,10.9 17.8,11.7 17.8,12.5 C17.8,13.3 17.6,14.1 17.3,14.8 C17,15.6 16.5,16.3 16,16.8 L16,16.8 Z" fill="#505050"></path>
                            </g>
                        </g>
                        <circle id="Oval" fill="#FFFFFF" cx="189.9" cy="114.9" r="9.9"></circle>
                        <circle id="Oval" fill="#FFFFFF" cx="167" cy="189" r="3.9"></circle>
                        <circle id="Oval" fill="#FFFFFF" cx="179.7" cy="177.2" r="6.1"></circle>
                        <circle id="Oval" fill="#FFFFFF" cx="180.2" cy="147.7" r="8.8"></circle>
                        <path d="M230.5,249 C230.5,254.2 226.2,258.5 221,258.5 L19,258.5 C13.8,258.5 9.5,254.2 9.5,249 L9.5,249 C9.5,243.8 13.8,239.5 19,239.5 L221,239.5 C226.2,239.5 230.5,243.8 230.5,249 L230.5,249 L230.5,249 Z" id="Shape" stroke="#E3E5DA" stroke-width="3" fill="#505050"></path>
                        <path d="M242.8,267.5 C242.8,272.5 238.2,276.5 232.5,276.5 L10.3,276.5 C4.6,276.5 0,272.5 0,267.5 L0,267.5 C0,262.5 4.6,258.5 10.3,258.5 L232.6,258.5 C238.2,258.5 242.8,262.5 242.8,267.5 L242.8,267.5 L242.8,267.5 Z" id="Shape" stroke="#E3E5DA" stroke-width="3" fill="#505050"></path>
                        <path d="M65,31.7 L64.4,32 C64,32.2 63.5,32.4 62.8,32.7 C62.5,32.8 62.1,33 61.7,33.1 C61.3,33.3 61,33.5 60.6,33.7 C60.2,33.9 59.8,34.1 59.4,34.3 C59,34.5 58.6,34.8 58.1,35 C57.7,35.3 57.2,35.4 56.7,35.7 C56.2,36 55.8,36.2 55.3,36.5 C55,36.8 54.5,37 54,37.4 C53.5,37.7 53,37.9 52.6,38.3 C52.2,38.6 51.7,38.9 51.2,39.2 C51,39.3 50.7,39.5 50.5,39.7 L49.8,40.2 L49.1,40.7 C48.9,40.9 48.7,41.1 48.4,41.2 C48,41.6 47.5,41.8 47,42.2 L45.7,43.3 C45.3,43.7 44.8,44 44.4,44.4 C43.5,45.1 42.7,45.9 41.8,46.7 C41,47.5 40.1,48.2 39.4,49 C39,49.4 38.6,49.8 38.2,50.1 C37.8,50.5 37.5,50.9 37.1,51.2 C36.3,51.9 35.8,52.7 35.1,53.3 L34.2,54.2 C33.9,54.5 33.7,54.8 33.5,55 C33.1,55.5 32.6,55.9 32.4,56.2 L32,56.6 L31.3,56.5 C31.3,56.5 31.4,55.8 31.7,54.5 C31.8,54.2 31.8,53.8 31.9,53.5 C32,53.1 32.1,52.7 32.2,52.3 C32.4,51.4 32.7,50.4 33.1,49.4 C33.3,48.9 33.5,48.4 33.8,47.8 C34,47.3 34.4,46.7 34.6,46.2 C35.1,45 35.9,44 36.7,42.8 C37.1,42.2 37.6,41.7 38,41.1 L38.7,40.3 C38.9,40 39.2,39.8 39.4,39.5 C39.9,39 40.4,38.4 40.9,37.9 L42.6,36.4 C43.2,35.9 43.8,35.5 44.4,35.1 L45.3,34.5 L46.3,34 C46.9,33.7 47.6,33.3 48.2,33 C48.9,32.7 49.5,32.4 50.1,32.2 C50.7,31.9 51.4,31.8 52,31.6 C52.6,31.4 53.3,31.2 53.9,31.1 C54.5,31 55.1,30.9 55.7,30.7 C56.3,30.6 56.9,30.6 57.4,30.5 C58,30.5 58.5,30.4 59,30.4 L60.4,30.4 L61.7,30.4 C62.1,30.4 62.4,30.5 62.7,30.5 C64,30.7 64.7,30.8 64.7,30.8 L65,31.7 L65,31.7 Z" id="Shape" fill="#FFFFFF"></path>
                    </g>
                </g>
            </g>
        </g>
    </g>
</svg>