<?xml version="1.0" encoding="UTF-8" standalone="no"?>
<svg width="376px" height="547px" viewBox="0 0 376 547" version="1.1" xmlns="http://www.w3.org/2000/svg" xmlns:xlink="http://www.w3.org/1999/xlink" xmlns:sketch="http://www.bohemiancoding.com/sketch/ns">
    <!-- Generator: Sketch 3.4.2 (15857) - http://www.bohemiancoding.com/sketch -->
    <title>icons</title>
    <desc>Created with Sketch.</desc>
    <defs></defs>
    <g id="Page-1" stroke="none" stroke-width="1" fill="none" fill-rule="evenodd" sketch:type="MSPage">
        <g id="icons" sketch:type="MSLayerGroup">
            <rect id="Rectangle-40" fill="#FFFFFF" sketch:type="MSShapeGroup" x="0" y="0" width="376" height="546.190002"></rect>
            <g id="gaming-icon" transform="translate(220.000000, 175.000000)" sketch:type="MSShapeGroup">
                <g id="Layer_1">
                    <g id="Group">
                        <path d="M89.2,27.4 C89.2,33.8 81.2,39 74.802,39 L61,32 L44.2,34.2 L29,31.8 L14.4,39 C8,39 0,33.8 0,27.4 L5.8,13.2 C5.8,6.8 12.8,2 19.2,2 L70,2 C76.4,2 83.4,7 83.4,13.2 L89.2,27.4 L89.2,27.4 Z" id="Shape" fill="#E05D6E"></path>
                        <path d="M36,3.8 C36,5 35,6 33.8,6 L20.2,6 C19,6 18,5 18,3.8 L18,2.2 C18,1 19,0 20.2,0 L33.8,0 C35,0 36,1 36,2.2 L36,3.8 L36,3.8 Z" id="Shape" fill="#E05D6E"></path>
                        <path d="M72,3.8 C72,5 71,6 69.8,6 L56.2,6 C55,6 54,5 54,3.8 L54,2.2 C54,1 55,0 56.2,0 L69.8,0 C71,0 72,1 72,2.2 L72,3.8 L72,3.8 Z" id="Shape" fill="#E05D6E"></path>
                        <circle id="Oval" fill="#CCCCCC" cx="18.6" cy="15.2" r="8"></circle>
                        <circle id="Oval" fill="#CCCCCC" cx="71.4" cy="15.2" r="8"></circle>
                        <path d="M42,25.2 C42,26.402 42.4,28 41.6,28 L32,28 C31.2,28 30,26.4 30,25.2 L30,25 C30,23.8 31.2,22 32,22 L41.6,22 C42.4,22 42,23.6 42,25.2 L42,25.2 L42,25.2 Z" id="Shape" fill="#CCCCCC"></path>
                        <path d="M60,25.2 C60,26.402 59.8,28 59,28 L49.4,28 C48.6,28 48,26.4 48,25.2 L48,25 C48,23.8 48.6,22 49.4,22 L59,22 C59.8,22 60,23.6 60,25.2 L60,25.2 L60,25.2 Z" id="Shape" fill="#CCCCCC"></path>
                        <path d="M56,19.4 C56,20.8 54.8,22 53.4,22 L34.8,22 C33.4,22 32.2,20.8 32.2,19.4 L32.2,18.8 C32.2,17.4 33.4,16.2 34.8,16.2 L53.4,16.2 C54.8,16.2 56,17.4 56,18.8 L56,19.4 L56,19.4 Z" id="Shape" fill="#CCCCCC"></path>
                    </g>
                </g>
            </g>
            <g id="computer-icon" transform="translate(79.000000, 291.000000)" sketch:type="MSShapeGroup">
                <g id="Layer_1">
                    <g id="Group">
                        <rect id="Rectangle-path" fill="#E05D6E" x="34" y="42" width="20" height="18"></rect>
                        <path d="M92,50 C92,53 90,54 87,54 L4,54 C1,54 0,53 0,50 L0,5 C0,2 1,0 4,0 L87,0 C90,0 92,0.6 92,3.6 L92,50 L92,50 Z" id="Shape" fill="#E05D6E"></path>
                        <rect id="Rectangle-path" fill="#CCCCCC" x="2" y="4" width="88" height="46"></rect>
                        <path d="M64,61 C64,62.2 63,64 62,64 L29.6,64 C28.8,64 28,62.2 28,61 L28,60.8 C28,59.598 28.6,60 29.6,60 L62,60 C63,60 64,59.6 64,61 L64,61 L64,61 Z" id="Shape" fill="#E05D6E"></path>
                        <path d="M89.8,78.8 C89.8,81.8 87.4,84 84.4,84 L6.8,84 C3.8,84 1.4,81.8 1.4,78.8 L3.6,69.6 C3.6,66.6 6,64 9,64 L82,64 C85,64 87.4,66.6 87.4,69.6 L89.8,78.8 L89.8,78.8 Z" id="Shape" fill="#E05D6E"></path>
                        <path d="M83.6,69 C83.6,69.6 81.4,70 78.802,70 L11.6,70 C9,70 6.8,69.8 6.8,69 L8.8,67 C8.8,66.4 11,65.8 13.6,65.8 L77,65.8 C79.6,65.8 81.6,66.4 81.6,67 L83.6,69 L83.6,69 Z" id="Shape" fill="#CCCCCC"></path>
                        <path d="M83.6,75.2 C83.6,75.802 81.4,76 78.802,76 L11.6,76 C9,76 6.8,75.8 6.8,75.2 L8.8,72.2 C8.8,71.6 11,70 13.6,70 L77,70 C79.6,70 81.6,71.6 81.6,72.2 L83.6,75.2 L83.6,75.2 Z" id="Shape" fill="#CCCCCC"></path>
                        <path d="M83.6,81.2 C83.6,81.802 81.4,82 78.802,82 L11.6,82 C9,82 6.8,81.8 6.8,81.2 L8.8,79.2 C8.8,78.6 11,78 13.6,78 L77,78 C79.6,78 81.6,78.6 81.6,79.2 L83.6,81.2 L83.6,81.2 Z" id="Shape" fill="#CCCCCC"></path>
                    </g>
                </g>
            </g>
            <g id="cooking-icon" transform="translate(229.000000, 291.000000)" sketch:type="MSShapeGroup">
                <g id="Layer_1">
                    <g id="Group">
                        <ellipse id="Oval" fill="#CCCCCC" cx="36.8" cy="51.4" rx="31" ry="36.6"></ellipse>
                        <path d="M66.4,75.6 C66.4,82.4 58.8,88 52,88 L21.2,88 C14.4,88 6.8,82.4 6.8,75.6 L1.6,57.8 C1.6,51 1,46 7.8,46 L65.2,46 C72,46 71.402,51 71.402,57.8 L66.4,75.6 L66.4,75.6 Z" id="Shape" fill="#E05D6E"></path>
                        <circle id="Oval" fill="#E05D6E" cx="36.6" cy="15" r="8.4"></circle>
                        <path d="M36.8,10.2 C36.8,4.8 42.4,0.4 49.4,0.4" id="Shape" stroke="#E05D6E" stroke-width="6"></path>
                        <g transform="translate(2.000000, 48.000000)" id="Shape" stroke="#CCCCCC" stroke-width="6">
                            <path d="M0.8,13 L18.8,0.8"></path>
                            <path d="M35.6,13 L18.8,0.8"></path>
                            <path d="M33.6,13 L51.4,0.8"></path>
                            <path d="M68.4,13 L51.4,0.8"></path>
                        </g>
                        <g transform="translate(6.000000, 64.000000)" id="Shape" stroke="#CCCCCC" stroke-width="6">
                            <path d="M0.4,12.4 L16.4,0.2"></path>
                            <path d="M31.4,12.4 L16.4,0.2"></path>
                            <path d="M29.6,12.4 L45.4,0.2"></path>
                            <path d="M60.4,12.4 L45.4,0.2"></path>
                        </g>
                    </g>
                </g>
            </g>
            <g id="illustration-icon" transform="translate(87.000000, 428.000000)" sketch:type="MSShapeGroup">
                <g id="Layer_1">
                    <g id="Group" transform="translate(0.000000, 12.000000)">
                        <path d="M66.8,57.4 C70.198,61 70.598,66.198 67,69.6 L62,74.2 C58.4,77.6 53.8,76 50.6,72.2 L5.2,22.2 C2,18.6 7.2,18.6 10.8,15.4 L13.6,13 C17.2,9.8 18.4,4 21.6,7.6 L66.8,57.4 L66.8,57.4 Z" id="Shape" fill="#E05D6E"></path>
                        <path d="M4,21.2 L0.8,1.6 L20,6.8 L14.6,16.8 L4,21.2 Z" id="Shape" fill="#CCCCCC"></path>
                        <path d="M69.8,61.8 C71.4,63.598 71,66.198 69.198,67.8 L59.8,76.2 C58,77.802 55.4,78 53.8,76.2 L53.8,76.2 C52.2,74.4 50.4,73.8 52.2,72.2 L66,59.8 C67.8,58 68.2,59.8 69.8,61.8 L69.8,61.8 L69.8,61.8 Z" id="Shape" fill="#CCCCCC"></path>
                        <path d="M2.6,10.8 L1,1.4 L10.2,3.8 L7.6,8.6 L2.6,10.8 Z" id="Shape" fill="#E05D6E"></path>
                        <path d="M9.4,19.2 L55,69.6" id="Shape" stroke="#DFDFDF" stroke-width="6"></path>
                        <path d="M16.8,12.6 L62.4,63" id="Shape" stroke="#DFDFDF" stroke-width="6"></path>
                    </g>
                    <g id="Group" transform="translate(34.000000, 0.000000)">
                        <path d="M28.4,86.2 C28.8,91.2 25.8,95.402 20.8,95.802 L14.2,96.2 C9.2,96.6 6.8,92.4 6.4,87.6 L2.2,20 C1.8,15 5.8,18.4 10.8,18.2 L14.6,18 C19.6,17.6 24,13.8 24.2,18.8 L28.4,86.2 L28.4,86.2 Z" id="Shape" fill="#E05D6E"></path>
                        <path d="M1.8,18.6 L11.6,1.2 L23.4,17.2 L12.8,21.6 L1.8,18.6 Z" id="Shape" fill="#CCCCCC"></path>
                        <path d="M28,91.2 C28.2,93.6 26.2,95.402 23.8,95.402 L11.2,96.2 C8.8,96.4 6.6,95 6.6,92.4 L6.6,92.4 C6.4,90 5.4,88.4 7.802,88.4 L26.402,87.198 C28.8,87.2 27.8,88.8 28,91.2 L28,91.2 L28,91.2 Z" id="Shape" fill="#CCCCCC"></path>
                        <path d="M7.2,9.6 L12,1.2 L17.6,8.8 L12.6,11 L7.2,9.6 Z" id="Shape" fill="#E05D6E"></path>
                        <path d="M7.2,20.4 L11.4,88.2" id="Shape" stroke="#DFDFDF" stroke-width="6"></path>
                        <path d="M17.2,19.8 L21.4,87.6" id="Shape" stroke="#DFDFDF" stroke-width="6"></path>
                    </g>
                </g>
            </g>
            <g id="movies-icon" transform="translate(224.000000, 428.000000)" sketch:type="MSShapeGroup">
                <g id="Layer_1">
                    <g id="Group">
                        <path d="M41.6,31.4 L11.4,1.2" id="Shape" stroke="#E05D6E" stroke-width="6"></path>
                        <path d="M42.4,31.4 L72.6,1.2" id="Shape" stroke="#E05D6E" stroke-width="6"></path>
                        <path d="M25.8,36 C25.8,30 32.8,28 41.2,28 C49.6,28 56.6,30 56.6,36 L25.8,36 L25.8,36 Z" id="Shape" fill="#CCCCCC"></path>
                        <rect id="Rectangle-path" fill="#E05D6E" x="0" y="36" width="82" height="60"></rect>
                        <path d="M68,82.4 C68,86.198 65.6,90 62.6,90 L12.4,90 C9.2,90 6,86.2 6,82.4 L6,48.4 C6,44.6 9.2,42 12.4,42 L62.6,42 C65.802,42 68,44.6 68,48.4 L68,82.4 L68,82.4 Z" id="Shape" fill="#CCCCCC"></path>
                        <circle id="Oval" fill="#CCCCCC" cx="75" cy="55.4" r="3.8"></circle>
                        <circle id="Oval" fill="#CCCCCC" cx="75" cy="67.6" r="3.8"></circle>
                        <circle id="Oval" fill="#CCCCCC" cx="75" cy="78.6" r="3.8"></circle>
                    </g>
                </g>
            </g>
            <g id="pointer-icon" transform="translate(59.000000, 30.000000)" fill="#E05D6E" sketch:type="MSShapeGroup">
                <g id="Layer_1">
                    <g id="Group">
                        <path d="M80.2,19.4 L42.2,42.4 L20.2,80.4 L1.8,1 L80.2,19.4 Z" id="Shape"></path>
                        <rect id="Rectangle-path" transform="translate(47.522599, 47.621211) rotate(135.000000) translate(-47.522599, -47.621211) " x="37.2226977" y="11.3225594" width="20.5998024" height="72.5973038"></rect>
                    </g>
                </g>
            </g>
            <g id="reading-icon" transform="translate(77.000000, 148.000000)" sketch:type="MSShapeGroup">
                <g id="Layer_1">
                    <g id="Group">
                        <rect id="Rectangle-path" fill="#E05D6E" transform="translate(32.100422, 55.259860) rotate(159.702136) translate(-32.100422, -55.259860) " x="11.2004638" y="22.7599249" width="41.7999168" height="64.9998706"></rect>
                        <g transform="translate(12.000000, 30.000000)" id="Shape" stroke="#CCCCCC" stroke-width="6">
                            <path d="M0,12.6 L5,5"></path>
                            <path d="M13.4,7.6 L5,5"></path>
                            <path d="M12.8,7.8 L17.8,0.2"></path>
                            <path d="M26.2,2.8 L17.8,0.2"></path>
                        </g>
                        <g transform="translate(14.000000, 36.000000)" id="Shape" stroke="#CCCCCC" stroke-width="6">
                            <path d="M0.8,14.2 L5.8,6.6"></path>
                            <path d="M14.2,9.2 L5.8,6.6"></path>
                            <path d="M13.4,9.4 L18.6,1.8"></path>
                            <path d="M27,4.4 L18.6,1.8"></path>
                        </g>
                        <g transform="translate(18.000000, 44.000000)" id="Shape" stroke="#CCCCCC" stroke-width="6">
                            <path d="M0.4,13.4 L5.4,5.8"></path>
                            <path d="M13.8,8.4 L5.4,5.8"></path>
                            <path d="M13,8.6 L18.2,1"></path>
                            <path d="M26.4,3.6 L18.2,1"></path>
                        </g>
                        <g transform="translate(20.000000, 52.000000)" id="Shape" stroke="#CCCCCC" stroke-width="6">
                            <path d="M1.2,12.8 L6.2,5.4"></path>
                            <path d="M14.6,8 L6.2,5.4"></path>
                            <path d="M13.8,8.2 L18.8,0.6"></path>
                            <path d="M27.2,3.2 L18.8,0.6"></path>
                        </g>
                        <g transform="translate(24.000000, 58.000000)" id="Shape" stroke="#CCCCCC" stroke-width="6">
                            <path d="M0.6,14.2 L5.8,6.6"></path>
                            <path d="M14.2,9.2 L5.8,6.6"></path>
                            <path d="M13.4,9.4 L18.4,1.8"></path>
                            <path d="M26.8,4.4 L18.4,1.8"></path>
                        </g>
                        <g transform="translate(26.000000, 66.000000)" id="Shape" stroke="#CCCCCC" stroke-width="6">
                            <path d="M1.4,13.6 L6.6,6"></path>
                            <path d="M15,8.6 L6.6,6"></path>
                            <path d="M14.2,9 L19.2,1.4"></path>
                            <path d="M27.6,4 L19.2,1.4"></path>
                        </g>
                        <g transform="translate(34.000000, 0.000000)">
                            <rect id="Rectangle-path" fill="#E05D6E" transform="translate(30.130561, 37.503233) rotate(196.983517) translate(-30.130561, -37.503233) " x="9.23031658" y="5.00285324" width="41.8004884" height="65.0007595"></rect>
                            <g transform="translate(20.000000, 12.000000)" id="Shape" stroke="#CCCCCC" stroke-width="6">
                                <path d="M1.8,3.4 L10.6,0.4"></path>
                                <path d="M15.6,7.6 L10.6,0.4"></path>
                                <path d="M14.8,7.4 L23.4,4.4"></path>
                                <path d="M28.6,11.6 L23.4,4.4"></path>
                            </g>
                            <g transform="translate(18.000000, 20.000000)" id="Shape" stroke="#CCCCCC" stroke-width="6">
                                <path d="M1.6,3 L10.2,0.2"></path>
                                <path d="M15.2,7.2 L10.2,0.2"></path>
                                <path d="M14.6,7 L23.2,4"></path>
                                <path d="M28.2,11.2 L23.2,4"></path>
                            </g>
                            <g transform="translate(18.000000, 28.000000)" id="Shape" stroke="#CCCCCC" stroke-width="6">
                                <path d="M0,3 L8.6,0"></path>
                                <path d="M13.6,7.2 L8.6,0"></path>
                                <path d="M13,7 L21.6,4"></path>
                                <path d="M26.6,11.2 L21.6,4"></path>
                            </g>
                            <g transform="translate(14.000000, 34.000000)" id="Shape" stroke="#CCCCCC" stroke-width="6">
                                <path d="M1.6,4.6 L10.2,1.8"></path>
                                <path d="M15.4,8.8 L10.2,1.8"></path>
                                <path d="M14.6,8.6 L23.2,5.6"></path>
                                <path d="M28.4,12.8 L23.2,5.6"></path>
                            </g>
                            <g transform="translate(14.000000, 42.000000)" id="Shape" stroke="#CCCCCC" stroke-width="6">
                                <path d="M0,4.6 L8.6,1.6"></path>
                                <path d="M13.8,8.8 L8.6,1.6"></path>
                                <path d="M13,8.6 L21.6,5.6"></path>
                                <path d="M26.8,12.8 L21.6,5.6"></path>
                            </g>
                            <g transform="translate(10.000000, 50.000000)" id="Shape" stroke="#CCCCCC" stroke-width="6">
                                <path d="M1.8,4.2 L10.4,1.4"></path>
                                <path d="M15.4,8.4 L10.4,1.4"></path>
                                <path d="M14.6,8.2 L23.2,5.2"></path>
                                <path d="M28.4,12.4 L23.2,5.2"></path>
                            </g>
                        </g>
                    </g>
                </g>
            </g>
            <g id="thinking-icon" transform="translate(220.000000, 22.000000)" sketch:type="MSShapeGroup">
                <g id="Layer_1">
                    <g id="Group">
                        <circle id="Oval" fill="#E05D6E" cx="45" cy="44.8" r="43.6"></circle>
                        <circle id="Oval" fill="#CCCCCC" cx="44.8" cy="44.6" r="38.2"></circle>
                        <circle id="Oval" fill="#E05D6E" cx="62" cy="48" r="5.8"></circle>
                        <circle id="Oval" fill="#E05D6E" cx="44" cy="48" r="5.8"></circle>
                        <circle id="Oval" fill="#E05D6E" cx="27" cy="48" r="5.8"></circle>
                    </g>
                </g>
            </g>
        </g>
    </g>
</svg>