<?xml version="1.0" encoding="UTF-8" standalone="no"?>
<svg width="376px" height="772px" viewBox="0 0 376 772" version="1.1" xmlns="http://www.w3.org/2000/svg" xmlns:xlink="http://www.w3.org/1999/xlink" xmlns:sketch="http://www.bohemiancoding.com/sketch/ns">
    <!-- Generator: Sketch 3.4.2 (15857) - http://www.bohemiancoding.com/sketch -->
    <title>pets</title>
    <desc>Created with Sketch.</desc>
    <defs></defs>
    <g id="Page-1" stroke="none" stroke-width="1" fill="none" fill-rule="evenodd" sketch:type="MSPage">
        <g id="pets" sketch:type="MSLayerGroup">
            <rect id="Rectangle-26" fill="#F2F2F2" sketch:type="MSShapeGroup" x="0" y="0" width="376" height="772"></rect>
            <g id="cat" transform="translate(87.000000, 428.000000)" sketch:type="MSShapeGroup">
                <g id="Layer_1">
                    <g id="Group">
                        <path d="M86.5,270.5 C86.5,276.9 76.2,270.5 63.6,270.5 C51,270.5 40.7,276.8 40.7,270.5 C40.7,264.1 51,252.7 63.6,252.7 C76.2,252.7 86.5,264.1 86.5,270.5 L86.5,270.5 Z" id="Shape" stroke="#000000" fill="#000000"></path>
                        <path d="M135.2,270.5 C135.2,276.9 124.9,270.5 112.3,270.5 C99.6,270.5 89.4,276.8 89.4,270.5 C89.4,264.1 99.7,252.7 112.3,252.7 C124.9,252.7 135.2,264.1 135.2,270.5 L135.2,270.5 Z" id="Shape" stroke="#000000" fill="#000000"></path>
                        <path d="M93.1,261 C93.1,235.2 111.9,214.3 135.2,214.3" id="Shape" stroke="#4D4D4D"></path>
                        <g>
                            <path d="M154.2,247 C154.2,247 174,248.1 180.2,204.4 C186.4,160.7 165.6,134.7 197.9,104.6 C230.1,74.4 268.6,104.6 260.3,118.1 C252,131.6 241.6,129.5 233.3,117.1 C225,104.6 211.5,94.2 202.1,125.4 C192.7,156.6 207.4,163.9 207.9,201.3 C208.4,238.7 147,257.3 154.3,254.2 C161.6,251.1 125,269.9 154.2,247 L154.2,247 Z" id="Shape" fill="#CCCCCC"></path>
                            <path d="M92.4,91.3 C92.4,91.3 107.9,129.1 115.5,142.7 C123.1,156.2 159.3,166.7 157.4,218.6 C155.3,276.8 89.7,271.6 89.7,271.6 C63.1,270.6 11.8,262.9 46.4,218.6 C69.6,188.9 31.5,181.2 22.7,152 C13.9,122.9 60.6,99 60.6,99 C60.6,99 59,94.8 67.1,88.6 C75.3,82.4 75.2,74.3 92.4,91.3 L92.4,91.3 Z" id="Shape" fill="#CCCCCC"></path>
                            <path d="M109.9,58.6 C116.8,52.1 108.7,36.1 99.5,26.5 C89.3,15.7 76.6,6.3 62.8,6.3 C48.9,6.3 36.4,15.3 26.2,26.1 C17.2,35.5 9.1,50.2 15.3,57.3 C28.5,72.6 36.5,93.7 62.6,93.7 C88.7,93.7 97.1,70.7 109.9,58.6 L109.9,58.6 Z" id="Shape" fill="#CCCCCC"></path>
                            <path d="M0.3,2.3 C0.3,2.3 5.5,37.2 9.5,40.6 C13.5,44 21.4,16.6 35,12.4 C48.6,8.2 4.4,-2.9 0.3,2.3 L0.3,2.3 Z" id="Shape" fill="#CCCCCC"></path>
                            <path d="M40.3,49.4 L53.7,62.5" id="Shape" stroke="#000000" stroke-width="3" fill="#CCCCCC"></path>
                            <path d="M86.9,49.4 L73.6,62.5" id="Shape" stroke="#000000" stroke-width="3" fill="#CCCCCC"></path>
                            <path d="M4.9,7.3 C4.9,7.3 8,28.3 10.4,30.3 C12.8,32.3 17.6,15.9 25.7,13.4 C33.9,10.8 7.4,4.1 4.9,7.3 L4.9,7.3 Z" id="Shape" fill="#000000"></path>
                            <path d="M124.6,2.3 C124.6,2.3 119.4,37.2 115.4,40.6 C111.4,44 103.5,16.6 89.9,12.4 C76.3,8.2 120.5,-2.9 124.6,2.3 L124.6,2.3 Z" id="Shape" fill="#CCCCCC"></path>
                            <path d="M120,7.3 C120,7.3 116.9,28.3 114.5,30.3 C112.1,32.3 107.3,15.9 99.2,13.4 C91,10.8 117.5,4.1 120,7.3 L120,7.3 Z" id="Shape" fill="#000000"></path>
                            <path d="M85,266.5 C84.1,233.3 79.6,206.5 74.9,206.7" id="Shape" stroke="#4D4D4D"></path>
                            <circle id="Oval" fill="#E05D6E" cx="35.4" cy="65.6" r="9.3"></circle>
                            <path d="M4.1,61.9 C4.1,61.9 35.7,60.8 41.4,69.2" id="Shape" stroke="#000000" fill="#CCCCCC"></path>
                            <path d="M5.5,80 C5.5,80 33.9,66.2 42.6,71.5" id="Shape" stroke="#000000" fill="#CCCCCC"></path>
                            <path d="M41.5,75.1 C41.5,75.1 17,88.6 11.9,96.4" id="Shape" stroke="#000000" fill="#CCCCCC"></path>
                            <circle id="Oval" fill="#E05D6E" cx="89.2" cy="65.6" r="9.3"></circle>
                            <ellipse id="Oval" stroke="#000000" fill="#000000" cx="63.4" cy="79.7" rx="28" ry="14"></ellipse>
                            <path d="M119.4,61.9 C119.4,61.9 87.8,60.8 82.1,69.2" id="Shape" stroke="#000000" fill="#CCCCCC"></path>
                            <path d="M118,81.3 C118,81.3 89.6,67.5 80.9,72.8" id="Shape" stroke="#000000" fill="#CCCCCC"></path>
                            <path d="M82,76.4 C82,76.4 106.5,89.9 111.6,97.7" id="Shape" stroke="#000000" fill="#CCCCCC"></path>
                        </g>
                    </g>
                </g>
            </g>
            <g id="dog" transform="translate(125.000000, 59.000000)" sketch:type="MSShapeGroup">
                <g id="Layer_1">
                    <g id="Group">
                        <path d="M95.1,100.5 C95.1,108.4 82.8,126 74.9,126 L32.2,126 C24.3,126 12,108.4 12,100.5 L15.6,52.3 C15.6,44.4 25.5,35 33.4,35 L73.8,35 C81.7,35 91.6,44.5 91.6,52.3 L95.1,100.5 L95.1,100.5 Z" id="Shape" fill="#CCCCCC"></path>
                        <path d="M148.3,227.2 C148.3,251.7 128.401,271.599 103.901,271.599 C79.401,271.599 59.501,251.7 59.501,227.2 C59.501,202.7 81.201,187.599 105.701,187.599 C130.2,187.7 148.3,202.7 148.3,227.2 L148.3,227.2 Z" id="Shape" fill="#CCCCCC"></path>
                        <path d="M85.5,139.5 C85.5,139.5 128.1,184.9 130,208.1 C131.9,231.3 135.8,252.901 120.3,265.3 C104.901,277.7 60.4,266.7 60.4,266.7 C60.4,266.7 22.8,266 12,252.9 C1.2,239.8 -1.8,209.8 3.5,191.5 C5.5,184.6 26.4,137.1 26.4,137.1 C26.4,137.1 73.5,125.9 85.5,139.5 L85.5,139.5 Z" id="Shape" fill="#CCCCCC"></path>
                        <path d="M105.7,3.8 C105.7,3.8 105.099,46.2 101.5,51.2 C97.901,56.2 85.6,28.8 68.8,28.1 C52,27.5 99.4,-0.8 105.7,3.8 L105.7,3.8 Z" id="Shape" fill="#CCCCCC"></path>
                        <path d="M101.8,10.9 C101.8,10.9 100.7,35.7 98.6,38.7 C96.5,41.7 89.8,24.5 79.701,24.1 C69.6,23.7 98.1,8.1 101.8,10.9 L101.8,10.9 Z" id="Shape" fill="#000000"></path>
                        <ellipse id="Oval" fill="#000000" cx="53.5" cy="102.8" rx="20.8" ry="11.1"></ellipse>
                        <path d="M64,81.5 L84,81.5" id="Shape" stroke="#000000" stroke-width="3"></path>
                        <path d="M23,81.5 L43,81.5" id="Shape" stroke="#000000" stroke-width="3"></path>
                        <path d="M3.5,1.5 C3.5,1.5 4.1,43.9 7.7,48.9 C11.3,53.9 23.6,26.5 40.4,25.8 C57.2,25.1 9.7,-3.2 3.5,1.5 L3.5,1.5 Z" id="Shape" fill="#CCCCCC"></path>
                        <path d="M7.3,8.5 C7.3,8.5 8.4,33.3 10.5,36.3 C12.6,39.3 19.3,22.1 29.4,21.7 C39.6,21.3 11.1,5.7 7.3,8.5 L7.3,8.5 Z" id="Shape" fill="#000000"></path>
                        <path d="M83,133 C83,135.2 81.2,137 79,137 L27,137 C24.8,137 23,135.2 23,133 L23,133 C23,130.8 24.8,129 27,129 L79,129 C81.2,129 83,130.8 83,133 L83,133 L83,133 Z" id="Shape" fill="#E05D6E"></path>
                        <path d="M145,247.8 C145,247.8 158.7,251.2 167.3,234.5 C175.901,217.7 185,205.9 185,205.9 L179.7,230.299 C179.7,230.299 169.5,264.699 157.2,262.599 C145,260.3 133.5,259.4 145,247.8 L145,247.8 Z" id="Shape" fill="#CCCCCC"></path>
                        <path d="M115.6,270 C115.6,275.9 105.5,281.1 93.8,281.1 C82.1,281.1 73.1,275.901 73.1,270 C73.1,264.099 82.6,253.5 94.4,253.5 C106.1,253.5 115.6,264 115.6,270 L115.6,270 Z" id="Shape" stroke="#000000" fill="#000000"></path>
                        <path d="M45.5,265.2 C45.5,271.099 35.4,276.3 23.7,276.3 C12,276.3 3,271.1 3,265.2 C3,259.3 12.5,248.7 24.3,248.7 C36,248.7 45.5,259.3 45.5,265.2 L45.5,265.2 Z" id="Shape" stroke="#000000" fill="#000000"></path>
                        <path d="M75.4,263.6 C75.4,239.6 92.9,220.3 114.4,220.3" id="Shape" stroke="#4D4D4D"></path>
                        <path d="M44.3,263.6 C44.3,239.6 54.3,220.3 32.8,220.3" id="Shape" stroke="#4D4D4D"></path>
                    </g>
                </g>
            </g>
        </g>
    </g>
</svg>