<?xml version="1.0" encoding="UTF-8" standalone="no"?>
<svg width="622px" height="345px" viewBox="0 0 622 345" version="1.1" xmlns="http://www.w3.org/2000/svg" xmlns:xlink="http://www.w3.org/1999/xlink" xmlns:sketch="http://www.bohemiancoding.com/sketch/ns">
    <!-- Generator: Sketch 3.4.2 (15857) - http://www.bohemiancoding.com/sketch -->
    <title>the-kitchen</title>
    <desc>Created with Sketch.</desc>
    <defs></defs>
    <g id="Page-1" stroke="none" stroke-width="1" fill="none" fill-rule="evenodd" sketch:type="MSPage">
        <g id="the-kitchen" sketch:type="MSLayerGroup" transform="translate(-28.000000, -116.000000)">
            <g id="svg4508">
                <g id="layer1" transform="translate(27.859449, 115.836657)" sketch:type="MSShapeGroup">
                    <g id="g6201" transform="translate(0.448863, 2.633332)">
                        <path d="M65.9230595,84.2383013 C65.9230595,138.005044 51.1857774,191.053372 33.0064238,191.053372 C14.827065,191.053372 0.0897851396,138.005044 0.0897851396,84.2383013 C0.0897851396,30.4715511 14.827065,16.1929016 33.0064238,16.1929016 C51.1857774,16.1929016 65.9230595,30.4715511 65.9230595,84.2383013 L65.9230595,84.2383013 Z M31.2912788,0.63782596 L29.1257183,233.963918 L31.2912788,0.63782596 Z" id="path5101" fill="#53CCB1"></path>
                        <path d="M32.5132016,186.354678 C8.79608222,169.145721 -0.323899821,55.6892207 32.5906288,20.955973 C-13.030283,28.1996424 4.42416558,187.922483 32.607931,186.891053 L32.5132016,186.354678 Z" id="path5101-6-8" fill="#E3DEDB"></path>
                        <path d="M32.5906288,187.661052 C17.9689012,167.233807 19.1662167,83.8576092 32.5906288,21.2325 C3.8611503,59.5863105 18.2664863,176.89207 32.5906288,187.661052 L32.5906288,187.661052 Z" id="path5101-6-8-2" fill="#E3DEDB"></path>
                        <path d="M32.5135388,186.205689 C56.2306471,168.996731 65.3506358,55.540224 32.4361115,20.8069763 C78.0570153,28.050653 60.6025645,187.773494 32.4188093,186.742071 L32.5135388,186.205689 Z" id="path5101-6-8-4" fill="#E3DEDB"></path>
                        <path d="M32.4361115,187.512062 C47.0578355,167.084818 45.860517,83.7086125 32.4361115,21.0835106 C61.1655893,59.4373211 46.7602453,176.743088 32.4361115,187.512062 L32.4361115,187.512062 Z" id="path5101-6-8-2-5" fill="#E3DEDB"></path>
                        <path d="M32.5906288,22.6294828 C32.5906288,22.6294828 24.6386681,119.30694 26.8042344,146.662412 C28.9698007,174.017891 30.8928227,186.225938 30.8928227,186.225938 L32.5906288,22.6294828 Z" id="path5304" fill="#E3DEDB"></path>
                        <path d="M32.9581463,23.9704387 C32.9581463,23.9704387 40.9100982,120.647903 38.7445319,148.003368 C36.5789656,175.35884 34.6559524,187.566887 34.6559524,187.566887 L32.9581463,23.9704387 Z" id="path5304-0" fill="#E3DEDB"></path>
                        <rect id="rect5324" fill="#53CCB1" x="29.1906265" y="182.10373" width="6.89994905" height="22.4312628" rx="0.44564635"></rect>
                        <path d="M42.8133091,303.003358 C42.8133091,339.609193 36.9466223,342.073163 32.4540149,342.073163 C27.961406,342.073163 22.0947228,339.609193 22.0947228,303.003358 C22.0947228,266.397522 27.961406,196.345121 32.4540149,196.345121 C36.9466223,196.345121 42.8133091,266.397522 42.8133091,303.003358 L42.8133091,303.003358 Z" id="path5326" fill="#53CCB1"></path>
                        <path d="M37.9401298,329.80229 C37.9401298,333.759677 35.3992209,336.967775 32.2648481,336.967775 C29.1304753,336.967775 26.5895626,333.759677 26.5895626,329.80229 C26.5895626,325.8449 29.1304753,322.636806 32.2648481,322.636806 C35.3992209,322.636806 37.9401298,325.8449 37.9401298,329.80229 L37.9401298,329.80229 Z" id="path5330" fill="#E3DEDB"></path>
                    </g>
                    <g id="g5600" transform="translate(128.240246, 165.720332)">
                        <rect id="rect5332" fill="#52CCB1" x="0.227369763" y="1.35896194" width="202.790558" height="118.254637" rx="6.079062"></rect>
                        <rect id="rect5332-7" fill="#E3DEDB" x="13.9605093" y="19.9547777" width="135.674689" height="83.047867" rx="4.0671268"></rect>
                        <path d="M163.464453,0.492687028 L163.464453,119.731753" id="path5417" stroke="#E3DEDB" stroke-width="0.66704023" fill="#E3DEDB"></path>
                        <path d="M191.799293,30.5620562 C191.799293,35.9332334 187.445096,40.2874307 182.073926,40.2874307 C176.702749,40.2874307 172.348551,35.9332334 172.348551,30.5620562 C172.348551,25.1908791 176.702749,20.8366818 182.073926,20.8366818 C187.445096,20.8366818 191.799293,25.1908791 191.799293,30.5620562 L191.799293,30.5620562 Z" id="path5419" stroke="#E3DEDB" stroke-width="1.0629921" fill="#E3DEDB"></path>
                        <path d="M190.301057,30.5910621 C190.301057,35.1677373 186.590931,38.8778639 182.014262,38.8778639 C177.437586,38.8778639 173.72746,35.1677373 173.72746,30.5910621 C173.72746,26.0143868 177.437586,22.3042602 182.014262,22.3042602 C186.590931,22.3042602 190.301057,26.0143868 190.301057,30.5910621 L190.301057,30.5910621 Z" id="path5419-6" stroke="#E3DEDB" stroke-width="0.905754829" fill="#52CCB1"></path>
                        <rect id="rect5475" fill="#E3DEDB" x="170.822412" y="86.6699766" width="25.4355877" height="16.4583215" rx="4.0671268"></rect>
                        <path d="M191.799288,55.9976358 C191.799288,61.368813 187.44509,65.7230103 182.07392,65.7230103 C176.702743,65.7230103 172.348546,61.368813 172.348546,55.9976358 C172.348546,50.6264587 176.702743,46.2722614 182.07392,46.2722614 C187.44509,46.2722614 191.799288,50.6264587 191.799288,55.9976358 L191.799288,55.9976358 Z" id="path5419-7" stroke="#E3DEDB" stroke-width="1.0629921" fill="#E3DEDB"></path>
                        <path d="M190.330795,55.9976327 C190.330795,60.5743079 186.620668,64.2844345 182.043999,64.2844345 C177.467324,64.2844345 173.757198,60.5743079 173.757198,55.9976327 C173.757198,51.4209574 177.467324,47.7108308 182.043999,47.7108308 C186.620668,47.7108308 190.330795,51.4209574 190.330795,55.9976327 L190.330795,55.9976327 Z" id="path5419-6-1" stroke="#E3DEDB" stroke-width="0.905754829" fill="#52CCB1"></path>
                        <rect id="rect5475-2" fill="#52CCB1" x="173.313465" y="88.561186" width="20.2413488" height="13.0973422" rx="3.2365727"></rect>
                    </g>
                    <g id="g6192" transform="translate(148.828110, 1.466287)">
                        <path d="M52.5522468,17.5907275 L81.8252697,17.5907275 C110.640342,17.5907275 133.838048,34.7344208 133.838048,49.2409533 C106.08412,48.3593263 15.4274999,49.2180792 0.539468908,49.2409533 C0.539468908,34.7344208 23.7371745,17.5907275 52.5522468,17.5907275 L52.5522468,17.5907275 Z" id="rect5627" fill="#52CCB1"></path>
                        <path d="M23.248835,95.3044704 L109.67455,95.3044704 C138.457643,95.3044704 133.770144,74.0208703 133.770144,51.226093 C93.7010271,50.8107453 27.9541713,51.7438169 0.619528167,51.226093 C0.619528167,74.0208703 -5.53425759,95.3044704 23.248835,95.3044704 L23.248835,95.3044704 Z" id="rect5627-5" fill="#52CCB1"></path>
                        <path d="M64.490226,0.100895195 L67.3728652,0.100895195 C81.6635456,0.100895195 91.7139226,10.784796 91.7139226,17.9792422 C77.9495218,17.5420028 47.5328098,17.9678784 40.1491687,17.9792422 C40.1491687,10.784796 50.1995529,0.100895195 64.490226,0.100895195 L64.490226,0.100895195 Z" id="rect5627-3" stroke="#E3DEDB" stroke-width="0.89026123" fill="#52CCB1"></path>
                        <path d="M65.1096369,5.18124904 L67.1024379,5.18124904 C76.9817139,5.18124904 83.9296332,12.5671263 83.9296332,17.5407124 C74.4141724,17.2384447 53.3868206,17.5328678 48.2824489,17.5407124 C48.2824489,12.5671263 55.2303683,5.18124904 65.1096369,5.18124904 L65.1096369,5.18124904 Z" id="rect5627-3-8" stroke="#E3DEDB" stroke-width="0.61544573" fill="#E3DEDB"></path>
                        <path d="M208.781681,47.5534844 C234.812319,47.5534844 236.564466,51.301834 236.564466,54.1722591 C236.564466,57.0426694 234.812319,60.791019 208.781681,60.791019 C182.751037,60.791019 140.839794,57.0426694 140.839794,54.1722591 C140.839794,51.301834 182.751037,47.5534844 208.781681,47.5534844 L208.781681,47.5534844 Z" id="path5326-1" fill="#53CCB1"></path>
                        <rect id="rect5808" fill="#52CCB1" x="133.776229" y="51.1798463" width="20.1988485" height="11.9696877" rx="0.44564635"></rect>
                        <path d="M222.880179,51.5193115 C226.055084,51.5193115 228.628852,52.8879385 228.628852,54.5762254 C228.628852,56.2645124 226.055084,57.6331394 222.880179,57.6331394 C219.705274,57.6331394 217.131506,56.2645124 217.131506,54.5762254 C217.131506,52.8879385 219.705274,51.5193115 222.880179,51.5193115 L222.880179,51.5193115 L222.880179,51.5193115 Z" id="path5330-9" fill="#E3DEDB"></path>
                    </g>
                    <g id="g6170" transform="translate(391.812779, 0.643370)">
                        <path d="M83.9489076,16.3166489 L104.663434,16.3166489 C125.05389,16.3166489 141.469323,32.4515369 141.469323,46.1044558 C121.829767,45.2747061 57.6782608,46.0829014 47.1430194,46.1044558 C47.1430194,32.4515369 63.5584521,16.3166489 83.9489076,16.3166489 L83.9489076,16.3166489 Z" id="rect5627-9" fill="#52CCB1"></path>
                        <path d="M93.8928174,0.604080836 L95.9326643,0.604080836 C106.045204,0.604080836 113.157172,10.6593039 113.157172,17.4303964 C103.417039,17.0188903 81.8932101,17.4196925 76.6683097,17.4303964 C76.6683097,10.6593039 83.7802846,0.604080836 93.8928174,0.604080836 L93.8928174,0.604080836 Z" id="rect5627-3-87" stroke="#E3DEDB" stroke-width="0.72652739" fill="#52CCB1"></path>
                        <path d="M45.6700391,47.8611994 L143.061974,47.8611994 C144.638408,47.8611994 159.104112,62.5547494 159.104112,64.4142137 L159.104112,107.668912 C159.104112,109.528376 140.239548,124.221926 138.663114,124.221926 L50.0688994,124.221926 C48.4924652,124.221926 29.627901,109.528376 29.627901,107.668912 L29.627901,57.0827797 C29.627901,55.2233154 44.0936048,47.8611994 45.6700391,47.8611994 L45.6700391,47.8611994 Z" id="rect5332-9" fill="#52CCB1"></path>
                        <path d="M157.147044,66.2167567 C157.147044,66.2167567 166.094385,42.2773813 184.04892,40.7811676 C202.003448,39.2849612 215.46935,52.0027558 215.46935,52.0027558 L229.683358,56.4913896 L220.70609,66.2167567 L201.255341,54.1872225 C201.255341,54.1872225 193.026188,48.9504819 186.293234,51.1948024 C179.560286,53.4391157 171.331126,61.7281229 172.827332,69.2091768 C174.323546,76.6902381 179.560286,90.904239 169.834912,97.6371861 C160.109545,104.37014 157.835305,97.6371861 157.835305,97.6371861 L157.147044,66.2167567 Z" id="path6066" fill="#52CCB1"></path>
                        <path d="M0.0530575878,83.3682947 L0.0530575878,80.4856555 C0.0530575878,66.1949824 18.3369648,56.1445981 30.6491991,56.1445981 C29.9009236,69.9089989 30.6296975,100.325711 30.6491991,107.709352 C18.3369648,107.709352 0.0530575878,97.6589677 0.0530575878,83.3682947 L0.0530575878,83.3682947 Z" id="rect5627-3-871" fill="#52CCB1"></path>
                        <path d="M5.66384068,83.7773007 L5.66384068,81.7404597 C5.66384068,71.642839 18.5830371,64.5413554 27.2827146,64.5413554 C26.7539936,74.2671185 27.2689315,95.7592099 27.2827146,100.976405 C18.5830371,100.976405 5.66384068,93.8749214 5.66384068,83.7773007 L5.66384068,83.7773007 Z" id="rect5627-3-871-5" fill="#E3DEDB"></path>
                    </g>
                </g>
                <g id="layer2"></g>
            </g>
        </g>
    </g>
</svg>