<?xml version="1.0" encoding="UTF-8" standalone="no"?>
<svg width="16px" height="16px" viewBox="0 0 16 16" version="1.1" xmlns="http://www.w3.org/2000/svg" xmlns:xlink="http://www.w3.org/1999/xlink" xmlns:sketch="http://www.bohemiancoding.com/sketch/ns">
    <!-- Generator: Sketch 3.4.3 (16044) - http://www.bohemiancoding.com/sketch -->
    <title>favicon-16x16</title>
    <desc>Created with Sketch.</desc>
    <defs></defs>
    <g id="Page-1" stroke="none" stroke-width="1" fill="none" fill-rule="evenodd" sketch:type="MSPage">
        <g id="favicon-16x16" sketch:type="MSLayerGroup">
            <g id="logo-lg" sketch:type="MSShapeGroup">
                <path d="M8,16 C12.418278,16 16,12.418278 16,8 C16,3.581722 12.418278,0 8,0 C3.581722,0 0,3.581722 0,8 C0,12.418278 3.581722,16 8,16 Z" id="Oval-1" fill="#D1283E"></path>
                <path d="M8.99427649,8.1672652 C8.90538869,8.14302308 8.81852237,8.1268619 8.73367492,8.11878119 C8.64882748,8.11070048 8.56600145,8.10666019 8.48519436,8.10666019 C8.21853096,8.10666019 7.99429464,8.15514372 7.81247868,8.25211223 C7.63066273,8.34908074 7.48521214,8.46624926 7.37612257,8.60362132 C7.267033,8.74099337 7.18824726,8.89048425 7.13976301,9.05209843 C7.09127875,9.21371262 7.06703699,9.3551229 7.06703699,9.47633354 L7.06703699,12.5793103 L5.07919248,12.5793103 L5.07919248,6.54305078 C5.07919248,6.54305078 8.94579232,6.52688936 8.99427658,6.54305078 L8.99427649,8.1672652 Z" id="r" fill="#FFFFFF"></path>
                <path d="M11.6023123,4.88247335 C11.5295859,4.85823123 11.4447398,4.83802976 11.3477713,4.82186834 C11.2508028,4.80570692 11.1538357,4.79762633 11.0568672,4.79762633 C10.8710109,4.79762633 10.72152,4.82994868 10.6083901,4.89459436 C10.4952601,4.95924003 10.4063737,5.04610635 10.341728,5.15519592 C10.2770823,5.2642855 10.2326391,5.38751446 10.208397,5.52488652 C10.1841548,5.66225858 10.172034,5.79962857 10.172034,5.93700063 L10.172034,6.54305078 L11.5174653,6.54305078 L11.5174653,8.03393417 L10.172034,8.03393417 L10.172034,12.5793103 L8.18418945,12.5793103 L8.18418945,8.03393417 L7.08117816,8.03393417 L7.08117816,6.54305078 L8.18418945,6.54305078 L8.18418945,5.96124263 C8.18418945,5.58953001 8.22459239,5.23600429 8.30539948,4.90065486 C8.38620657,4.56530543 8.52559671,4.27036397 8.72357409,4.01582163 C8.92155146,3.76127929 9.18821086,3.55926459 9.52356029,3.40977147 C9.85890972,3.26027835 10.2770801,3.18553292 10.7780841,3.18553292 C10.947779,3.18553292 11.1154512,3.19563365 11.2811057,3.21583542 C11.4467603,3.2360372 11.5982713,3.2663394 11.7356434,3.30674295 L11.6023123,4.88247335 Z" id="f" fill="#FFFFFF"></path>
            </g>
        </g>
    </g>
</svg>