<?xml version="1.0" encoding="UTF-8" standalone="no"?>
<svg width="64px" height="64px" viewBox="0 0 64 64" version="1.1" xmlns="http://www.w3.org/2000/svg" xmlns:xlink="http://www.w3.org/1999/xlink" xmlns:sketch="http://www.bohemiancoding.com/sketch/ns">
    <!-- Generator: Sketch 3.4.3 (16044) - http://www.bohemiancoding.com/sketch -->
    <title>favicon-64x64</title>
    <desc>Created with Sketch.</desc>
    <defs></defs>
    <g id="Page-1" stroke="none" stroke-width="1" fill="none" fill-rule="evenodd" sketch:type="MSPage">
        <g id="favicon-64x64" sketch:type="MSLayerGroup">
            <g id="logo-lg" sketch:type="MSShapeGroup">
                <path d="M32,64 C49.673112,64 64,49.673112 64,32 C64,14.326888 49.673112,0 32,0 C14.326888,0 0,14.326888 0,32 C0,49.673112 14.326888,64 32,64 Z" id="Oval-1" fill="#D1283E"></path>
                <path d="M35.977106,32.6690608 C35.6215548,32.5720923 35.2740895,32.5074476 34.9346997,32.4751248 C34.5953099,32.4428019 34.2640058,32.4266408 33.9407774,32.4266408 C32.8741238,32.4266408 31.9771786,32.6205749 31.2499147,33.0084489 C30.5226509,33.3963229 29.9408486,33.864997 29.5044903,34.4144853 C29.068132,34.9639735 28.7529891,35.561937 28.559052,36.2083937 C28.365115,36.8548505 28.268148,37.4204916 28.268148,37.9053342 L28.268148,50.3172414 L20.3167699,50.3172414 L20.3167699,26.1722031 C20.3167699,26.1722031 35.7831693,26.1075574 35.9771063,26.1722031 L35.977106,32.6690608 Z" id="r" fill="#FFFFFF"></path>
                <path d="M46.4092493,19.5298934 C46.1183438,19.4329249 45.7789591,19.352119 45.3910851,19.2874734 C45.003211,19.2228277 44.6153428,19.1905053 44.2274688,19.1905053 C43.4840435,19.1905053 42.88608,19.3197947 42.4335603,19.5783774 C41.9810406,19.8369601 41.6254947,20.1844254 41.366912,20.6207837 C41.1083293,21.057142 40.9305564,21.5500579 40.8335879,22.0995461 C40.7366194,22.6490343 40.6881358,23.1985143 40.6881358,23.7480025 L40.6881358,26.1722031 L46.0698612,26.1722031 L46.0698612,32.1357367 L40.6881358,32.1357367 L40.6881358,50.3172414 L32.7367578,50.3172414 L32.7367578,32.1357367 L28.3247126,32.1357367 L28.3247126,26.1722031 L32.7367578,26.1722031 L32.7367578,23.8449705 C32.7367578,22.35812 32.8983695,20.9440172 33.2215979,19.6026194 C33.5448263,18.2612217 34.1023868,17.0814559 34.8942963,16.0632865 C35.6862058,15.0451172 36.7528434,14.2370584 38.0942412,13.6390859 C39.4356389,13.0411134 41.1083206,12.7421317 43.1123365,12.7421317 C43.791116,12.7421317 44.4618048,12.7825346 45.124423,12.8633417 C45.7870411,12.9441488 46.3930852,13.0653576 46.9425735,13.2269718 L46.4092493,19.5298934 Z" id="f" fill="#FFFFFF"></path>
            </g>
        </g>
    </g>
</svg>