<?xml version="1.0" encoding="UTF-8" standalone="no"?>
<svg width="32px" height="32px" viewBox="0 0 32 32" version="1.1" xmlns="http://www.w3.org/2000/svg" xmlns:xlink="http://www.w3.org/1999/xlink" xmlns:sketch="http://www.bohemiancoding.com/sketch/ns">
    <!-- Generator: Sketch 3.4.3 (16044) - http://www.bohemiancoding.com/sketch -->
    <title>favicon-32x32</title>
    <desc>Created with Sketch.</desc>
    <defs></defs>
    <g id="Page-1" stroke="none" stroke-width="1" fill="none" fill-rule="evenodd" sketch:type="MSPage">
        <g id="favicon-32x32" sketch:type="MSLayerGroup">
            <g id="logo-lg" sketch:type="MSShapeGroup">
                <path d="M16,32 C24.836556,32 32,24.836556 32,16 C32,7.163444 24.836556,0 16,0 C7.163444,0 0,7.163444 0,16 C0,24.836556 7.163444,32 16,32 Z" id="Oval-1" fill="#D1283E"></path>
                <path d="M17.988553,16.3345304 C17.8107774,16.2860462 17.6370447,16.2537238 17.4673498,16.2375624 C17.297655,16.221401 17.1320029,16.2133204 16.9703887,16.2133204 C16.4370619,16.2133204 15.9885893,16.3102874 15.6249574,16.5042245 C15.2613255,16.6981615 14.9704243,16.9324985 14.7522451,17.2072426 C14.534066,17.4819867 14.3764945,17.7809685 14.279526,18.1041969 C14.1825575,18.4274252 14.134074,18.7102458 14.134074,18.9526671 L14.134074,25.1586207 L10.158385,25.1586207 L10.158385,13.0861016 C10.158385,13.0861016 17.8915846,13.0537787 17.9885532,13.0861016 L17.988553,16.3345304 Z" id="r" fill="#FFFFFF"></path>
                <path d="M23.2046247,9.76494671 C23.0591719,9.71646245 22.8894795,9.67605951 22.6955425,9.64373668 C22.5016055,9.61141384 22.3076714,9.59525266 22.1137344,9.59525266 C21.7420218,9.59525266 21.44304,9.65989737 21.2167801,9.78918871 C20.9905203,9.91848006 20.8127474,10.0922127 20.683456,10.3103918 C20.5541647,10.528571 20.4652782,10.7750289 20.4167939,11.049773 C20.3683097,11.3245172 20.3440679,11.5992571 20.3440679,11.8740013 L20.3440679,13.0861016 L23.0349306,13.0861016 L23.0349306,16.0678683 L20.3440679,16.0678683 L20.3440679,25.1586207 L16.3683789,25.1586207 L16.3683789,16.0678683 L14.1623563,16.0678683 L14.1623563,13.0861016 L16.3683789,13.0861016 L16.3683789,11.9224853 C16.3683789,11.17906 16.4491848,10.4720086 16.610799,9.80130972 C16.7724131,9.13061086 17.0511934,8.54072794 17.4471482,8.03164326 C17.8431029,7.52255858 18.3764217,7.11852919 19.0471206,6.81954295 C19.7178194,6.52055671 20.5541603,6.37106583 21.5561682,6.37106583 C21.895558,6.37106583 22.2309024,6.3912673 22.5622115,6.43167085 C22.8935206,6.47207439 23.1965426,6.5326788 23.4712867,6.61348589 L23.2046247,9.76494671 Z" id="f" fill="#FFFFFF"></path>
            </g>
        </g>
    </g>
</svg>