<?xml version="1.0" encoding="UTF-8" standalone="no"?>
<svg width="145px" height="145px" viewBox="0 0 145 145" version="1.1" xmlns="http://www.w3.org/2000/svg" xmlns:xlink="http://www.w3.org/1999/xlink" xmlns:sketch="http://www.bohemiancoding.com/sketch/ns">
    <!-- Generator: Sketch 3.4.2 (15857) - http://www.bohemiancoding.com/sketch -->
    <title>logo-lg</title>
    <desc>Created with Sketch.</desc>
    <defs></defs>
    <g id="Page-1" stroke="none" stroke-width="1" fill="none" fill-rule="evenodd" sketch:type="MSPage">
        <g id="logo-lg" sketch:type="MSLayerGroup">
            <g sketch:type="MSShapeGroup">
                <path d="M72.5,145 C112.540644,145 145,112.540644 145,72.5 C145,32.4593556 112.540644,0 72.5,0 C32.4593556,0 0,32.4593556 0,72.5 C0,112.540644 32.4593556,145 72.5,145 Z" id="Oval-1" fill="#D1283E"></path>
                <path d="M81.5106307,74.0158409 C80.705085,73.7961466 79.917859,73.649686 79.148929,73.5764545 C78.379999,73.5032231 77.6293881,73.466608 76.8970739,73.466608 C74.4804368,73.466608 72.4482952,73.9059899 70.8005881,74.784767 C69.152881,75.6635442 67.8347351,76.7253839 66.8461108,77.9703182 C65.8574865,79.2152524 65.1434908,80.5700135 64.7041023,82.034642 C64.2647137,83.4992706 64.0450227,84.7808013 64.0450227,85.8792727 L64.0450227,114 L46.0301818,114 L46.0301818,59.2963977 C46.0301818,59.2963977 81.0712429,59.1499348 81.5106315,59.2963977 L81.5106307,74.0158409 Z" id="r" fill="#FFFFFF"></path>
                <path d="M105.145955,44.2474148 C104.486873,44.0277205 103.717954,43.8446447 102.839177,43.6981818 C101.9604,43.551719 101.081636,43.4784886 100.202859,43.4784886 C98.5185361,43.4784886 97.163775,43.7714099 96.138535,44.3572614 C95.1132951,44.9431128 94.3077615,45.7303388 93.72191,46.7189631 C93.1360586,47.7075873 92.7332918,48.8243498 92.5135975,50.0692841 C92.2939033,51.3142183 92.1840578,52.5591339 92.1840578,53.8040682 L92.1840578,59.2963977 L104.377029,59.2963977 L104.377029,72.8075284 L92.1840578,72.8075284 L92.1840578,114 L74.1692169,114 L74.1692169,72.8075284 L64.1731771,72.8075284 L64.1731771,59.2963977 L74.1692169,59.2963977 L74.1692169,54.0237614 C74.1692169,50.6551157 74.5353685,47.4512889 75.2676828,44.4121847 C75.999997,41.3730804 77.2632202,38.7001735 79.0573902,36.3933835 C80.8515601,34.0865936 83.2681609,32.2558354 86.3072652,30.901054 C89.3463694,29.5462726 93.1360389,28.868892 97.6763873,28.868892 C99.2142473,28.868892 100.733777,28.96043 102.235021,29.1435085 C103.736265,29.3265871 105.109334,29.6012008 106.354268,29.967358 L105.145955,44.2474148 Z" id="f" fill="#FFFFFF"></path>
            </g>
        </g>
    </g>
</svg>