<?xml version="1.0" encoding="UTF-8" standalone="no"?>
<svg width="73px" height="73px" viewBox="0 0 73 73" version="1.1" xmlns="http://www.w3.org/2000/svg" xmlns:xlink="http://www.w3.org/1999/xlink" xmlns:sketch="http://www.bohemiancoding.com/sketch/ns">
    <!-- Generator: Sketch 3.4.2 (15857) - http://www.bohemiancoding.com/sketch -->
    <title>logo-sm-lighter</title>
    <desc>Created with Sketch.</desc>
    <defs></defs>
    <g id="Page-1" stroke="none" stroke-width="1" fill="none" fill-rule="evenodd" sketch:type="MSPage">
        <g id="logo-sm-lighter" sketch:type="MSLayerGroup">
            <circle id="Oval-1" fill="#E05D6E" sketch:type="MSShapeGroup" cx="36.5" cy="36.5" r="36.5"></circle>
            <g id="r-+-f" transform="translate(23.158621, 14.096552)" fill="#0C0C0C" sketch:type="MSShapeGroup">
                <path d="M17.8777658,23.1665958 C17.4722152,23.0559911 17.0758876,22.9822557 16.6887711,22.9453875 C16.3016547,22.9085192 15.9237609,22.8900854 15.5550786,22.8900854 C14.3384268,22.8900854 13.3153486,23.1112915 12.4858133,23.5537103 C11.656278,23.9961291 10.9926597,24.5307105 10.4949385,25.1574705 C9.99721736,25.7842305 9.63775745,26.4662827 9.41654804,27.2036474 C9.19533863,27.9410121 9.08473558,28.5861965 9.08473558,29.1392201 L9.08473558,43.2965517 L0.0151949843,43.2965517 L0.0151949843,15.7561175 C0.0151949843,15.7561175 17.6565568,15.682381 17.8777662,15.7561175 L17.8777658,23.1665958 Z" id="r"></path>
                <path d="M29.7769293,8.17973295 C29.4451152,8.06912825 29.0580045,7.97695904 28.6155857,7.90322257 C28.1731669,7.8294861 27.7307547,7.79261842 27.2883359,7.79261842 C26.4403664,7.79261842 25.7583143,7.94008915 25.242159,8.23503503 C24.7260037,8.52998092 24.3204592,8.9263085 24.0255133,9.42402968 C23.7305674,9.92175086 23.5277952,10.483983 23.4171905,11.110743 C23.3065858,11.737503 23.2512843,12.3642536 23.2512843,12.9910136 L23.2512843,15.7561175 L29.3898148,15.7561175 L29.3898148,22.5582729 L23.2512843,22.5582729 L23.2512843,43.2965517 L14.1817437,43.2965517 L14.1817437,22.5582729 L9.14925467,22.5582729 L9.14925467,15.7561175 L14.1817437,15.7561175 L14.1817437,13.1016178 C14.1817437,11.405679 14.3660821,9.79271784 14.7347644,8.26268607 C15.1034468,6.73265429 15.7394143,5.38698388 16.6426861,4.22563446 C17.5459578,3.06428504 18.7625914,2.14259298 20.2926231,1.46053062 C21.8226549,0.778468266 23.7305575,0.437442202 26.0163881,0.437442202 C26.790621,0.437442202 27.5556255,0.483526805 28.3114243,0.575697394 C29.0672231,0.667867983 29.7584922,0.806121793 30.3852522,0.99046297 L29.7769293,8.17973295 Z" id="f"></path>
            </g>
        </g>
    </g>
</svg>