<?xml version="1.0" encoding="UTF-8" standalone="no"?>
<svg width="109px" height="109px" viewBox="0 0 109 109" version="1.1" xmlns="http://www.w3.org/2000/svg" xmlns:xlink="http://www.w3.org/1999/xlink" xmlns:sketch="http://www.bohemiancoding.com/sketch/ns">
    <!-- Generator: Sketch 3.4.2 (15857) - http://www.bohemiancoding.com/sketch -->
    <title>logo</title>
    <desc>Created with Sketch.</desc>
    <defs></defs>
    <g id="Page-1" stroke="none" stroke-width="1" fill="none" fill-rule="evenodd" sketch:type="MSPage">
        <g id="logo" sketch:type="MSLayerGroup">
            <g id="logo-lg" sketch:type="MSShapeGroup">
                <path d="M54.5,109 C84.5995189,109 109,84.5995189 109,54.5 C109,24.4004811 84.5995189,0 54.5,0 C24.4004811,0 0,24.4004811 0,54.5 C0,84.5995189 24.4004811,109 54.5,109 Z" id="Oval-1" fill="#D1283E"></path>
                <path d="M61.2735086,55.6394942 C60.6679604,55.4743447 60.0761836,55.3642467 59.4981604,55.3091969 C58.9201372,55.254147 58.3558849,55.2266225 57.8053866,55.2266225 C55.9887421,55.2266225 54.4611322,55.5569166 53.222511,56.2175145 C51.9838898,56.8781125 50.9930077,57.6763231 50.249835,58.6121702 C49.5066623,59.5480173 48.9699345,60.5664239 48.6396355,61.6674206 C48.3093365,62.7684172 48.1441895,63.7317748 48.1441895,64.5575223 L48.1441895,85.6965517 L34.6019987,85.6965517 L34.6019987,44.5745335 C34.6019987,44.5745335 60.9432102,44.4644338 61.2735092,44.5745334 L61.2735086,55.6394942 Z" id="r" fill="#FFFFFF"></path>
                <path d="M79.0407527,33.2618497 C78.5453043,33.0967002 77.9672897,32.9590777 77.3066917,32.8489781 C76.6460938,32.7388784 75.9855057,32.6838294 75.3249077,32.6838294 C74.0587616,32.6838294 73.040355,32.9040254 72.2696574,33.3444241 C71.4989597,33.7848227 70.8934207,34.3765995 70.453022,35.1197722 C70.0126234,35.862945 69.7098538,36.7024423 69.5447044,37.6382894 C69.3795549,38.5741365 69.2969814,39.5099696 69.2969814,40.4458168 L69.2969814,44.5745335 L78.4627324,44.5745335 L78.4627324,54.7311765 L69.2969814,54.7311765 L69.2969814,85.6965517 L55.7547906,85.6965517 L55.7547906,54.7311765 L48.2405262,54.7311765 L48.2405262,44.5745335 L55.7547906,44.5745335 L55.7547906,40.6109654 C55.7547906,38.0786732 56.0300356,35.6702792 56.5805339,33.3857112 C57.1310323,31.1011432 58.0806276,29.0918545 59.4293485,27.3577849 C60.7780693,25.6237152 62.5946865,24.24749 64.8792545,23.2290682 C67.1638225,22.2106463 70.0126085,21.701443 73.425698,21.701443 C74.5817445,21.701443 75.7240114,21.7702542 76.8525329,21.9078788 C77.9810544,22.0455034 79.0132233,22.2519372 79.9490704,22.5271863 L79.0407527,33.2618497 Z" id="f" fill="#FFFFFF"></path>
            </g>
        </g>
    </g>
</svg>