<?xml version="1.0" encoding="UTF-8" standalone="no"?>
<svg width="110px" height="109px" viewBox="0 0 110 109" version="1.1" xmlns="http://www.w3.org/2000/svg" xmlns:xlink="http://www.w3.org/1999/xlink" xmlns:sketch="http://www.bohemiancoding.com/sketch/ns">
    <!-- Generator: Sketch 3.4.2 (15857) - http://www.bohemiancoding.com/sketch -->
    <title>logo-dark</title>
    <desc>Created with Sketch.</desc>
    <defs></defs>
    <g id="Page-1" stroke="none" stroke-width="1" fill="none" fill-rule="evenodd" sketch:type="MSPage">
        <g id="logo-dark" sketch:type="MSLayerGroup">
            <g id="logo-lg-dark" sketch:type="MSShapeGroup">
                <path d="M55.2316995,109 C85.3993083,109 109.854987,84.5995189 109.854987,54.5 C109.854987,24.4004811 85.3993083,0 55.2316995,0 C25.0640907,0 0.608411815,24.4004811 0.608411815,54.5 C0.608411815,84.5995189 25.0640907,109 55.2316995,109 Z" id="Oval-1" fill="#3F3F3F"></path>
                <path d="M62.0205308,55.6394942 C61.4136128,55.4743447 60.8204973,55.3642467 60.2411665,55.3091969 C59.6618357,55.254147 59.096307,55.2266225 58.5445634,55.2266225 C56.7238094,55.2266225 55.1927438,55.5569166 53.9513206,56.2175145 C52.7098975,56.8781125 51.7167738,57.6763231 50.9719199,58.6121702 C50.2270661,59.5480173 49.6891241,60.5664239 49.3580779,61.6674206 C49.0270317,62.7684172 48.8615111,63.7317748 48.8615111,64.5575223 L48.8615111,85.6965517 L35.2886858,85.6965517 L35.2886858,44.5745335 C35.2886858,44.5745335 61.6894853,44.4644338 62.0205314,44.5745334 L62.0205308,55.6394942 Z" id="r" fill="#FFFFFF"></path>
                <path d="M79.6974914,33.2618497 C79.2009222,33.0967002 78.6216001,32.9590777 77.9595077,32.8489781 C77.2974154,32.7388784 76.6353329,32.6838294 75.9732406,32.6838294 C74.7042302,32.6838294 73.6835198,32.9040254 72.9110788,33.3444241 C72.1386377,33.7848227 71.5317288,34.3765995 71.0903339,35.1197722 C70.648939,35.862945 70.3454846,36.7024423 70.1799615,37.6382894 C70.0144384,38.5741365 69.9316781,39.5099696 69.9316781,40.4458168 L69.9316781,44.5745335 L79.1181635,44.5745335 L79.1181635,54.7311765 L69.9316781,54.7311765 L69.9316781,85.6965517 L56.3588527,85.6965517 L56.3588527,54.7311765 L48.8275899,54.7311765 L48.8275899,44.5745335 L56.3588527,44.5745335 L56.3588527,40.6109654 C56.3588527,38.0786732 56.6347204,35.6702792 57.186464,33.3857112 C57.7382077,31.1011432 58.6899511,29.0918545 60.041723,27.3577849 C61.3934949,25.6237152 63.2142216,24.24749 65.5039576,23.2290682 C67.7936937,22.2106463 70.6489241,21.701443 74.0697346,21.701443 C75.2283962,21.701443 76.3732471,21.7702542 77.5043215,21.9078788 C78.6353959,22.0455034 79.6698997,22.2519372 80.6078639,22.5271863 L79.6974914,33.2618497 Z" id="f" fill="#FFFFFF"></path>
            </g>
        </g>
    </g>
</svg>