<?xml version="1.0" encoding="UTF-8" standalone="no"?>
<svg width="109px" height="109px" viewBox="0 0 109 109" version="1.1" xmlns="http://www.w3.org/2000/svg" xmlns:xlink="http://www.w3.org/1999/xlink" xmlns:sketch="http://www.bohemiancoding.com/sketch/ns">
    <!-- Generator: Sketch 3.4.2 (15857) - http://www.bohemiancoding.com/sketch -->
    <title>logo-lighter</title>
    <desc>Created with Sketch.</desc>
    <defs></defs>
    <g id="Page-1" stroke="none" stroke-width="1" fill="none" fill-rule="evenodd" sketch:type="MSPage">
        <g id="logo-lighter" sketch:type="MSLayerGroup">
            <ellipse id="Oval-1" fill="#E05D6E" sketch:type="MSShapeGroup" cx="54.5" cy="54.5" rx="54.5" ry="54.5"></ellipse>
            <g id="r-+-f" transform="translate(34.579310, 21.048276)" fill="#0C0C0C" sketch:type="MSShapeGroup">
                <path d="M26.6941982,34.5912183 C26.0886501,34.4260688 25.4968733,34.3159708 24.9188501,34.260921 C24.3408268,34.2058712 23.7765745,34.1783467 23.2260762,34.1783467 C21.4094318,34.1783467 19.8818219,34.5086407 18.6432007,35.1692387 C17.4045795,35.8298366 16.4136974,36.6280472 15.6705247,37.5638944 C14.9273519,38.4997415 14.3906241,39.5181481 14.0603252,40.6191447 C13.7300262,41.7201413 13.5648792,42.6834989 13.5648792,43.5092464 L13.5648792,64.6482759 L0.0226884013,64.6482759 L0.0226884013,23.5262576 C0.0226884013,23.5262576 26.3638999,23.4161579 26.6941988,23.5262576 L26.6941982,34.5912183 Z" id="r"></path>
                <path d="M44.4614424,12.2135739 C43.9659939,12.0484244 43.3879794,11.9108019 42.7273814,11.8007022 C42.0667834,11.6906025 41.4061954,11.6355535 40.7455974,11.6355535 C39.4794513,11.6355535 38.4610447,11.8557495 37.690347,12.2961482 C36.9196494,12.7365468 36.3141103,13.3283237 35.8737117,14.0714964 C35.433313,14.8146691 35.1305435,15.6541664 34.965394,16.5900136 C34.8002445,17.5258607 34.717671,18.4616938 34.717671,19.3975409 L34.717671,23.5262576 L43.8834221,23.5262576 L43.8834221,33.6829007 L34.717671,33.6829007 L34.717671,64.6482759 L21.1754803,64.6482759 L21.1754803,33.6829007 L13.6612159,33.6829007 L13.6612159,23.5262576 L21.1754803,23.5262576 L21.1754803,19.5626896 C21.1754803,17.0303973 21.4507253,14.6220034 22.0012236,12.3374354 C22.5517219,10.0528674 23.5013173,8.04357867 24.8500381,6.30950899 C26.198759,4.57543931 28.0153762,3.19921418 30.2999441,2.1807923 C32.5845121,1.16237042 35.4332982,0.653167124 38.8463877,0.653167124 C40.0024342,0.653167124 41.144701,0.721978381 42.2732226,0.859602958 C43.4017441,0.997227536 44.4339129,1.20366131 45.3697601,1.47891046 L44.4614424,12.2135739 Z" id="f"></path>
            </g>
        </g>
    </g>
</svg>