<?xml version="1.0" encoding="UTF-8" standalone="no"?>
<svg width="73px" height="73px" viewBox="0 0 73 73" version="1.1" xmlns="http://www.w3.org/2000/svg" xmlns:xlink="http://www.w3.org/1999/xlink" xmlns:sketch="http://www.bohemiancoding.com/sketch/ns">
    <!-- Generator: Sketch 3.4.2 (15857) - http://www.bohemiancoding.com/sketch -->
    <title>logo-sm</title>
    <desc>Created with Sketch.</desc>
    <defs></defs>
    <g id="Page-1" stroke="none" stroke-width="1" fill="none" fill-rule="evenodd" sketch:type="MSPage">
        <g id="logo-sm" sketch:type="MSLayerGroup">
            <g id="logo-lg" sketch:type="MSShapeGroup">
                <path d="M36.5,73 C56.6583934,73 73,56.6583934 73,36.5 C73,16.3416066 56.6583934,0 36.5,0 C16.3416066,0 0,16.3416066 0,36.5 C0,56.6583934 16.3416066,73 36.5,73 Z" id="Oval-1" fill="#D1283E"></path>
                <path d="M41.0363865,37.2631475 C40.6308359,37.1525428 40.2345083,37.0788074 39.8473918,37.0419392 C39.4602754,37.0050709 39.0823816,36.9866371 38.7136993,36.9866371 C37.4970475,36.9866371 36.4739693,37.2078432 35.644434,37.650262 C34.8148987,38.0926809 34.1512804,38.6272623 33.6535592,39.2540223 C33.155838,39.8807823 32.7963781,40.5628344 32.5751687,41.3001991 C32.3539593,42.0375638 32.2433563,42.6827483 32.2433563,43.2357718 L32.2433563,57.3931034 L23.1738157,57.3931034 L23.1738157,29.8526692 C23.1738157,29.8526692 40.8151775,29.7789327 41.0363869,29.8526692 L41.0363865,37.2631475 Z" id="r" fill="#FFFFFF"></path>
                <path d="M52.93555,22.2762847 C52.6037359,22.16568 52.2166252,22.0735108 51.7742064,21.9997743 C51.3317876,21.9260378 50.8893754,21.8891701 50.4469566,21.8891701 C49.5989871,21.8891701 48.916935,22.0366409 48.4007797,22.3315868 C47.8846244,22.6265326 47.4790799,23.0228602 47.184134,23.5205814 C46.8891881,24.0183026 46.6864159,24.5805347 46.5758112,25.2072947 C46.4652065,25.8340548 46.4099049,26.4608054 46.4099049,27.0875654 L46.4099049,29.8526692 L52.5484355,29.8526692 L52.5484355,36.6548246 L46.4099049,36.6548246 L46.4099049,57.3931034 L37.3403643,57.3931034 L37.3403643,36.6548246 L32.3078754,36.6548246 L32.3078754,29.8526692 L37.3403643,29.8526692 L37.3403643,27.1981695 C37.3403643,25.5022307 37.5247028,23.8892696 37.8933851,22.3592378 C38.2620675,20.829206 38.898035,19.4835356 39.8013068,18.3221862 C40.7045785,17.1608368 41.9212121,16.2391447 43.4512438,15.5570823 C44.9812756,14.87502 46.8891782,14.5339939 49.1750088,14.5339939 C49.9492417,14.5339939 50.7142461,14.5800785 51.470045,14.6722491 C52.2258438,14.7644197 52.9171128,14.9026735 53.5438729,15.0870147 L52.93555,22.2762847 Z" id="f" fill="#FFFFFF"></path>
            </g>
        </g>
    </g>
</svg>