<?xml version="1.0" encoding="UTF-8" standalone="no"?>
<svg width="146px" height="145px" viewBox="0 0 146 145" version="1.1" xmlns="http://www.w3.org/2000/svg" xmlns:xlink="http://www.w3.org/1999/xlink" xmlns:sketch="http://www.bohemiancoding.com/sketch/ns">
    <!-- Generator: Sketch 3.4.2 (15857) - http://www.bohemiancoding.com/sketch -->
    <title>logo-lg-dark</title>
    <desc>Created with Sketch.</desc>
    <defs></defs>
    <g id="Page-1" stroke="none" stroke-width="1" fill="none" fill-rule="evenodd" sketch:type="MSPage">
        <g id="logo-lg-dark" sketch:type="MSLayerGroup">
            <g sketch:type="MSShapeGroup">
                <path d="M73.3075284,145 C113.348173,145 145.807528,112.540644 145.807528,72.5 C145.807528,32.4593556 113.348173,0 73.3075284,0 C33.266884,0 0.807528409,32.4593556 0.807528409,72.5 C0.807528409,112.540644 33.266884,145 73.3075284,145 Z" id="Oval-1" fill="#3F3F3F"></path>
                <path d="M82.3181591,74.0158409 C81.5126134,73.7961466 80.7253874,73.649686 79.9564574,73.5764545 C79.1875274,73.5032231 78.4369165,73.466608 77.7046023,73.466608 C75.2879652,73.466608 73.2558236,73.9059899 71.6081165,74.784767 C69.9604094,75.6635442 68.6422635,76.7253839 67.6536392,77.9703182 C66.6650149,79.2152524 65.9510192,80.5700135 65.5116307,82.034642 C65.0722421,83.4992706 64.8525511,84.7808013 64.8525511,85.8792727 L64.8525511,114 L46.8377102,114 L46.8377102,59.2963977 C46.8377102,59.2963977 81.8787713,59.1499348 82.3181599,59.2963977 L82.3181591,74.0158409 Z" id="r" fill="#FFFFFF"></path>
                <path d="M105.780307,44.2474148 C105.121224,44.0277205 104.352306,43.8446447 103.473528,43.6981818 C102.594751,43.551719 101.715987,43.4784886 100.83721,43.4784886 C99.1528874,43.4784886 97.7981263,43.7714099 96.7728864,44.3572614 C95.7476464,44.9431128 94.9421128,45.7303388 94.3562614,46.7189631 C93.7704099,47.7075873 93.3676431,48.8243498 93.1479489,50.0692841 C92.9282546,51.3142183 92.8184091,52.5591339 92.8184091,53.8040682 L92.8184091,59.2963977 L105.011381,59.2963977 L105.011381,72.8075284 L92.8184091,72.8075284 L92.8184091,114 L74.8035682,114 L74.8035682,72.8075284 L64.8075284,72.8075284 L64.8075284,59.2963977 L74.8035682,59.2963977 L74.8035682,54.0237614 C74.8035682,50.6551157 75.1697198,47.4512889 75.9020341,44.4121847 C76.6343484,41.3730804 77.8975715,38.7001735 79.6917415,36.3933835 C81.4859114,34.0865936 83.9025123,32.2558354 86.9416165,30.901054 C89.9807207,29.5462726 93.7703902,28.868892 98.3107386,28.868892 C99.8485986,28.868892 101.368128,28.96043 102.869372,29.1435085 C104.370616,29.3265871 105.743685,29.6012008 106.988619,29.967358 L105.780307,44.2474148 Z" id="f" fill="#FFFFFF"></path>
            </g>
        </g>
    </g>
</svg>