<?xml version="1.0" encoding="UTF-8" standalone="no"?>
<svg width="145px" height="145px" viewBox="0 0 145 145" version="1.1" xmlns="http://www.w3.org/2000/svg" xmlns:xlink="http://www.w3.org/1999/xlink" xmlns:sketch="http://www.bohemiancoding.com/sketch/ns">
    <!-- Generator: Sketch 3.4.2 (15857) - http://www.bohemiancoding.com/sketch -->
    <title>logo-lg-light</title>
    <desc>Created with Sketch.</desc>
    <defs></defs>
    <g id="Page-1" stroke="none" stroke-width="1" fill="none" fill-rule="evenodd" sketch:type="MSPage">
        <g id="logo-lg-light" sketch:type="MSLayerGroup">
            <g sketch:type="MSShapeGroup">
                <circle id="Oval-1" fill="#D8D8D8" cx="72.5" cy="72.5" r="72.5"></circle>
                <g id="r-+-f" transform="translate(46.000000, 28.000000)" fill="#0C0C0C">
                    <path d="M35.5106307,46.0158409 C34.705085,45.7961466 33.917859,45.649686 33.148929,45.5764545 C32.379999,45.5032231 31.6293881,45.466608 30.8970739,45.466608 C28.4804368,45.466608 26.4482952,45.9059899 24.8005881,46.784767 C23.152881,47.6635442 21.8347351,48.7253839 20.8461108,49.9703182 C19.8574865,51.2152524 19.1434908,52.5700135 18.7041023,54.034642 C18.2647137,55.4992706 18.0450227,56.7808013 18.0450227,57.8792727 L18.0450227,86 L0.0301818182,86 L0.0301818182,31.2963977 C0.0301818182,31.2963977 37.5977207,31.1499349 38.0371093,31.2963977" id="r"></path>
                    <path d="M59.1459555,16.2474148 C58.4868727,16.0277205 57.7179542,15.8446447 56.8391771,15.6981818 C55.9604,15.551719 55.081636,15.4784886 54.2028589,15.4784886 C52.5185361,15.4784886 51.163775,15.7714099 50.138535,16.3572614 C49.1132951,16.9431128 48.3077615,17.7303388 47.72191,18.7189631 C47.1360586,19.7075873 46.7332918,20.8243498 46.5135975,22.0692841 C46.2939033,23.3142183 46.1840578,24.5591339 46.1840578,25.8040682 L46.1840578,31.2963977 L58.3770294,31.2963977 L58.3770294,44.8075284 L46.1840578,44.8075284 L46.1840578,86 L28.1692169,86 L28.1692169,44.8075284 L18.1731771,44.8075284 L18.1731771,31.2963977 L28.1692169,31.2963977 L28.1692169,26.0237614 C28.1692169,22.6551157 28.5353685,19.4512889 29.2676828,16.4121847 C29.999997,13.3730804 31.2632202,10.7001735 33.0573902,8.39338352 C34.8515601,6.08659358 37.2681609,4.25583537 40.3072652,2.90105398 C43.3463694,1.54627258 47.1360389,0.868892045 51.6763873,0.868892045 C53.2142473,0.868892045 54.7337766,0.960429956 56.2350208,1.14350852 C57.7362651,1.32658709 59.1093337,1.60120082 60.354268,1.96735795 L59.1459555,16.2474148 Z" id="f"></path>
                </g>
            </g>
        </g>
    </g>
</svg>