<?xml version="1.0" encoding="UTF-8" standalone="no"?>
<svg width="772px" height="574px" viewBox="0 0 772 574" version="1.1" xmlns="http://www.w3.org/2000/svg" xmlns:xlink="http://www.w3.org/1999/xlink" xmlns:sketch="http://www.bohemiancoding.com/sketch/ns">
    <!-- Generator: Sketch 3.4.3 (16044) - http://www.bohemiancoding.com/sketch -->
    <title>web-design</title>
    <desc>Created with Sketch.</desc>
    <defs></defs>
    <g id="Page-1" stroke="none" stroke-width="1" fill="none" fill-rule="evenodd" sketch:type="MSPage">
        <g id="web-design" sketch:type="MSLayerGroup">
            <g id="Group" sketch:type="MSShapeGroup">
                <g id="Page-1">
                    <g id="Group">
                        <rect id="Rectangle-12" fill="#3F3F3F" x="0" y="0" width="771.744457" height="573.204389"></rect>
                        <rect id="Rectangle-2" fill="#FFFFFF" x="14.7944251" y="92.8013937" width="429.102726" height="288.203324" rx="8"></rect>
                        <rect id="Rectangle-2" fill="#3F3F3F" x="57.8327526" y="121.045296" width="342.64173" height="230.562659" rx="6.4"></rect>
                        <path d="M131.773524,439.386635 C132.915966,436.642599 136.24419,434.418118 139.221903,434.418118 L318.445727,434.418118 C321.41691,434.418118 324.751242,436.641585 325.894105,439.386635 L338.422171,469.477842 C339.564613,472.221877 338.077787,474.446357 335.108746,474.446357 L122.558883,474.446357 C119.586487,474.446357 118.102594,472.222893 119.245459,469.477842 L131.773524,439.386635 L131.773524,439.386635 Z" id="Rectangle-2" fill="#FFFFFF"></path>
                        <rect id="Rectangle-5" fill="#FFFFFF" x="190.982578" y="378.122512" width="81.6576084" height="85.5642359"></rect>
                        <g id="dog-head" transform="translate(150.634146, 139.106213)">
                            <g id="Slice-1">
                                <g id="Page-1">
                                    <g id="Group">
                                        <path d="M144.314198,155.527989 C144.314198,167.859294 125.040966,195.33157 112.662224,195.33157 L45.7543385,195.33157 C33.3755963,195.33157 14.1023646,167.859294 14.1023646,155.527989 L19.7433105,80.2914163 C19.7433105,67.9601109 35.2559115,53.2874184 47.6346537,53.2874184 L110.938602,53.2874184 C123.317344,53.2874184 138.829945,68.1162034 138.829945,80.2914163 L144.314198,155.527989 L144.314198,155.527989 L144.314198,155.527989 L144.314198,155.527989 Z" id="Shape" fill="#CCCCCC"></path>
                                        <path d="M160.923649,4.58656629 C160.923649,4.58656629 159.981924,70.7697754 154.342547,78.5743991 C148.703167,86.3790228 129.428368,43.6096849 103.103955,42.5170376 C76.7795406,41.5804827 151.051995,-2.59368753 160.923649,4.58656629 L160.923649,4.58656629 L160.923649,4.58656629 L160.923649,4.58656629 Z" id="Shape" fill="#CCCCCC"></path>
                                        <path d="M154.812625,15.669132 C154.812625,15.669132 153.089003,54.3800656 149.798451,59.0628398 C146.507899,63.7456141 136.009472,36.8977085 120.185052,36.2733386 C104.357498,35.6489687 149.014987,11.2985427 154.812625,15.669132 L154.812625,15.669132 L154.812625,15.669132 L154.812625,15.669132 Z" id="Shape" fill="#000000"></path>
                                        <ellipse id="Oval" fill="#000000" cx="79.1299348" cy="159.118116" rx="32.5921315" ry="17.3262647"></ellipse>
                                        <path d="M95.5826935,125.870419 L126.921281,125.870419" id="Shape" stroke="#000000" stroke-width="3"></path>
                                        <path d="M31.338588,125.870419 L62.6771759,125.870419" id="Shape" stroke="#000000" stroke-width="3"></path>
                                        <path d="M0.7834647,0.996439377 C0.7834647,0.996439377 1.72362234,67.1796485 7.36456819,74.9842722 C13.005514,82.788896 32.2787456,40.019558 58.6031595,38.9269107 C84.9275735,37.8342633 10.498427,-6.33990691 0.7834647,0.996439377 L0.7834647,0.996439377 L0.7834647,0.996439377 L0.7834647,0.996439377 Z" id="Shape" fill="#CCCCCC"></path>
                                        <path d="M6.73779642,11.9229126 C6.73779642,11.9229126 8.46141877,50.6338463 11.7519705,55.3166205 C15.0425222,59.9993947 25.5409493,33.1514891 41.3669362,32.5271192 C57.349616,31.9027494 12.6921281,7.55232331 6.73779642,11.9229126 L6.73779642,11.9229126 L6.73779642,11.9229126 L6.73779642,11.9229126 Z" id="Shape" fill="#000000"></path>
                                        <path d="M125.354352,206.258043 C125.354352,209.692078 122.533879,212.501742 119.086634,212.501742 L37.6063055,212.501742 C34.159061,212.501742 31.338588,209.692078 31.338588,206.258043 L31.338588,206.258043 C31.338588,202.824009 34.159061,200.014344 37.6063055,200.014344 L119.086634,200.014344 C122.533879,200.014344 125.354352,202.824009 125.354352,206.258043 L125.354352,206.258043 L125.354352,206.258043 L125.354352,206.258043 L125.354352,206.258043 Z" id="Shape" fill="#E05D6E"></path>
                                    </g>
                                </g>
                            </g>
                        </g>
                        <rect id="Rectangle-18" fill="#FFFFFF" x="649.609756" y="316.062718" width="91.456446" height="158.703833" rx="8"></rect>
                        <rect id="Rectangle-18" fill="#3F3F3F" x="656.334495" y="322.787456" width="78.0069686" height="131.804878" rx="8"></rect>
                        <rect id="Rectangle-10" fill="#3F3F3F" x="684.578397" y="457.28223" width="20.8146846" height="12.8090366" rx="8"></rect>
                        <g id="dog-head" transform="translate(659.024390, 357.756098)">
                            <g id="Slice-1">
                                <g id="Page-1">
                                    <g id="Group">
                                        <path d="M64.941389,71.0368015 C64.941389,76.620789 56.2684348,89.0610646 50.6980007,89.0610646 L20.5894524,89.0610646 C15.0190183,89.0610646 6.34606407,76.620789 6.34606407,71.0368015 L8.8844897,36.9674102 C8.8844897,31.3834228 15.8651602,24.7391846 21.4355942,24.7391846 L49.9223707,24.7391846 C55.4928047,24.7391846 62.4734751,31.4541061 62.4734751,36.9674102 L64.941389,71.0368015 L64.941389,71.0368015 L64.941389,71.0368015 L64.941389,71.0368015 Z" id="Shape" fill="#CCCCCC"></path>
                                        <path d="M72.4156422,2.68596861 C72.4156422,2.68596861 71.9918662,32.6557237 69.4541457,36.1898929 C66.9164251,39.7240621 58.2427658,20.3568147 46.3967796,19.8620311 C34.5507933,19.4379307 67.9733973,-0.565467077 72.4156422,2.68596861 L72.4156422,2.68596861 L72.4156422,2.68596861 L72.4156422,2.68596861 Z" id="Shape" fill="#CCCCCC"></path>
                                        <path d="M69.6656812,7.70448892 C69.6656812,7.70448892 68.890051,25.2339683 67.4093027,27.3544698 C65.9285545,29.4749714 61.2042624,17.3174292 54.0832734,17.0346957 C46.9608742,16.7519622 67.0567436,5.72535416 69.6656812,7.70448892 L69.6656812,7.70448892 L69.6656812,7.70448892 L69.6656812,7.70448892 Z" id="Shape" fill="#000000"></path>
                                        <ellipse id="Oval" fill="#000000" cx="35.6084707" cy="72.6625194" rx="14.6664592" ry="7.84585569"></ellipse>
                                        <path d="M43.012212,57.6069585 L57.1145766,57.6069585" id="Shape" stroke="#000000" stroke-width="1.8"></path>
                                        <path d="M14.1023646,57.6069585 L28.2047292,57.6069585" id="Shape" stroke="#000000" stroke-width="1.8"></path>
                                        <path d="M0.352559115,1.06025077 C0.352559115,1.06025077 0.775630053,31.0300058 3.31405568,34.5641751 C5.85248131,38.0983443 14.5254355,18.7310969 26.3714218,18.2363132 C38.2174081,17.7415296 4.72429214,-2.2618683 0.352559115,1.06025077 L0.352559115,1.06025077 L0.352559115,1.06025077 L0.352559115,1.06025077 Z" id="Shape" fill="#CCCCCC"></path>
                                        <path d="M3.03200839,6.00808769 C3.03200839,6.00808769 3.80763844,23.537567 5.28838672,25.6580687 C6.76913501,27.7785702 11.4934272,15.6210279 18.6151213,15.3382945 C25.8073272,15.0555609 5.71145766,4.02895293 3.03200839,6.00808769 L3.03200839,6.00808769 L3.03200839,6.00808769 L3.03200839,6.00808769 Z" id="Shape" fill="#000000"></path>
                                        <path d="M56.4094584,94.0089015 C56.4094584,95.563936 55.1402457,96.8362369 53.5889855,96.8362369 L16.9228376,96.8362369 C15.3715774,96.8362369 14.1023646,95.563936 14.1023646,94.0089015 L14.1023646,94.0089015 C14.1023646,92.453867 15.3715774,91.1815661 16.9228376,91.1815661 L53.5889855,91.1815661 C55.1402457,91.1815661 56.4094584,92.453867 56.4094584,94.0089015 L56.4094584,94.0089015 L56.4094584,94.0089015 L56.4094584,94.0089015 L56.4094584,94.0089015 Z" id="Shape" fill="#E05D6E"></path>
                                    </g>
                                </g>
                            </g>
                        </g>
                        <rect id="Rectangle-19" fill="#FFFFFF" x="458.627178" y="216.536585" width="165.428571" height="258.229965" rx="8"></rect>
                        <rect id="Rectangle-19" fill="#3F3F3F" x="472.076655" y="243.43554" width="137.184669" height="199.052265" rx="6"></rect>
                        <ellipse id="Oval-13" fill="#3F3F3F" cx="541.661698" cy="456.929991" rx="10.4073423" ry="10.4073423"></ellipse>
                        <g id="dog-head" transform="translate(482.836237, 289.231010)">
                            <g id="Slice-1">
                                <g id="Page-1">
                                    <g id="Group">
                                        <path d="M103.425175,112.425605 C103.425175,121.26304 89.6126924,140.951504 80.7412604,140.951504 L32.7906092,140.951504 C23.9191773,140.951504 10.1066946,121.26304 10.1066946,112.425605 L14.1493724,58.5060609 C14.1493724,49.6686253 25.2667366,39.1531957 34.1381686,39.1531957 L79.5059978,39.1531957 C88.3774297,39.1531957 99.4947938,49.7804916 99.4947938,58.5060609 L103.425175,112.425605 L103.425175,112.425605 L103.425175,112.425605 L103.425175,112.425605 Z" id="Shape" fill="#CCCCCC"></path>
                                        <path d="M115.328615,4.25091838 C115.328615,4.25091838 114.653713,51.6822183 110.612158,57.2755319 C106.570603,62.8688457 92.7569974,32.2174868 73.8911674,31.4344228 C55.0253375,30.7632252 108.253929,-0.894930187 115.328615,4.25091838 L115.328615,4.25091838 L115.328615,4.25091838 L115.328615,4.25091838 Z" id="Shape" fill="#CCCCCC"></path>
                                        <path d="M110.949048,12.1934238 C110.949048,12.1934238 109.713785,39.9362595 107.355556,43.2922477 C104.997328,46.648236 97.4734549,27.4072369 86.1326206,26.9597719 C74.7895403,26.5123067 106.794073,9.06116814 110.949048,12.1934238 L110.949048,12.1934238 L110.949048,12.1934238 L110.949048,12.1934238 Z" id="Shape" fill="#000000"></path>
                                        <ellipse id="Oval" fill="#000000" cx="56.7097865" cy="114.998529" rx="23.3576943" ry="12.4171563"></ellipse>
                                        <path d="M68.5009302,91.1710127 L90.9602517,91.1710127" id="Shape" stroke="#000000" stroke-width="3"></path>
                                        <path d="M22.4593214,91.1710127 L44.9186429,91.1710127" id="Shape" stroke="#000000" stroke-width="3"></path>
                                        <path d="M0.561483035,1.6779941 C0.561483035,1.6779941 1.23526268,49.109294 5.27794052,54.7026076 C9.32061839,60.2959214 23.133101,29.6445625 41.9989311,28.8614985 C60.864761,28.0784346 7.52387267,-3.57972075 0.561483035,1.6779941 L0.561483035,1.6779941 L0.561483035,1.6779941 L0.561483035,1.6779941 Z" id="Shape" fill="#CCCCCC"></path>
                                        <path d="M4.8287541,9.50863323 C4.8287541,9.50863323 6.06401677,37.2514691 8.42224552,40.6074572 C10.7804743,43.9634454 18.3043469,24.7224464 29.6463042,24.2749813 C41.1005582,23.8275163 9.09602517,6.37637758 4.8287541,9.50863323 L4.8287541,9.50863323 L4.8287541,9.50863323 L4.8287541,9.50863323 Z" id="Shape" fill="#000000"></path>
                                        <path d="M89.8372856,148.782144 C89.8372856,151.243202 87.8159467,153.256794 85.3454214,153.256794 L26.9511857,153.256794 C24.4806603,153.256794 22.4593214,151.243202 22.4593214,148.782144 L22.4593214,148.782144 C22.4593214,146.321086 24.4806603,144.307492 26.9511857,144.307492 L85.3454214,144.307492 C87.8159467,144.307492 89.8372856,146.321086 89.8372856,148.782144 L89.8372856,148.782144 L89.8372856,148.782144 L89.8372856,148.782144 L89.8372856,148.782144 Z" id="Shape" fill="#E05D6E"></path>
                                    </g>
                                </g>
                            </g>
                        </g>
                    </g>
                </g>
            </g>
        </g>
    </g>
</svg>