<?xml version="1.0" encoding="utf-8"?>
<!-- Generator: Adobe Illustrator 16.0.0, SVG Export Plug-In . SVG Version: 6.00 Build 0)  -->
<!DOCTYPE svg PUBLIC "-//W3C//DTD SVG 1.1//EN" "http://www.w3.org/Graphics/SVG/1.1/DTD/svg11.dtd">
<svg version="1.1" id="Layer_1" xmlns="http://www.w3.org/2000/svg" xmlns:xlink="http://www.w3.org/1999/xlink" x="0px" y="0px"
	 width="275px" height="289px" viewBox="0 0 275 289" style="enable-background:new 0 0 275 289;" xml:space="preserve">
<style type="text/css">
<![CDATA[
	.st0{fill:#E05D6E;}
	.st1{fill:none;stroke:#4D4D4D;stroke-miterlimit:10;}
	.st2{fill:#CCCCCC;stroke:#000000;stroke-width:3;stroke-miterlimit:10;}
	.st3{fill:#CCCCCC;}
	.st4{stroke:#000000;stroke-miterlimit:10;}
	.st5{fill:#CCCCCC;stroke:#000000;stroke-miterlimit:10;}
]]>
</style>
<g>
	<path class="st4" d="M89.5,278.5c0,6.4-10.3,0-22.9,0s-22.9,6.3-22.9,0c0-6.4,10.3-17.8,22.9-17.8S89.5,272.1,89.5,278.5z"/>
	<path class="st4" d="M138.2,278.5c0,6.4-10.3,0-22.9,0c-12.7,0-22.9,6.3-22.9,0c0-6.4,10.3-17.8,22.9-17.8
		C127.9,260.7,138.2,272.1,138.2,278.5z"/>
	<path class="st1" d="M96.1,269c0-25.8,18.8-46.7,42.1-46.7"/>
	<g>
		<path class="st3" d="M157.2,255c0,0,19.8,1.1,26-42.6c6.2-43.7-14.6-69.7,17.7-99.8c32.2-30.2,70.7,0,62.4,13.5s-18.7,11.4-27-1
			c-8.3-12.5-21.8-22.9-31.2,8.3c-9.4,31.2,5.3,38.5,5.8,75.9s-60.9,56-53.6,52.9S128,277.9,157.2,255z"/>
		<path class="st3" d="M95.4,99.3c0,0,15.5,37.8,23.1,51.4c7.6,13.5,43.8,24,41.9,75.9c-2.1,58.2-67.7,53-67.7,53
			c-26.6-1-77.9-8.7-43.3-53c23.2-29.7-14.9-37.4-23.7-66.6c-8.8-29.1,37.9-53,37.9-53s-1.6-4.2,6.5-10.4
			C78.3,90.4,78.2,82.3,95.4,99.3z"/>
		<path class="st3" d="M112.9,66.6c6.9-6.5-1.2-22.5-10.4-32.1C92.3,23.7,79.6,14.3,65.8,14.3c-13.9,0-26.4,9-36.6,19.8
			c-9,9.4-17.1,24.1-10.9,31.2c13.2,15.3,21.2,36.4,47.3,36.4C91.7,101.7,100.1,78.7,112.9,66.6z"/>
		<path class="st3" d="M3.3,10.3c0,0,5.2,34.9,9.2,38.3c4,3.4,11.9-24,25.5-28.2C51.6,16.2,7.4,5.1,3.3,10.3z"/>
		<line class="st2" x1="43.3" y1="57.4" x2="56.7" y2="70.5"/>
		<line class="st2" x1="89.9" y1="57.4" x2="76.6" y2="70.5"/>
		<path d="M7.9,15.3c0,0,3.1,21,5.5,23c2.4,2,7.2-14.4,15.3-16.9C36.9,18.8,10.4,12.1,7.9,15.3z"/>
		<path class="st3" d="M127.6,10.3c0,0-5.2,34.9-9.2,38.3s-11.9-24-25.5-28.2C79.3,16.2,123.5,5.1,127.6,10.3z"/>
		<path d="M123,15.3c0,0-3.1,21-5.5,23c-2.4,2-7.2-14.4-15.3-16.9C94,18.8,120.5,12.1,123,15.3z"/>
		<path class="st1" d="M88,274.5c-0.9-33.2-5.4-60-10.1-59.8"/>
		<circle class="st0" cx="38.4" cy="73.6" r="9.3"/>
		<path class="st5" d="M7.1,69.9c0,0,31.6-1.1,37.3,7.3"/>
		<path class="st5" d="M8.5,88c0,0,28.4-13.8,37.1-8.5"/>
		<path class="st5" d="M44.5,83.1c0,0-24.5,13.5-29.6,21.3"/>
		<circle class="st0" cx="92.2" cy="73.6" r="9.3"/>
		<ellipse class="st4" cx="66.4" cy="87.7" rx="28" ry="14"/>
		<path class="st5" d="M122.4,69.9c0,0-31.6-1.1-37.3,7.3"/>
		<path class="st5" d="M121,89.3c0,0-28.4-13.8-37.1-8.5"/>
		<path class="st5" d="M85,84.4c0,0,24.5,13.5,29.6,21.3"/>
	</g>
</g>
</svg>
