<?xml version="1.0" encoding="utf-8"?>
<!-- Generator: Adobe Illustrator 16.0.0, SVG Export Plug-In . SVG Version: 6.00 Build 0)  -->
<!DOCTYPE svg PUBLIC "-//W3C//DTD SVG 1.1//EN" "http://www.w3.org/Graphics/SVG/1.1/DTD/svg11.dtd">
<svg version="1.1" id="Layer_1" xmlns="http://www.w3.org/2000/svg" xmlns:xlink="http://www.w3.org/1999/xlink" x="0px" y="0px"
	 width="50px" height="50px" viewBox="0 0 50 50" style="enable-background:new 0 0 50 50;" xml:space="preserve">
<style type="text/css">
<![CDATA[
	.st0{fill:#E05D6E;}
	.st1{fill:#CCCCCC;}
]]>
</style>
<g>
	<rect x="19" y="26" class="st0" width="10" height="9"/>
	<path class="st0" d="M48,30c0,1.5-1,2-2.5,2H4c-1.5,0-2-0.5-2-2V7.5C2,6,2.5,5,4,5h41.5C47,5,48,5.3,48,6.8V30z"/>
	<rect x="3" y="7" class="st1" width="44" height="23"/>
	<path class="st0" d="M34,35.5c0,0.6-0.5,1.5-1,1.5H16.8c-0.4,0-0.8-0.9-0.8-1.5v-0.1c0-0.6,0.3-0.4,0.8-0.4H33
		C33.5,35,34,34.8,34,35.5L34,35.5z"/>
	<path class="st0" d="M46.9,44.4c0,1.5-1.2,2.6-2.7,2.6H5.4c-1.5,0-2.7-1.1-2.7-2.6l1.1-4.6C3.8,38.3,5,37,6.5,37h36.5
		c1.5,0,2.7,1.3,2.7,2.8L46.9,44.4z"/>
	<path class="st1" d="M43.8,39.5c0,0.3-1.1,0.5-2.4,0.5H7.8c-1.3,0-2.4-0.1-2.4-0.5l1-1c0-0.3,1.1-0.6,2.4-0.6h31.7
		c1.3,0,2.3,0.3,2.3,0.6L43.8,39.5z"/>
	<path class="st1" d="M43.8,42.6c0,0.3-1.1,0.4-2.4,0.4H7.8c-1.3,0-2.4-0.1-2.4-0.4l1-1.5c0-0.3,1.1-1.1,2.4-1.1h31.7
		c1.3,0,2.3,0.8,2.3,1.1L43.8,42.6z"/>
	<path class="st1" d="M43.8,45.6c0,0.3-1.1,0.4-2.4,0.4H7.8c-1.3,0-2.4-0.1-2.4-0.4l1-1c0-0.3,1.1-0.6,2.4-0.6h31.7
		c1.3,0,2.3,0.3,2.3,0.6L43.8,45.6z"/>
</g>
</svg>
