<?xml version="1.0" encoding="utf-8"?>
<!-- Generator: Adobe Illustrator 16.0.0, SVG Export Plug-In . SVG Version: 6.00 Build 0)  -->
<!DOCTYPE svg PUBLIC "-//W3C//DTD SVG 1.1//EN" "http://www.w3.org/Graphics/SVG/1.1/DTD/svg11.dtd">
<svg version="1.1" id="Layer_1" xmlns="http://www.w3.org/2000/svg" xmlns:xlink="http://www.w3.org/1999/xlink" x="0px" y="0px"
	 width="50px" height="50px" viewBox="0 0 50 50" enable-background="new 0 0 50 50" xml:space="preserve">
<g>
	<ellipse fill="#CCCCCC" cx="25.4" cy="28.7" rx="15.5" ry="18.3"/>
	<path fill="#E05D6E" d="M40.2,40.8c0,3.4-3.8,6.2-7.2,6.2H17.6c-3.4,0-7.2-2.8-7.2-6.2L7.8,31.9c0-3.4-0.3-5.9,3.1-5.9h28.7
		c3.4,0,3.101,2.5,3.101,5.9L40.2,40.8z"/>
	<circle fill="#E05D6E" cx="25.3" cy="10.5" r="4.2"/>
	<path fill="none" stroke="#E05D6E" stroke-width="3" stroke-miterlimit="10" d="M25.4,8.1c0-2.7,2.8-4.9,6.3-4.9"/>
	<g>
		<line fill="none" stroke="#CCCCCC" stroke-width="3" stroke-miterlimit="10" x1="8.4" y1="33.5" x2="17.4" y2="27.4"/>
		<line fill="none" stroke="#CCCCCC" stroke-width="3" stroke-miterlimit="10" x1="25.8" y1="33.5" x2="17.4" y2="27.4"/>
		<line fill="none" stroke="#CCCCCC" stroke-width="3" stroke-miterlimit="10" x1="24.8" y1="33.5" x2="33.7" y2="27.4"/>
		<line fill="none" stroke="#CCCCCC" stroke-width="3" stroke-miterlimit="10" x1="42.2" y1="33.5" x2="33.7" y2="27.4"/>
	</g>
	<g>
		<line fill="none" stroke="#CCCCCC" stroke-width="3" stroke-miterlimit="10" x1="10.2" y1="41.2" x2="18.2" y2="35.1"/>
		<line fill="none" stroke="#CCCCCC" stroke-width="3" stroke-miterlimit="10" x1="25.7" y1="41.2" x2="18.2" y2="35.1"/>
		<line fill="none" stroke="#CCCCCC" stroke-width="3" stroke-miterlimit="10" x1="24.8" y1="41.2" x2="32.7" y2="35.1"/>
		<line fill="none" stroke="#CCCCCC" stroke-width="3" stroke-miterlimit="10" x1="40.2" y1="41.2" x2="32.7" y2="35.1"/>
	</g>
</g>
</svg>
