<?xml version="1.0" encoding="utf-8"?>
<!-- Generator: Adobe Illustrator 16.0.0, SVG Export Plug-In . SVG Version: 6.00 Build 0)  -->
<!DOCTYPE svg PUBLIC "-//W3C//DTD SVG 1.1//EN" "http://www.w3.org/Graphics/SVG/1.1/DTD/svg11.dtd">
<svg version="1.1" id="Layer_1" xmlns="http://www.w3.org/2000/svg" xmlns:xlink="http://www.w3.org/1999/xlink" x="0px" y="0px"
	 width="275px" height="289px" viewBox="0 0 275 289" enable-background="new 0 0 275 289" xml:space="preserve">
<g>
	<path fill="none" stroke="#4D4D4D" stroke-miterlimit="10" d="M133.4,273.7"/>
	<path fill="#CCCCCC" d="M153.1,103.5c0,7.9-12.3,25.5-20.2,25.5H90.2c-7.9,0-20.2-17.6-20.2-25.5l3.6-48.2
		c0-7.9,9.9-17.3,17.8-17.3h40.4c7.9,0,17.8,9.5,17.8,17.3L153.1,103.5z"/>
	<path fill="#CCCCCC" d="M206.3,230.2c0,24.5-19.899,44.399-44.399,44.399c-24.5,0-44.4-19.899-44.4-44.399s21.7-39.601,46.2-39.601
		C188.2,190.7,206.3,205.7,206.3,230.2z"/>
	<path fill="#CCCCCC" d="M143.5,142.5c0,0,42.6,45.4,44.5,68.6c1.9,23.2,5.8,44.801-9.7,57.2c-15.399,12.4-59.9,1.4-59.9,1.4
		S80.8,269,70,255.9C59.2,242.8,56.2,212.8,61.5,194.5c2-6.9,22.9-54.4,22.9-54.4S131.5,128.9,143.5,142.5z"/>
	<path fill="#CCCCCC" d="M163.7,6.8c0,0-0.601,42.4-4.2,47.4s-15.9-22.4-32.7-23.1C110,30.5,157.4,2.2,163.7,6.8z"/>
	<path d="M159.8,13.9c0,0-1.1,24.8-3.2,27.8c-2.1,3-8.8-14.2-18.899-14.6C127.6,26.7,156.1,11.1,159.8,13.9z"/>
	<ellipse cx="111.5" cy="105.8" rx="20.8" ry="11.1"/>
	<line fill="none" stroke="#000000" stroke-width="3" stroke-miterlimit="10" x1="122" y1="84.5" x2="142" y2="84.5"/>
	<line fill="none" stroke="#000000" stroke-width="3" stroke-miterlimit="10" x1="81" y1="84.5" x2="101" y2="84.5"/>
	<path fill="#CCCCCC" d="M61.5,4.5c0,0,0.6,42.4,4.2,47.4c3.6,5,15.9-22.4,32.7-23.1C115.2,28.1,67.7-0.2,61.5,4.5z"/>
	<path d="M65.3,11.5c0,0,1.1,24.8,3.2,27.8s8.8-14.2,18.9-14.6C97.6,24.3,69.1,8.7,65.3,11.5z"/>
	<path fill="#E05D6E" d="M141,136c0,2.2-1.8,4-4,4H85c-2.2,0-4-1.8-4-4l0,0c0-2.2,1.8-4,4-4h52C139.2,132,141,133.8,141,136L141,136
		z"/>
	<path fill="#CCCCCC" d="M203,250.8c0,0,13.7,3.4,22.3-13.3c8.601-16.8,17.7-28.6,17.7-28.6l-5.3,24.399c0,0-10.2,34.4-22.5,32.3
		C203,263.3,191.5,262.4,203,250.8z"/>
	<path stroke="#000000" stroke-miterlimit="10" d="M173.6,273c0,5.9-10.1,11.1-21.8,11.1s-20.7-5.199-20.7-11.1s9.5-16.5,21.3-16.5
		C164.1,256.5,173.6,267,173.6,273z"/>
	<path stroke="#000000" stroke-miterlimit="10" d="M103.5,268.2c0,5.899-10.1,11.1-21.8,11.1c-11.7,0-20.7-5.2-20.7-11.1
		c0-5.9,9.5-16.5,21.3-16.5C94,251.7,103.5,262.3,103.5,268.2z"/>
	<path fill="none" stroke="#4D4D4D" stroke-miterlimit="10" d="M133.4,266.6c0-24,17.5-43.3,39-43.3"/>
	<path fill="none" stroke="#4D4D4D" stroke-miterlimit="10" d="M102.3,266.6c0-24,10-43.3-11.5-43.3"/>
</g>
</svg>
