<?xml version="1.0" encoding="utf-8"?>
<!-- Generator: Adobe Illustrator 16.0.0, SVG Export Plug-In . SVG Version: 6.00 Build 0)  -->
<!DOCTYPE svg PUBLIC "-//W3C//DTD SVG 1.1//EN" "http://www.w3.org/Graphics/SVG/1.1/DTD/svg11.dtd">
<svg version="1.1" id="Layer_1" xmlns="http://www.w3.org/2000/svg" xmlns:xlink="http://www.w3.org/1999/xlink" x="0px" y="0px"
	 width="50px" height="50px" viewBox="0 0 50 50" style="enable-background:new 0 0 50 50;" xml:space="preserve">
<style type="text/css">
<![CDATA[
	.st0{fill:#E05D6E;}
	.st1{fill:#CCCCCC;}
]]>
</style>
<g>
	<path class="st0" d="M47.6,28.7c0,3.2-4,5.8-7.2,5.8L33.5,31l-8.4,1.1l-7.6-1.2l-7.3,3.6C7,34.5,3,31.9,3,28.7l2.9-7.1
		c0-3.2,3.5-5.6,6.7-5.6H38c3.2,0,6.7,2.5,6.7,5.6L47.6,28.7z"/>
	<path class="st0" d="M21,16.9c0,0.6-0.5,1.1-1.1,1.1h-6.8c-0.6,0-1.1-0.5-1.1-1.1v-0.8c0-0.6,0.5-1.1,1.1-1.1h6.8
		c0.6,0,1.1,0.5,1.1,1.1V16.9z"/>
	<path class="st0" d="M39,16.9c0,0.6-0.5,1.1-1.1,1.1h-6.8c-0.6,0-1.1-0.5-1.1-1.1v-0.8c0-0.6,0.5-1.1,1.1-1.1h6.8
		c0.6,0,1.1,0.5,1.1,1.1V16.9z"/>
	<circle class="st1" cx="12.3" cy="22.6" r="4"/>
	<circle class="st1" cx="38.7" cy="22.6" r="4"/>
	<path class="st1" d="M24,27.6c0,0.6,0.2,1.4-0.2,1.4H19c-0.4,0-1-0.8-1-1.4v-0.1c0-0.6,0.6-1.5,1-1.5h4.8C24.2,26,24,26.8,24,27.6
		L24,27.6z"/>
	<path class="st1" d="M33,27.6c0,0.6-0.1,1.4-0.5,1.4h-4.8c-0.4,0-0.7-0.8-0.7-1.4v-0.1c0-0.6,0.3-1.5,0.7-1.5h4.8
		C32.9,26,33,26.8,33,27.6L33,27.6z"/>
	<path class="st1" d="M31,24.7c0,0.7-0.6,1.3-1.3,1.3h-9.3c-0.7,0-1.3-0.6-1.3-1.3v-0.3c0-0.7,0.6-1.3,1.3-1.3h9.3
		c0.7,0,1.3,0.6,1.3,1.3V24.7z"/>
</g>
</svg>
