<?xml version="1.0" encoding="utf-8"?>
<!-- Generator: Adobe Illustrator 16.0.0, SVG Export Plug-In . SVG Version: 6.00 Build 0)  -->
<!DOCTYPE svg PUBLIC "-//W3C//DTD SVG 1.1//EN" "http://www.w3.org/Graphics/SVG/1.1/DTD/svg11.dtd">
<svg version="1.1" id="Layer_1" xmlns="http://www.w3.org/2000/svg" xmlns:xlink="http://www.w3.org/1999/xlink" x="0px" y="0px"
	 width="251px" height="282px" viewBox="0 0 251 282" style="enable-background:new 0 0 251 282;" xml:space="preserve">
<style type="text/css">
<![CDATA[
	.st0{fill:#E05D6E;}
	.st1{fill:#E3E5DA;}
	.st2{fill:#505050;}
	.st3{fill:#505050;stroke:#E3E5DA;stroke-width:3;stroke-miterlimit:10;}
	.st4{fill:#FFFFFF;}
	.st5{fill:none;}
	.st6{fill:#CCCCCC;}
]]>
</style>
<g>
	<ellipse class="st1" cx="124.5" cy="62.3" rx="100.5" ry="59.7"/>
	<path class="st1" d="M225,244.5c0,5.2-6.8,9.5-15.1,9.5H39.1c-8.3,0-15.1-4.3-15.1-9.5V68.7c0-5.2,6.8-9.7,15.1-9.7h170.8
		c8.3,0,15.1,4.5,15.1,9.7V244.5z"/>
	<g>
		<path class="st0" d="M48.6,80.4c0,0,15.4-37.8,60-32.3s60.5,37.7,57.1,55.6c-3.4,17.9,2.5,39.4,4.2,52.2s3.4,18.6-5.9,22
			s-5,15.1-9.2,29s-14.3,17.3-34.5,8.5s-12.2,0.2-12.2,0.2s11.2,25.3,15.4,31.8s-57,4-55.3-9.6c3.2-26.4-5.6-36.1-9.2-44.7
			C35.3,138.2,39.9,95.5,48.6,80.4z"/>
		<path class="st6" d="M46.2,105c0-28,25.8-50,57.7-50c31.9,0,57.7,22,57.7,50H46.2z"/>
		<g>
			<path class="st5" d="M96.3,78.9c-1.1-1.6-2.8-2.8-4.7-3.4c-1.8-0.6-3.9-0.6-5.8,0c-1.8,0.6-3.5,1.8-4.7,3.4
				c-1.2,1.6-1.8,3.5-1.8,5.5c0,2,0.6,3.9,1.8,5.5c1.1,1.6,2.8,2.8,4.7,3.4c1.8,0.6,3.9,0.6,5.8,0c1.8-0.6,3.5-1.8,4.7-3.4
				c1.2-1.6,1.8-3.5,1.8-5.5C98.1,82.4,97.5,80.5,96.3,78.9z"/>
			<path class="st2" d="M103.9,84.4c-0.1-0.7,0-1.3-0.1-2c1.6-0.7,3.1-1.6,4.6-2.6c-0.2-1-0.5-1.9-0.9-2.9c-1.8-0.1-3.7,0-5.4,0.2
				c-0.4-0.6-0.7-1.2-1.1-1.7c-0.4-0.5-0.8-1-1.3-1.5c0.9-1.5,1.6-3.1,2.2-4.8c-0.8-0.6-1.6-1.3-2.4-1.8c-1.5,1-2.9,2.1-4.2,3.4
				c-0.6-0.3-1.2-0.5-1.8-0.7c-0.6-0.2-1.3-0.4-1.9-0.5c-0.2-1.7-0.6-3.5-1.1-5.2c-1-0.1-2-0.1-3,0c-0.7,1.7-1.1,3.5-1.4,5.2
				c-0.6,0.1-1.3,0.3-1.9,0.5c-0.6,0.2-1.3,0.4-1.8,0.7c-1.2-1.3-2.5-2.5-3.9-3.5c-0.9,0.5-1.7,1.1-2.4,1.7c0.5,1.8,1.1,3.4,1.9,5
				c-0.5,0.5-0.9,1-1.3,1.5c-0.4,0.5-0.7,1.1-1.1,1.7c-1.7-0.3-3.4-0.5-5.2-0.6c-0.4,0.9-0.7,1.9-0.9,2.9c1.4,1.2,2.9,2.1,4.5,2.9
				c-0.1,0.7-0.1,1.3-0.1,2c0.1,0.7,0,1.3,0.1,2c-1.6,0.7-3.1,1.6-4.6,2.6c0.2,1,0.5,1.9,0.9,2.9c1.8,0.1,3.7,0,5.4-0.2
				c0.4,0.6,0.7,1.2,1.1,1.7c0.4,0.5,0.8,1,1.3,1.5c-0.9,1.5-1.6,3.1-2.2,4.8c0.8,0.6,1.6,1.3,2.4,1.8c1.5-1,2.9-2.1,4.2-3.4
				c0.6,0.3,1.2,0.5,1.8,0.7c0.6,0.2,1.3,0.4,1.9,0.5c0.2,1.7,0.6,3.5,1.1,5.2c1,0.1,2,0.1,3,0c0.7-1.7,1.1-3.5,1.4-5.2
				c0.7-0.1,1.3-0.3,1.9-0.5c0.6-0.2,1.3-0.4,1.8-0.7c1.2,1.3,2.5,2.5,3.9,3.5c0.9-0.5,1.7-1.1,2.4-1.7c-0.5-1.8-1.1-3.4-1.9-5
				c0.5-0.5,0.9-1,1.3-1.5c0.4-0.5,0.7-1.1,1.1-1.7c1.7,0.3,3.4,0.5,5.2,0.6c0.4-0.9,0.7-1.9,0.9-2.9c-1.4-1.2-2.9-2.1-4.5-2.9
				C103.9,85.7,103.8,85.1,103.9,84.4z M91.6,93.3c-1.8,0.6-3.9,0.6-5.8,0c-1.8-0.6-3.5-1.8-4.7-3.4c-1.2-1.6-1.8-3.5-1.8-5.5
				c0-2,0.6-3.9,1.8-5.5c1.1-1.6,2.8-2.8,4.7-3.4c1.8-0.6,3.9-0.6,5.8,0c1.8,0.6,3.5,1.8,4.7,3.4c1.2,1.6,1.8,3.5,1.8,5.5
				c0,2-0.6,3.9-1.8,5.5C95.2,91.5,93.5,92.6,91.6,93.3z"/>
		</g>
		<g>
			<path class="st2" d="M132.3,93c0-0.3,0.1-0.6,0.1-0.9c0.7-0.2,1.4-0.4,2.1-0.7c0-0.4,0-0.8-0.1-1.2c-0.7-0.2-1.4-0.4-2.2-0.6
				c0-0.3-0.1-0.6-0.2-0.9c-0.1-0.3-0.1-0.6-0.2-0.8c0.6-0.4,1.2-0.9,1.7-1.4c-0.1-0.4-0.3-0.7-0.5-1.1c-0.8,0-1.5,0.1-2.2,0.2
				c-0.2-0.2-0.3-0.5-0.5-0.7c-0.2-0.2-0.3-0.5-0.5-0.7c0.4-0.6,0.8-1.3,1.1-1.9c-0.3-0.3-0.5-0.6-0.8-0.8c-0.7,0.3-1.4,0.7-2,1
				c-0.2-0.2-0.5-0.3-0.7-0.5c-0.2-0.2-0.5-0.3-0.7-0.5c0.2-0.7,0.3-1.4,0.3-2.2c-0.4-0.2-0.7-0.3-1.1-0.5c-0.5,0.5-1,1.1-1.5,1.7
				c-0.3-0.1-0.6-0.2-0.8-0.2c-0.3-0.1-0.6-0.1-0.9-0.2c-0.1-0.7-0.3-1.4-0.5-2.2c-0.4,0-0.8-0.1-1.2-0.1c-0.3,0.7-0.6,1.4-0.8,2.1
				c-0.3,0-0.6,0.1-0.9,0.1c-0.3,0-0.6,0.1-0.9,0.2c-0.4-0.6-0.8-1.2-1.2-1.9c-0.4,0.1-0.7,0.2-1.1,0.4c0,0.8,0,1.5,0,2.3
				c-0.3,0.1-0.5,0.3-0.8,0.4c-0.3,0.1-0.5,0.3-0.7,0.5c-0.6-0.5-1.2-0.9-1.8-1.3c-0.3,0.2-0.6,0.5-0.9,0.8c0.2,0.7,0.5,1.4,0.9,2.1
				c-0.2,0.2-0.4,0.4-0.6,0.6c-0.2,0.2-0.4,0.5-0.5,0.7c-0.7-0.2-1.4-0.4-2.1-0.5c-0.2,0.3-0.4,0.7-0.6,1c0.5,0.6,1,1.1,1.6,1.6
				c-0.1,0.3-0.2,0.5-0.3,0.8c-0.1,0.3-0.2,0.6-0.2,0.8c-0.7,0-1.5,0.1-2.2,0.3c-0.1,0.4-0.1,0.8-0.2,1.2c0.7,0.4,1.3,0.7,2,1
				c0,0.3,0,0.6,0,0.9c0,0.3,0,0.6,0.1,0.9c-0.7,0.3-1.3,0.7-2,1c0.1,0.4,0.2,0.8,0.3,1.1c0.8,0.1,1.5,0.2,2.3,0.2
				c0.1,0.3,0.2,0.5,0.3,0.8c0.1,0.3,0.2,0.5,0.4,0.8c-0.5,0.5-1,1.1-1.4,1.7c0.2,0.3,0.4,0.7,0.7,1c0.7-0.2,1.5-0.4,2.2-0.7
				c0.2,0.2,0.4,0.4,0.6,0.6c0.2,0.2,0.4,0.4,0.6,0.6c-0.3,0.7-0.5,1.4-0.7,2.1c0.3,0.2,0.6,0.5,1,0.7c0.6-0.4,1.2-0.9,1.8-1.4
				c0.3,0.1,0.5,0.3,0.8,0.4c0.3,0.1,0.5,0.2,0.8,0.3c0,0.7,0,1.5,0.1,2.2c0.4,0.1,0.8,0.2,1.1,0.3c0.4-0.6,0.8-1.3,1.2-1.9
				c0.3,0,0.6,0.1,0.9,0.1c0.3,0,0.6,0,0.9,0c0.2,0.7,0.5,1.4,0.9,2c0.4,0,0.8-0.1,1.2-0.2c0.2-0.8,0.3-1.5,0.4-2.2
				c0.3-0.1,0.6-0.2,0.8-0.2c0.3-0.1,0.5-0.2,0.8-0.3c0.5,0.6,1,1.1,1.5,1.6c0.4-0.2,0.7-0.4,1-0.6c-0.1-0.8-0.3-1.5-0.5-2.2
				c0.2-0.2,0.5-0.3,0.7-0.5c0.2-0.2,0.4-0.4,0.6-0.6c0.6,0.3,1.3,0.7,2,0.9c0.3-0.3,0.5-0.6,0.7-0.9c-0.4-0.7-0.8-1.3-1.2-1.9
				c0.2-0.2,0.3-0.5,0.4-0.7c0.1-0.3,0.3-0.5,0.4-0.8c0.7,0.1,1.5,0.1,2.2,0.1c0.1-0.4,0.3-0.7,0.4-1.1c-0.6-0.5-1.2-0.9-1.8-1.3
				C132.2,93.6,132.2,93.3,132.3,93z M129.8,92.7c-0.1,1.1-0.5,2.1-1,3.1c-0.5,1-1.2,1.8-2.1,2.5c-0.8,0.7-1.8,1.2-2.8,1.6
				c-1,0.4-2.1,0.5-3.2,0.5c-1.1,0-2.2-0.3-3.2-0.7c-1-0.4-1.9-1.1-2.7-1.8c-0.8-0.8-1.4-1.7-1.8-2.7c-0.4-1-0.7-2.1-0.8-3.2
				c-0.1-1.1,0.1-2.2,0.4-3.2c0.3-1,0.9-2,1.6-2.8c0.7-0.8,1.5-1.6,2.5-2.1c0.9-0.5,2-0.9,3.1-1c1.1-0.2,2.2-0.1,3.2,0.1
				c1.1,0.2,2.1,0.7,3,1.3c0.9,0.6,1.7,1.4,2.3,2.3s1.1,1.9,1.3,3C129.9,90.5,130,91.6,129.8,92.7z"/>
		</g>
		<g>
			<path class="st5" d="M120.4,65.7c-0.4-0.9-0.9-1.7-1.6-2.4c-0.7-0.7-1.5-1.2-2.4-1.6c-0.9-0.4-1.8-0.5-2.8-0.6
				c-1,0-1.9,0.2-2.8,0.6s-1.7,0.9-2.4,1.6c-0.7,0.7-1.2,1.5-1.6,2.4c-0.4,0.9-0.6,1.8-0.6,2.8c0,1,0.2,1.9,0.6,2.8
				c0.4,0.9,0.9,1.7,1.6,2.4c0.7,0.7,1.5,1.2,2.4,1.6c0.9,0.4,1.8,0.5,2.8,0.6c1,0,1.9-0.2,2.8-0.6c0.9-0.4,1.7-0.9,2.4-1.6
				c0.7-0.7,1.2-1.5,1.6-2.4c0.4-0.9,0.5-1.8,0.6-2.8C120.9,67.6,120.7,66.6,120.4,65.7z M120,71.1c-0.3,0.8-0.9,1.6-1.5,2.2
				c-0.6,0.6-1.4,1.1-2.2,1.5c-0.8,0.3-1.7,0.5-2.6,0.5c-0.9,0-1.8-0.2-2.6-0.5c-0.8-0.3-1.6-0.9-2.2-1.5c-0.6-0.6-1.1-1.4-1.5-2.2
				c-0.3-0.8-0.5-1.7-0.5-2.6c0-0.9,0.2-1.8,0.5-2.6c0.3-0.8,0.9-1.6,1.5-2.2c0.6-0.6,1.4-1.1,2.2-1.5c0.8-0.3,1.7-0.5,2.6-0.5
				c0.9,0,1.8,0.2,2.6,0.5c0.8,0.3,1.6,0.9,2.2,1.5c0.6,0.6,1.1,1.4,1.5,2.2c0.3,0.8,0.5,1.7,0.5,2.6
				C120.5,69.4,120.4,70.3,120,71.1z"/>
			<path class="st5" d="M119.3,66.2c-0.3-0.7-0.8-1.4-1.3-2c-0.6-0.6-1.2-1-2-1.3c-0.7-0.3-1.5-0.5-2.3-0.5c-0.8,0-1.6,0.2-2.3,0.5
				c-0.7,0.3-1.4,0.8-2,1.3c-0.6,0.6-1,1.2-1.3,2c-0.3,0.7-0.5,1.5-0.5,2.3c0,0.8,0.2,1.6,0.5,2.3c0.3,0.7,0.8,1.4,1.3,2
				c0.6,0.6,1.2,1,2,1.3c0.7,0.3,1.5,0.5,2.3,0.5c0.8,0,1.6-0.2,2.3-0.5c0.7-0.3,1.4-0.8,2-1.3c0.6-0.6,1-1.2,1.3-2
				c0.3-0.7,0.5-1.5,0.5-2.3C119.7,67.7,119.6,66.9,119.3,66.2z"/>
			<path class="st2" d="M124.1,68.5l0-0.8c0.4-0.2,0.9-0.4,1.3-0.6c-0.1-0.6-0.2-1.2-0.4-1.8c-0.5,0-1-0.1-1.4-0.1l-0.3-0.7
				c-0.1-0.2-0.2-0.5-0.3-0.7c0.3-0.3,0.7-0.7,1-1.1c-0.3-0.5-0.6-1-1-1.5c-0.5,0.1-0.9,0.3-1.4,0.5l-0.5-0.6l-0.6-0.5
				c0.2-0.4,0.4-0.9,0.5-1.4c-0.5-0.4-1-0.7-1.5-1c-0.4,0.3-0.7,0.6-1.1,1c-0.2-0.1-0.5-0.2-0.7-0.3l-0.7-0.3c0-0.5,0-1-0.1-1.4
				c-0.6-0.2-1.2-0.3-1.8-0.4c-0.2,0.4-0.4,0.9-0.6,1.3l-0.8,0l-0.8,0c-0.2-0.4-0.4-0.9-0.6-1.3c-0.6,0.1-1.2,0.2-1.8,0.4
				c0,0.5-0.1,1-0.1,1.4l-0.7,0.3c-0.2,0.1-0.5,0.2-0.7,0.3c-0.3-0.3-0.7-0.7-1.1-1c-0.5,0.3-1,0.6-1.5,1c0.1,0.5,0.3,0.9,0.5,1.4
				l-0.6,0.5l-0.5,0.6c-0.4-0.2-0.9-0.4-1.4-0.5c-0.4,0.5-0.7,1-1,1.5c0.3,0.4,0.6,0.7,1,1.1c-0.1,0.2-0.2,0.5-0.3,0.7l-0.3,0.7
				c-0.5,0-1,0-1.4,0.1c-0.2,0.6-0.3,1.2-0.4,1.8c0.4,0.2,0.9,0.4,1.3,0.6l0,0.8l0,0.8c-0.4,0.2-0.9,0.4-1.3,0.6
				c0.1,0.6,0.2,1.2,0.4,1.8c0.5,0,1,0.1,1.4,0.1l0.3,0.7c0.1,0.2,0.2,0.5,0.3,0.7c-0.3,0.3-0.7,0.7-1,1.1c0.3,0.5,0.6,1,1,1.5
				c0.5-0.1,0.9-0.3,1.4-0.5l0.5,0.6l0.6,0.5c-0.2,0.4-0.4,0.9-0.5,1.4c0.5,0.4,1,0.7,1.5,1c0.4-0.3,0.7-0.6,1.1-1
				c0.2,0.1,0.5,0.2,0.7,0.3l0.7,0.3c0,0.5,0,1,0.1,1.4c0.6,0.2,1.2,0.3,1.8,0.4c0.2-0.4,0.4-0.9,0.6-1.3l0.8,0l0.8,0
				c0.2,0.4,0.4,0.9,0.6,1.3c0.6-0.1,1.2-0.2,1.8-0.4c0-0.5,0.1-1,0.1-1.4l0.7-0.3c0.2-0.1,0.5-0.2,0.7-0.3c0.3,0.3,0.7,0.7,1.1,1
				c0.5-0.3,1-0.6,1.5-1c-0.1-0.5-0.3-0.9-0.5-1.4l0.6-0.5l0.5-0.6c0.4,0.2,0.9,0.4,1.4,0.5c0.4-0.5,0.7-1,1-1.5
				c-0.3-0.4-0.6-0.7-1-1.1c0.1-0.2,0.2-0.5,0.3-0.7l0.3-0.7c0.5,0,1,0,1.4-0.1c0.2-0.6,0.3-1.2,0.4-1.8c-0.4-0.2-0.9-0.4-1.3-0.6
				L124.1,68.5z M118.8,73.6c-0.7,0.7-1.5,1.2-2.4,1.6c-0.9,0.4-1.8,0.5-2.8,0.6c-1,0-1.9-0.2-2.8-0.6c-0.9-0.4-1.7-0.9-2.4-1.6
				c-0.7-0.7-1.2-1.5-1.6-2.4c-0.4-0.9-0.6-1.8-0.6-2.8c0-1,0.2-1.9,0.6-2.8c0.4-0.9,0.9-1.7,1.6-2.4c0.7-0.7,1.5-1.2,2.4-1.6
				c0.9-0.4,1.8-0.5,2.8-0.6c1,0,1.9,0.2,2.8,0.6c0.9,0.4,1.7,0.9,2.4,1.6c0.7,0.7,1.2,1.5,1.6,2.4c0.4,0.9,0.5,1.8,0.6,2.8
				c0,1-0.2,1.9-0.6,2.8S119.5,73,118.8,73.6z"/>
			<path class="st2" d="M120,65.9c-0.3-0.8-0.9-1.6-1.5-2.2c-0.6-0.6-1.4-1.1-2.2-1.5c-0.8-0.3-1.7-0.5-2.6-0.5
				c-0.9,0-1.8,0.2-2.6,0.5c-0.8,0.3-1.6,0.9-2.2,1.5c-0.6,0.6-1.1,1.4-1.5,2.2c-0.3,0.8-0.5,1.7-0.5,2.6c0,0.9,0.2,1.8,0.5,2.6
				c0.3,0.8,0.9,1.6,1.5,2.2c0.6,0.6,1.4,1.1,2.2,1.5c0.8,0.3,1.7,0.5,2.6,0.5c0.9,0,1.8-0.2,2.6-0.5c0.8-0.3,1.6-0.9,2.2-1.5
				c0.6-0.6,1.1-1.4,1.5-2.2c0.3-0.8,0.5-1.7,0.5-2.6C120.5,67.6,120.4,66.7,120,65.9z M118,72.8c-0.6,0.6-1.2,1-2,1.3
				c-0.7,0.3-1.5,0.5-2.3,0.5c-0.8,0-1.6-0.2-2.3-0.5c-0.7-0.3-1.4-0.8-2-1.3c-0.6-0.6-1-1.2-1.3-2c-0.3-0.7-0.5-1.5-0.5-2.3
				c0-0.8,0.2-1.6,0.5-2.3c0.3-0.7,0.8-1.4,1.3-2c0.6-0.6,1.2-1,2-1.3c0.7-0.3,1.5-0.5,2.3-0.5c0.8,0,1.6,0.2,2.3,0.5
				c0.7,0.3,1.4,0.8,2,1.3c0.6,0.6,1,1.2,1.3,2c0.3,0.7,0.5,1.5,0.5,2.3c0,0.8-0.2,1.6-0.5,2.3C119,71.6,118.5,72.3,118,72.8z"/>
		</g>
	</g>
	<circle class="st4" cx="193.9" cy="116.9" r="9.9"/>
	<circle class="st4" cx="171" cy="191" r="3.9"/>
	<circle class="st4" cx="183.7" cy="179.2" r="6.1"/>
	<circle class="st4" cx="184.2" cy="149.7" r="8.8"/>
	<path class="st3" d="M234.5,251c0,5.2-4.3,9.5-9.5,9.5H23c-5.2,0-9.5-4.3-9.5-9.5l0,0c0-5.2,4.3-9.5,9.5-9.5h202
		C230.2,241.5,234.5,245.8,234.5,251L234.5,251z"/>
	<path class="st3" d="M246.8,269.5c0,5-4.6,9-10.3,9H14.3c-5.7,0-10.3-4-10.3-9l0,0c0-5,4.6-9,10.3-9h222.3
		C242.2,260.5,246.8,264.5,246.8,269.5L246.8,269.5z"/>
	<g>
		<path class="st4" d="M69,33.7c0,0-0.2,0.1-0.6,0.3c-0.4,0.2-0.9,0.4-1.6,0.7c-0.3,0.1-0.7,0.3-1.1,0.4c-0.4,0.2-0.7,0.4-1.1,0.6
			c-0.4,0.2-0.8,0.4-1.2,0.6c-0.4,0.2-0.8,0.5-1.3,0.7c-0.4,0.3-0.9,0.4-1.4,0.7c-0.5,0.3-0.9,0.5-1.4,0.8C59,38.8,58.5,39,58,39.4
			c-0.5,0.3-1,0.5-1.4,0.9c-0.4,0.3-0.9,0.6-1.4,0.9c-0.2,0.1-0.5,0.3-0.7,0.5l-0.7,0.5l-0.7,0.5c-0.2,0.2-0.4,0.4-0.7,0.5
			c-0.4,0.4-0.9,0.6-1.4,1l-1.3,1.1c-0.4,0.4-0.9,0.7-1.3,1.1c-0.9,0.7-1.7,1.5-2.6,2.3c-0.8,0.8-1.7,1.5-2.4,2.3
			c-0.4,0.4-0.8,0.8-1.2,1.1c-0.4,0.4-0.7,0.8-1.1,1.1c-0.8,0.7-1.3,1.5-2,2.1c-0.3,0.3-0.6,0.6-0.9,0.9c-0.3,0.3-0.5,0.6-0.7,0.8
			c-0.4,0.5-0.9,0.9-1.1,1.2c-0.3,0.3-0.4,0.4-0.4,0.4l-0.7-0.1c0,0,0.1-0.7,0.4-2c0.1-0.3,0.1-0.7,0.2-1c0.1-0.4,0.2-0.8,0.3-1.2
			c0.2-0.9,0.5-1.9,0.9-2.9c0.2-0.5,0.4-1,0.7-1.6c0.2-0.5,0.6-1.1,0.8-1.6c0.5-1.2,1.3-2.2,2.1-3.4c0.4-0.6,0.9-1.1,1.3-1.7
			l0.7-0.8c0.2-0.3,0.5-0.5,0.7-0.8c0.5-0.5,1-1.1,1.5-1.6l1.7-1.5c0.6-0.5,1.2-0.9,1.8-1.3l0.9-0.6l1-0.5c0.6-0.3,1.3-0.7,1.9-1
			c0.7-0.3,1.3-0.6,1.9-0.8c0.6-0.3,1.3-0.4,1.9-0.6c0.6-0.2,1.3-0.4,1.9-0.5c0.6-0.1,1.2-0.2,1.8-0.4c0.6-0.1,1.2-0.1,1.7-0.2
			c0.6,0,1.1-0.1,1.6-0.1c0.5,0,1,0,1.4,0c0.5,0,0.9,0,1.3,0c0.4,0,0.7,0.1,1,0.1c1.3,0.2,2,0.3,2,0.3L69,33.7z"/>
	</g>
</g>
</svg>
