<?xml version="1.0" encoding="utf-8"?>
<!-- Generator: Adobe Illustrator 16.0.0, SVG Export Plug-In . SVG Version: 6.00 Build 0)  -->
<!DOCTYPE svg PUBLIC "-//W3C//DTD SVG 1.1//EN" "http://www.w3.org/Graphics/SVG/1.1/DTD/svg11.dtd">
<svg version="1.1" id="Layer_1" xmlns="http://www.w3.org/2000/svg" xmlns:xlink="http://www.w3.org/1999/xlink" x="0px" y="0px"
	 width="76px" height="82px" viewBox="0 0 76 82" style="enable-background:new 0 0 76 82;" xml:space="preserve">
<style type="text/css">
<![CDATA[
	.st0{fill:#E05D6E;}
	.st1{fill:#CCCCCC;}
]]>
</style>
<g>
	<path class="st0" d="M65.7,70.7l2.4-44.7C68.1,17.9,57.9,8,49.9,8H26.8C18.7,8,8.5,17.9,8.5,25.9l2.4,44.9l27.4-31.7L65.7,70.7z"/>
	<path class="st1" d="M62.3,42.7c0,16.4-10.8,30.9-24,30.9c-13.3,0-24-14.5-24-30.9l14.4-26.1l9.7,3l9.7-3L62.3,42.7z"/>
	<path class="st0" d="M38,45.5c0,3-2.5,5.5-5.5,5.5h-13c-3,0-5.5-2.5-5.5-5.5v0c0-3,2.5-5.5,5.5-5.5h13C35.5,40,38,42.5,38,45.5
		L38,45.5z"/>
	<path class="st0" d="M62,45.5c0,3-2.5,5.5-5.5,5.5h-13c-3,0-5.5-2.5-5.5-5.5v0c0-3,2.5-5.5,5.5-5.5h13C59.5,40,62,42.5,62,45.5
		L62,45.5z"/>
	<path class="st0" d="M47,63c0,0.6-0.4,1-1,1H31c-0.6,0-1-0.4-1-1l0,0c0-0.6,0.4-1,1-1h15C46.6,62,47,62.4,47,63L47,63z"/>
</g>
</svg>
