<?xml version="1.0" encoding="utf-8"?>
<!-- Generator: Adobe Illustrator 16.0.0, SVG Export Plug-In . SVG Version: 6.00 Build 0)  -->
<!DOCTYPE svg PUBLIC "-//W3C//DTD SVG 1.1//EN" "http://www.w3.org/Graphics/SVG/1.1/DTD/svg11.dtd">
<svg version="1.1" id="Layer_1" xmlns="http://www.w3.org/2000/svg" xmlns:xlink="http://www.w3.org/1999/xlink" x="0px" y="0px"
	 width="76px" height="82px" viewBox="0 0 76 82" enable-background="new 0 0 76 82" xml:space="preserve">
<g>
	<path fill="#E05D6E" d="M65.7,70.7L68.1,26C68.1,17.9,57.9,8,49.9,8H26.8C18.7,8,8.5,17.9,8.5,25.9l2.4,44.9l27.4-31.7L65.7,70.7z"
		/>
	<path fill="#CCCCCC" d="M62.3,42.7C62.3,59.1,51.5,73.6,38.3,73.6c-13.3,0-24-14.5-24-30.899l14.4-26.1l9.7,3l9.7-3L62.3,42.7z"/>
	<path fill="#E05D6E" d="M38,45.5c0,3-2.5,5.5-5.5,5.5h-13c-3,0-5.5-2.5-5.5-5.5l0,0c0-3,2.5-5.5,5.5-5.5h13
		C35.5,40,38,42.5,38,45.5L38,45.5z"/>
	<path fill="#E05D6E" d="M62,45.5c0,3-2.5,5.5-5.5,5.5h-13c-3,0-5.5-2.5-5.5-5.5l0,0c0-3,2.5-5.5,5.5-5.5h13
		C59.5,40,62,42.5,62,45.5L62,45.5z"/>
	<path fill="#E05D6E" d="M47,63c0,0.6-0.4,1-1,1H31c-0.6,0-1-0.4-1-1l0,0c0-0.6,0.4-1,1-1h15C46.6,62,47,62.4,47,63L47,63z"/>
</g>
</svg>
