<?xml version="1.0" encoding="utf-8"?>
<!-- Generator: Adobe Illustrator 16.0.0, SVG Export Plug-In . SVG Version: 6.00 Build 0)  -->
<!DOCTYPE svg PUBLIC "-//W3C//DTD SVG 1.1//EN" "http://www.w3.org/Graphics/SVG/1.1/DTD/svg11.dtd">
<svg version="1.1" id="Layer_1" xmlns="http://www.w3.org/2000/svg" xmlns:xlink="http://www.w3.org/1999/xlink" x="0px" y="0px"
	 width="50px" height="50px" viewBox="0 0 50 50" style="enable-background:new 0 0 50 50;" xml:space="preserve">
<style type="text/css">
<![CDATA[
	.st0{fill:#E05D6E;}
	.st1{fill:#E05D6E;stroke:#E05D6E;stroke-width:3;stroke-miterlimit:10;}
	.st2{fill:#CCCCCC;}
]]>
</style>
<g>
	<line class="st1" x1="24.8" y1="16.7" x2="9.7" y2="1.6"/>
	<line class="st1" x1="25.2" y1="16.7" x2="40.3" y2="1.6"/>
	<path class="st2" d="M16.9,19c0-3,3.5-4,7.7-4s7.7,1,7.7,4H16.9z"/>
	<rect x="4" y="19" class="st0" width="41" height="30"/>
	<path class="st2" d="M38,42.2c0,1.9-1.2,3.8-2.7,3.8H10.2C8.6,46,7,44.1,7,42.2V25.2c0-1.9,1.6-3.2,3.2-3.2h25.1
		c1.6,0,2.7,1.3,2.7,3.2V42.2z"/>
	<circle class="st2" cx="41.5" cy="28.7" r="1.9"/>
	<circle class="st2" cx="41.5" cy="34.8" r="1.9"/>
	<circle class="st2" cx="41.5" cy="40.3" r="1.9"/>
</g>
</svg>
