<?xml version="1.0" encoding="utf-8"?>
<!-- Generator: Adobe Illustrator 16.0.0, SVG Export Plug-In . SVG Version: 6.00 Build 0)  -->
<!DOCTYPE svg PUBLIC "-//W3C//DTD SVG 1.1//EN" "http://www.w3.org/Graphics/SVG/1.1/DTD/svg11.dtd">
<svg version="1.1" id="Layer_1" xmlns="http://www.w3.org/2000/svg" xmlns:xlink="http://www.w3.org/1999/xlink" x="0px" y="0px"
	 width="50px" height="50px" viewBox="0 0 50 50" enable-background="new 0 0 50 50" xml:space="preserve">
<g>
	<line fill="none" stroke="#E05D6E" stroke-width="3" stroke-miterlimit="10" x1="24.8" y1="16.7" x2="9.7" y2="1.6"/>
	<line fill="none" stroke="#E05D6E" stroke-width="3" stroke-miterlimit="10" x1="25.2" y1="16.7" x2="40.3" y2="1.6"/>
	<path fill="#CCCCCC" d="M16.9,19c0-3,3.5-4,7.7-4c4.2,0,7.7,1,7.7,4H16.9z"/>
	<rect x="4" y="19" fill="#E05D6E" width="41" height="30"/>
	<path fill="#CCCCCC" d="M38,42.2c0,1.899-1.2,3.8-2.7,3.8H10.2C8.6,46,7,44.1,7,42.2v-17c0-1.9,1.6-3.2,3.2-3.2h25.1
		c1.601,0,2.7,1.3,2.7,3.2V42.2z"/>
	<circle fill="#CCCCCC" cx="41.5" cy="28.7" r="1.9"/>
	<circle fill="#CCCCCC" cx="41.5" cy="34.8" r="1.9"/>
	<circle fill="#CCCCCC" cx="41.5" cy="40.3" r="1.9"/>
</g>
</svg>
