<?xml version="1.0" encoding="utf-8"?>
<!-- Generator: Adobe Illustrator 16.0.0, SVG Export Plug-In . SVG Version: 6.00 Build 0)  -->
<!DOCTYPE svg PUBLIC "-//W3C//DTD SVG 1.1//EN" "http://www.w3.org/Graphics/SVG/1.1/DTD/svg11.dtd">
<svg version="1.1" id="Layer_1" xmlns="http://www.w3.org/2000/svg" xmlns:xlink="http://www.w3.org/1999/xlink" x="0px" y="0px"
	 width="50px" height="50px" viewBox="0 0 50 50" style="enable-background:new 0 0 50 50;" xml:space="preserve">
<style type="text/css">
<![CDATA[
	.st0{fill:#E05D6E;}
	.st1{fill:none;stroke:#CCCCCC;stroke-width:3;stroke-miterlimit:10;}
]]>
</style>
<g>
	<rect x="6.6" y="13.4" transform="matrix(0.9379 -0.3469 0.3469 0.9379 -9.2264 7.7363)" class="st0" width="20.9" height="32.5"/>
	<g>
		<line class="st1" x1="7" y1="23.3" x2="9.5" y2="19.5"/>
		<line class="st1" x1="13.7" y1="20.8" x2="9.5" y2="19.5"/>
		<line class="st1" x1="13.4" y1="20.9" x2="15.9" y2="17.1"/>
		<line class="st1" x1="20.1" y1="18.4" x2="15.9" y2="17.1"/>
	</g>
	<g>
		<line class="st1" x1="8.4" y1="27.1" x2="10.9" y2="23.3"/>
		<line class="st1" x1="15.1" y1="24.6" x2="10.9" y2="23.3"/>
		<line class="st1" x1="14.7" y1="24.7" x2="17.3" y2="20.9"/>
		<line class="st1" x1="21.5" y1="22.2" x2="17.3" y2="20.9"/>
	</g>
	<g>
		<line class="st1" x1="10.2" y1="30.7" x2="12.7" y2="26.9"/>
		<line class="st1" x1="16.9" y1="28.2" x2="12.7" y2="26.9"/>
		<line class="st1" x1="16.5" y1="28.3" x2="19.1" y2="24.5"/>
		<line class="st1" x1="23.2" y1="25.8" x2="19.1" y2="24.5"/>
	</g>
	<g>
		<line class="st1" x1="11.6" y1="34.4" x2="14.1" y2="30.7"/>
		<line class="st1" x1="18.3" y1="32" x2="14.1" y2="30.7"/>
		<line class="st1" x1="17.9" y1="32.1" x2="20.4" y2="28.3"/>
		<line class="st1" x1="24.6" y1="29.6" x2="20.4" y2="28.3"/>
	</g>
	<g>
		<line class="st1" x1="13.3" y1="38.1" x2="15.9" y2="34.3"/>
		<line class="st1" x1="20.1" y1="35.6" x2="15.9" y2="34.3"/>
		<line class="st1" x1="19.7" y1="35.7" x2="22.2" y2="31.9"/>
		<line class="st1" x1="26.4" y1="33.2" x2="22.2" y2="31.9"/>
	</g>
	<g>
		<line class="st1" x1="14.7" y1="41.8" x2="17.3" y2="38"/>
		<line class="st1" x1="21.5" y1="39.3" x2="17.3" y2="38"/>
		<line class="st1" x1="21.1" y1="39.5" x2="23.6" y2="35.7"/>
		<line class="st1" x1="27.8" y1="37" x2="23.6" y2="35.7"/>
	</g>
	<g>
		
			<rect x="22.6" y="4.5" transform="matrix(0.9564 0.2921 -0.2921 0.9564 7.5181 -8.7468)" class="st0" width="20.9" height="32.5"/>
		<g>
			<line class="st1" x1="28.9" y1="9.7" x2="33.3" y2="8.2"/>
			<line class="st1" x1="35.8" y1="11.8" x2="33.3" y2="8.2"/>
			<line class="st1" x1="35.4" y1="11.7" x2="39.7" y2="10.2"/>
			<line class="st1" x1="42.3" y1="13.8" x2="39.7" y2="10.2"/>
		</g>
		<g>
			<line class="st1" x1="27.8" y1="13.5" x2="32.1" y2="12.1"/>
			<line class="st1" x1="34.6" y1="15.6" x2="32.1" y2="12.1"/>
			<line class="st1" x1="34.3" y1="15.5" x2="38.6" y2="14"/>
			<line class="st1" x1="41.1" y1="17.6" x2="38.6" y2="14"/>
		</g>
		<g>
			<line class="st1" x1="27" y1="17.5" x2="31.3" y2="16"/>
			<line class="st1" x1="33.8" y1="19.6" x2="31.3" y2="16"/>
			<line class="st1" x1="33.5" y1="19.5" x2="37.8" y2="18"/>
			<line class="st1" x1="40.3" y1="21.6" x2="37.8" y2="18"/>
		</g>
		<g>
			<line class="st1" x1="25.8" y1="21.3" x2="30.1" y2="19.9"/>
			<line class="st1" x1="32.7" y1="23.4" x2="30.1" y2="19.9"/>
			<line class="st1" x1="32.3" y1="23.3" x2="36.6" y2="21.8"/>
			<line class="st1" x1="39.2" y1="25.4" x2="36.6" y2="21.8"/>
		</g>
		<g>
			<line class="st1" x1="25" y1="25.3" x2="29.3" y2="23.8"/>
			<line class="st1" x1="31.9" y1="27.4" x2="29.3" y2="23.8"/>
			<line class="st1" x1="31.5" y1="27.3" x2="35.8" y2="25.8"/>
			<line class="st1" x1="38.4" y1="29.4" x2="35.8" y2="25.8"/>
		</g>
		<g>
			<line class="st1" x1="23.9" y1="29.1" x2="28.2" y2="27.7"/>
			<line class="st1" x1="30.7" y1="31.2" x2="28.2" y2="27.7"/>
			<line class="st1" x1="30.3" y1="31.1" x2="34.6" y2="29.6"/>
			<line class="st1" x1="37.2" y1="33.2" x2="34.6" y2="29.6"/>
		</g>
	</g>
</g>
</svg>
